<svg width="240" height="53" viewBox="0 0 240 53" fill="none" xmlns="http://www.w3.org/2000/svg">
<path fill-rule="evenodd" clip-rule="evenodd" d="M1.3911 39.5814C2.31851 39.5814 2.31851 40.3512 2.31851 41.3574C2.31851 42.4379 2.31851 43.2076 1.3911 43.2076V43.5183C2.78222 43.5183 2.70339 42.206 2.70339 41.3574C2.70339 40.5877 2.78222 39.2754 1.3911 39.2754V39.5861V39.5814ZM1.3911 43.2076V43.5183C0.0788153 43.5183 0.157645 42.206 0.157645 41.3574C0.157645 40.5877 0.0788153 39.2754 1.3911 39.2754V39.5861C0.54252 39.5861 0.54252 40.3558 0.54252 41.3621C0.54252 42.4425 0.54252 43.2122 1.3911 43.2122V43.2076Z" fill="white"/>
<path fill-rule="evenodd" clip-rule="evenodd" d="M4.78524 41.5105C5.32314 41.5105 5.55499 41.8212 5.55499 42.2802C5.55499 42.897 5.32314 43.1288 4.78524 43.1288V43.4395H4.86407C5.55963 43.4395 5.86567 43.0546 5.86567 42.2802C5.86567 41.3528 5.32777 41.1998 4.78524 41.1998V41.5105ZM4.78524 39.6603V39.3496H5.55499V39.6603H4.78524ZM4.01549 41.5105V43.1288H4.78524V43.4395H3.62598V39.3496H4.78524V39.6603H4.01549V41.2044H4.78524V41.5151H4.01549V41.5105Z" fill="white"/>
<path fill-rule="evenodd" clip-rule="evenodd" d="M6.71436 39.3496H7.09923L7.0204 43.1334H8.56454V39.3496H8.94941V43.1334H10.4147V39.3496H10.8042V43.1334H11.0315V44.3669H10.6466V43.4395H6.71436V39.3496Z" fill="white"/>
<path fill-rule="evenodd" clip-rule="evenodd" d="M11.8799 39.3496V43.4395H13.8089V43.1334H12.2694V41.5105H13.6559V41.2044H12.2694V39.6603H13.7347V39.3496H11.8799Z" fill="white"/>
<path fill-rule="evenodd" clip-rule="evenodd" d="M16.6655 40.3512C16.6655 39.3496 16.1276 39.3496 15.7381 39.3496H15.6593V39.6603C16.0442 39.6603 16.276 39.6603 16.276 40.43C16.276 41.0468 16.0442 41.1998 15.6593 41.1998V41.5105C16.429 41.5105 16.6609 41.1256 16.6609 40.3512H16.6655ZM15.6639 39.3496V39.6603H14.9684V41.2044H15.6639V41.5151H14.9684V43.4441H14.5835L14.6623 39.3542H15.6639V39.3496Z" fill="white"/>
<path fill-rule="evenodd" clip-rule="evenodd" d="M18.6735 39.5814C19.6009 39.5814 19.522 40.3512 19.522 41.3574C19.522 42.4379 19.522 43.2076 18.6735 43.2076V43.5183C19.9857 43.5183 19.9069 42.206 19.9069 41.3574C19.9069 40.5877 19.9857 39.2754 18.6735 39.2754V39.5861V39.5814ZM18.6735 43.2076V43.5183C17.2823 43.5183 17.3612 42.206 17.3612 41.3574C17.3612 40.5877 17.2823 39.2754 18.6735 39.2754V39.5861C17.746 39.5861 17.746 40.3558 17.746 41.3621C17.746 42.4425 17.746 43.2122 18.6735 43.2122V43.2076Z" fill="white"/>
<path fill-rule="evenodd" clip-rule="evenodd" d="M20.8344 41.3574C20.8344 40.5877 20.7556 39.2754 22.0679 39.2754C23.1483 39.2754 23.1483 40.2028 23.1483 40.4347H22.7634C22.7634 39.9709 22.6104 39.5861 22.0679 39.5861C21.2193 39.5861 21.2193 40.3558 21.2193 41.3621C21.2193 42.4425 21.1404 43.2122 22.0679 43.2122C22.5316 43.2122 22.7634 42.8274 22.7634 42.2848H23.1483C23.1483 42.5955 23.0695 43.5183 22.0679 43.5183C20.7556 43.5183 20.8344 42.206 20.8344 41.3574Z" fill="white"/>
<path fill-rule="evenodd" clip-rule="evenodd" d="M23.9178 41.3574C23.9178 40.5877 23.839 39.2754 25.2301 39.2754C26.3105 39.2754 26.2317 40.2028 26.2317 40.4347H25.8468C25.9257 39.9709 25.6938 39.5861 25.2301 39.5861C24.3027 39.5861 24.3027 40.3558 24.3027 41.3621C24.3027 42.4425 24.3027 43.2122 25.2301 43.2122C25.6938 43.2122 25.8468 42.8274 25.8468 42.2848H26.2317C26.2317 42.5955 26.2317 43.5183 25.2301 43.5183C23.839 43.5183 23.9178 42.206 23.9178 41.3574Z" fill="white"/>
<path fill-rule="evenodd" clip-rule="evenodd" d="M27.1592 43.4395V39.3496H27.5441V42.6697L29.167 39.3496H29.5519V43.4395H29.167V40.124L27.5441 43.4395H27.1592Z" fill="white"/>
<path fill-rule="evenodd" clip-rule="evenodd" d="M31.2488 38.3477C31.3276 38.6583 31.7125 38.7325 31.8655 38.7325C32.0186 38.7325 32.4034 38.6537 32.4823 38.3477H32.7141C32.7141 38.8114 32.2504 38.9644 31.8655 38.9644C31.5549 38.9644 31.017 38.8114 31.017 38.3477H31.2488ZM32.6399 43.4391V40.119L31.0216 43.4391H30.6367V39.3493H31.0216V42.6694L32.6399 39.3493H33.0248V43.4391H32.6399Z" fill="white"/>
<path fill-rule="evenodd" clip-rule="evenodd" d="M33.9476 41.3574C33.9476 40.5877 33.8688 39.2754 35.2599 39.2754C36.3403 39.2754 36.2615 40.2028 36.2615 40.4347H35.8766C35.8766 39.9709 35.7236 39.5861 35.2599 39.5861C34.3325 39.5861 34.3325 40.3558 34.3325 41.3621C34.3325 42.4425 34.3325 43.2122 35.2599 43.2122C35.7236 43.2122 35.8766 42.8274 35.8766 42.2848H36.2615C36.2615 42.5955 36.1827 43.5183 35.2599 43.5183C33.8688 43.5183 33.9476 42.206 33.9476 41.3574Z" fill="white"/>
<path fill-rule="evenodd" clip-rule="evenodd" d="M37.189 43.4395L37.2678 39.3496H37.5738V41.2044L39.118 39.3496H39.5029L37.9634 41.2786L39.5817 43.4395H39.118L37.5738 41.3575V43.4395H37.189Z" fill="white"/>
<path fill-rule="evenodd" clip-rule="evenodd" d="M41.9746 42.0542H41.3579V42.3649H42.0535L42.3642 43.4453H42.749L41.5898 39.3555H41.3579V39.7403L41.9746 42.0542ZM41.3579 42.0542V42.3649H40.6624L40.3517 43.4453H39.9668L41.1261 39.3555H41.3579V39.7403L40.7412 42.0542H41.3579Z" fill="white"/>
<path fill-rule="evenodd" clip-rule="evenodd" d="M45.1368 43.4402V41.4324H44.4413V41.1217H45.1368V39.6564H44.4413V39.3457H45.5217V43.4356H45.1368V43.4402ZM44.4413 41.4324V41.1217C43.9776 41.1217 43.7457 40.9687 43.7457 40.2731C43.7457 39.7352 43.9776 39.6564 44.3624 39.6564H44.4413V39.3457H44.3624C43.5139 39.3457 43.3608 39.5776 43.3608 40.3473C43.3608 40.811 43.4397 41.1959 43.9776 41.2747C43.4397 41.4277 43.3608 41.5066 43.3608 42.9719V43.4356H43.6715C43.7504 43.3568 43.7504 42.6658 43.7504 42.434C43.7504 42.281 43.5973 41.4324 44.4459 41.4324H44.4413Z" fill="white"/>
<path fill-rule="evenodd" clip-rule="evenodd" d="M49.3058 39.5814C50.1544 39.5814 50.1544 40.3512 50.1544 41.3574C50.1544 42.4379 50.1544 43.2076 49.3058 43.2076V43.5183C50.6181 43.5183 50.5392 42.206 50.5392 41.3574C50.5392 40.5877 50.6181 39.2754 49.3058 39.2754V39.5861V39.5814ZM49.3058 43.2076V43.5183C47.9147 43.5183 47.9935 42.206 47.9935 41.3574C47.9935 40.5877 47.9147 39.2754 49.3058 39.2754V39.5861C48.3784 39.5861 48.3784 40.3558 48.3784 41.3621C48.3784 42.4425 48.3784 43.2122 49.3058 43.2122V43.2076Z" fill="white"/>
<path fill-rule="evenodd" clip-rule="evenodd" d="M52.621 41.5105C53.1589 41.5105 53.3907 41.8212 53.3907 42.2802C53.3907 42.897 53.1589 43.1288 52.621 43.1288V43.4395H52.6998C53.3953 43.4395 53.7802 43.0546 53.7802 42.2802C53.7802 41.3528 53.1635 41.1998 52.621 41.1998V41.5105ZM52.621 39.6603V39.3496H53.3907V39.6603H52.621ZM51.8512 41.5105V43.1288H52.621V43.4395H51.5405V39.3496H52.621V39.6603H51.8512V41.2044H52.621V41.5151H51.8512V41.5105Z" fill="white"/>
<path fill-rule="evenodd" clip-rule="evenodd" d="M54.5503 39.3496H54.9352V43.1334H56.4051V39.3496H56.79V43.1334H58.2553V39.3496H58.6402V43.1334H58.9509V44.3669H58.5613V43.4395H54.5503V39.3496Z" fill="white"/>
<path fill-rule="evenodd" clip-rule="evenodd" d="M61.6497 39.3496V39.6603H60.1056V41.2044H61.5709V41.5105H60.1056V43.1334H61.6497V43.4395H59.7207V39.3496H61.6497Z" fill="white"/>
<path fill-rule="evenodd" clip-rule="evenodd" d="M62.4194 41.3574C62.4194 40.5877 62.3405 39.2754 63.7316 39.2754C64.8121 39.2754 64.7333 40.2028 64.7333 40.4347H64.3484C64.3484 39.9709 64.1954 39.5861 63.7316 39.5861C62.8042 39.5861 62.8042 40.3558 62.8042 41.3621C62.8042 42.4425 62.8042 43.2122 63.6528 43.2122C64.1907 43.2122 64.3484 42.8274 64.3484 42.2848H64.7333C64.7333 42.5955 64.6544 43.5183 63.6528 43.5183C62.3405 43.5183 62.4194 42.206 62.4194 41.3574Z" fill="white"/>
<path fill-rule="evenodd" clip-rule="evenodd" d="M66.3561 39.6603H65.3545V39.3496H67.7472V39.6603H66.741L66.6668 43.4395H66.3561V39.6603Z" fill="white"/>
<path fill-rule="evenodd" clip-rule="evenodd" d="M69.5184 39.6615C69.8291 39.6615 70.214 39.6615 70.214 40.3571C70.214 40.8208 70.061 41.2057 69.5184 41.2057V41.5163C70.214 41.5163 70.2882 41.98 70.2882 42.3649C70.2882 42.9028 70.0563 43.1347 69.5184 43.1347V43.4453H69.5973C70.2928 43.4453 70.6777 43.0605 70.6777 42.2861C70.6777 41.8224 70.5247 41.4375 69.9821 41.2845C70.52 41.1315 70.5989 40.8208 70.5989 40.3571C70.5989 39.5873 70.214 39.3555 69.5973 39.3555H69.5184V39.6662V39.6615ZM68.8229 41.2057H69.5184V41.5163H68.8229V43.1347H69.5184V43.4453H68.438V39.3555H69.5184V39.6662H68.8229V41.2103V41.2057Z" fill="white"/>
<path fill-rule="evenodd" clip-rule="evenodd" d="M71.605 39.3496V43.4395H73.5294V43.1334H71.911V41.5105H73.3763V41.2044H71.911L71.9899 39.6603H73.4552V39.3496H71.605Z" fill="white"/>
<path fill-rule="evenodd" clip-rule="evenodd" d="M74.3828 43.4395V39.3496H74.7677V41.2044H76.386V39.3496H76.7709V43.4395H76.386V41.5105H74.7677V43.4395H74.3828Z" fill="white"/>
<path fill-rule="evenodd" clip-rule="evenodd" d="M77.8516 43.4395V39.3496H78.2411V41.2044H79.8594V39.3496H80.2443V43.4395H79.8594V41.5105H78.2411L78.1622 43.4395H77.8516Z" fill="white"/>
<path fill-rule="evenodd" clip-rule="evenodd" d="M82.9473 42.0542H82.3306V42.3649H83.0261L83.3368 43.4453H83.7217L82.5624 39.3555H82.3306V39.8192L82.9473 42.0589V42.0542ZM82.3306 42.0542V42.3649H81.635L81.3243 43.4453H80.9395L82.0987 39.3555H82.3306V39.8192V39.7403L81.7138 42.0542H82.3306Z" fill="white"/>
<path fill-rule="evenodd" clip-rule="evenodd" d="M86.1099 43.4402V41.4324H85.4144V41.1217H86.1099V39.6564H85.4144V39.3457H86.4948V43.4356H86.1099V43.4402ZM85.4144 41.4324V41.1217C84.8765 41.1217 84.6446 40.9687 84.6446 40.2731C84.7235 39.7352 84.8765 39.6564 85.3402 39.6564H85.419V39.3457H85.3402C84.4916 39.3457 84.3386 39.5776 84.3386 40.3473C84.3386 40.811 84.4174 41.1959 84.9553 41.2747C84.3386 41.4277 84.3386 41.5066 84.3386 42.9719C84.3386 43.1249 84.3386 43.2826 84.2598 43.4356H84.6446C84.6446 43.3568 84.7235 42.6658 84.7235 42.434C84.7235 42.281 84.5704 41.4324 85.419 41.4324H85.4144Z" fill="white"/>
<path fill-rule="evenodd" clip-rule="evenodd" d="M90.1997 39.5814H90.2785C91.1271 39.5814 91.1271 40.3512 91.1271 41.3574C91.1271 42.4379 91.1271 43.2076 90.1997 43.2076V43.5183C91.5908 43.5183 91.512 42.206 91.512 41.3574C91.512 40.5877 91.5908 39.2754 90.2785 39.2754H90.1997V39.5861V39.5814ZM90.1997 43.2076V43.5183C88.8874 43.5183 88.9662 42.206 88.9662 41.3574C88.9662 40.5877 88.8874 39.2754 90.1997 39.2754V39.5861C89.3511 39.5861 89.3511 40.3558 89.3511 41.3621C89.3511 42.4425 89.3511 43.2122 90.1997 43.2122V43.2076Z" fill="white"/>
<path fill-rule="evenodd" clip-rule="evenodd" d="M94.1317 40.43C94.1317 41.0468 93.8999 41.1998 93.515 41.1998V41.5105C94.2106 41.5105 94.5166 41.1256 94.5166 40.3512C94.5166 39.3496 93.9787 39.3496 93.5892 39.3496H93.5104V39.6603C93.8211 39.6603 94.1271 39.6603 94.1271 40.43H94.1317ZM93.515 41.1998V41.5105H92.8194V43.4395H92.4346V39.3496H93.515V39.6603H92.8194V41.2044H93.515V41.1998Z" fill="white"/>
<path fill-rule="evenodd" clip-rule="evenodd" d="M95.2915 43.4395H95.6764V39.6603H97.0675V39.3496H95.2915V43.4395Z" fill="white"/>
<path fill-rule="evenodd" clip-rule="evenodd" d="M98.375 42.0542H98.9917L98.375 39.7403V39.3555H98.6069L99.7661 43.4453H99.3812L99.0706 42.3649H98.375V42.0542ZM98.375 39.7403V39.3555H98.1431L96.9839 43.4453H97.3688L97.6006 42.3649H98.3704V42.0542H97.7536L98.3704 39.7403H98.375Z" fill="white"/>
<path fill-rule="evenodd" clip-rule="evenodd" d="M100.461 43.4395V39.3496H100.846V41.2044H102.465V39.3496H102.854V43.4395H102.465V41.5105H100.846V43.4395H100.461Z" fill="white"/>
<path fill-rule="evenodd" clip-rule="evenodd" d="M103.856 43.4395L103.93 39.3496H104.241V42.6697L105.938 39.3496H106.249V43.4395H105.938V40.124L104.241 43.4395H103.856Z" fill="white"/>
<path fill-rule="evenodd" clip-rule="evenodd" d="M108.02 41.1263C108.715 41.2051 108.947 40.8945 108.947 40.2777C108.947 39.814 108.794 39.5822 108.331 39.5822C107.867 39.5822 107.635 39.8928 107.714 40.3519H107.329C107.25 39.7352 107.64 39.2715 108.256 39.2715C108.952 39.2715 109.337 39.5033 109.337 40.2731C109.337 40.7368 109.258 41.2005 108.72 41.2747V41.3535C109.258 41.3535 109.416 41.8172 109.416 42.3551C109.416 43.1249 109.031 43.5144 108.335 43.5144C107.64 43.5144 107.176 43.2037 107.255 42.434H107.64C107.561 42.8977 107.793 43.2037 108.256 43.2037C108.873 43.2037 109.026 42.893 109.026 42.434C109.026 41.7384 108.794 41.4323 108.025 41.5065V41.1217L108.02 41.1263Z" fill="white"/>
<path fill-rule="evenodd" clip-rule="evenodd" d="M111.419 42.053H112.036L111.419 39.8133V39.3496H111.651L112.81 43.4395H112.425L112.114 42.3591H111.419V42.0484V42.053ZM111.419 39.7391V39.818V39.3542H111.187L109.954 43.4441H110.417L110.649 42.3637H111.419V42.053H110.723L111.34 39.7391H111.419Z" fill="white"/>
<path fill-rule="evenodd" clip-rule="evenodd" d="M113.501 39.3496H113.886V43.1334H115.504V39.3496H115.894V43.1334H116.126V44.3669H115.736V43.4395H113.501V39.3496Z" fill="white"/>
<path fill-rule="evenodd" clip-rule="evenodd" d="M116.895 43.4395L116.974 39.3496H117.28V42.6697L118.977 39.3496H119.288V43.4395H118.977V40.124H118.903L117.28 43.4395H116.895Z" fill="white"/>
<path fill-rule="evenodd" clip-rule="evenodd" d="M122.066 41.1256H121.37V41.4363H122.066V43.4441H122.451V39.3542H121.37V39.6649H122.066V41.1302V41.1256ZM121.37 41.1256V41.4363C120.6 41.4363 120.675 42.2849 120.675 42.4379C120.675 42.6697 120.675 43.3653 120.596 43.4395H120.285V42.9758C120.285 41.5105 120.364 41.4316 120.902 41.2786C120.364 41.1998 120.285 40.8149 120.285 40.3512C120.285 39.5815 120.517 39.3496 121.287 39.3496H121.366V39.6603H121.287C120.902 39.6603 120.67 39.7391 120.67 40.277C120.67 40.9726 120.902 41.1256 121.366 41.1256H121.37Z" fill="white"/>
<path fill-rule="evenodd" clip-rule="evenodd" d="M124.917 43.4395V39.3496H125.613L126.772 43.0546H126.846L128.006 39.3496H128.622V43.4395H128.238V39.6603L127.004 43.4395H126.615L125.307 39.6603V43.4395H124.917Z" fill="white"/>
<path fill-rule="evenodd" clip-rule="evenodd" d="M131.321 42.0542H130.705V42.3649H131.474L131.706 43.4453H132.091L130.932 39.3555H130.7V39.8192L131.317 42.0589L131.321 42.0542ZM130.705 42.0542V42.3649H130.009L129.698 43.4453H129.313L130.473 39.3555H130.705V39.8192V39.7403L130.088 42.0542H130.705Z" fill="white"/>
<path fill-rule="evenodd" clip-rule="evenodd" d="M135.337 43.4395H135.026V39.6603H133.639V40.8937C133.639 42.2849 133.639 42.8228 133.255 43.2865C133.023 43.5183 132.87 43.5183 132.717 43.5183C132.564 43.5183 132.485 43.4395 132.485 43.4395V43.1288C132.485 43.1288 132.564 43.2076 132.638 43.2076C132.712 43.2076 132.87 43.1288 132.949 43.0546C133.333 42.5167 133.259 42.053 133.259 40.5089L133.338 39.3496H135.346V43.4395H135.337Z" fill="white"/>
<path fill-rule="evenodd" clip-rule="evenodd" d="M137.651 39.5814C138.499 39.5814 138.499 40.3512 138.499 41.3574C138.499 42.4379 138.499 43.2076 137.651 43.2076V43.5183C138.963 43.5183 138.884 42.206 138.884 41.3574C138.884 40.5877 138.963 39.2754 137.651 39.2754V39.5861V39.5814ZM137.651 43.2076V43.5183C136.259 43.5183 136.338 42.206 136.338 41.3574C136.338 40.5877 136.259 39.2754 137.651 39.2754V39.5861C136.723 39.5861 136.723 40.3558 136.723 41.3621C136.723 42.4425 136.723 43.2122 137.651 43.2122V43.2076Z" fill="white"/>
<path fill-rule="evenodd" clip-rule="evenodd" d="M139.886 39.3496H141.662V39.6603H140.196V43.4395H139.886V39.3496Z" fill="white"/>
<path fill-rule="evenodd" clip-rule="evenodd" d="M143.517 39.5814H143.595C144.444 39.5814 144.444 40.3512 144.444 41.3574C144.444 42.4379 144.444 43.2076 143.517 43.2076V43.5183C144.908 43.5183 144.829 42.206 144.829 41.3574C144.829 40.5877 144.908 39.2754 143.595 39.2754H143.517V39.5861V39.5814ZM143.517 43.2076V43.5183C142.204 43.5183 142.283 42.206 142.283 41.3574C142.283 40.5877 142.204 39.2754 143.517 39.2754V39.5861C142.668 39.5861 142.668 40.3558 142.668 41.3621C142.668 42.4425 142.668 43.2122 143.517 43.2122V43.2076Z" fill="white"/>
<path fill-rule="evenodd" clip-rule="evenodd" d="M147.296 43.4395L147.37 39.3496H147.681V42.6697L149.378 39.3496H149.689V43.4395H149.378V40.124H149.299L147.681 43.4395H147.296Z" fill="white"/>
<path fill-rule="evenodd" clip-rule="evenodd" d="M152.234 41.3574C152.234 40.5877 152.081 39.2754 153.468 39.2754C154.548 39.2754 154.469 40.2028 154.469 40.4347H154.085C154.163 39.9709 154.006 39.5861 153.468 39.5861C152.54 39.5861 152.54 40.3558 152.54 41.3621C152.54 42.4425 152.54 43.2122 153.468 43.2122C153.932 43.2122 154.163 42.8274 154.163 42.2848H154.548C154.548 42.5955 154.469 43.5183 153.468 43.5183C152.077 43.5183 152.234 42.206 152.234 41.3574Z" fill="white"/>
<path fill-rule="evenodd" clip-rule="evenodd" d="M157.094 40.43C157.094 41.0468 156.862 41.1998 156.398 41.1998V41.5105H156.477C157.173 41.5105 157.479 41.1256 157.479 40.3512C157.479 39.3496 156.862 39.3496 156.551 39.3496H156.398V39.6603C156.783 39.6603 157.094 39.6603 157.094 40.43ZM156.398 41.1998V41.5105H155.782L155.703 43.4395H155.392V39.3496H156.394V39.6603H155.777V41.2044H156.394L156.398 41.1998Z" fill="white"/>
<path fill-rule="evenodd" clip-rule="evenodd" d="M160.103 39.3496V39.6603H158.638L158.559 41.2044H160.024V41.5105H158.559V43.1334H160.182V43.4395H158.253V39.3496H160.103Z" fill="white"/>
<path fill-rule="evenodd" clip-rule="evenodd" d="M162.264 39.6615H163.266V43.1347H162.264V43.4453H163.498V44.3728H163.883V43.1393H163.572L163.651 39.3601H162.26V39.6708L162.264 39.6615ZM161.337 43.1347H162.264V43.4453H161.031V44.3728H160.646V43.1393H160.957C161.189 42.9074 161.42 42.3695 161.495 41.98C161.648 41.3633 161.648 40.8996 161.648 39.6662V39.3555H162.264V39.6662H162.032V39.8192C162.032 40.8208 161.954 41.4375 161.879 41.9012C161.726 42.4391 161.569 42.9816 161.342 43.1347H161.337Z" fill="white"/>
<path fill-rule="evenodd" clip-rule="evenodd" d="M164.657 43.4395V39.3496H165.042V41.2044H166.66V39.3496H167.049V43.4395H166.66V41.5105H165.042V43.4395H164.657Z" fill="white"/>
<path fill-rule="evenodd" clip-rule="evenodd" d="M169.98 39.3496V39.6603H168.436V41.2044H169.901V41.5105H168.436V43.1334H170.059V43.4395H168.13V39.3496H169.98Z" fill="white"/>
<path fill-rule="evenodd" clip-rule="evenodd" d="M170.908 39.3496H172.679V39.6603H171.293L171.214 43.4395H170.908V39.3496Z" fill="white"/>
<path fill-rule="evenodd" clip-rule="evenodd" d="M174.608 39.5814C175.457 39.5814 175.457 40.3512 175.457 41.3574C175.457 42.4379 175.457 43.2076 174.608 43.2076V43.5183C175.92 43.5183 175.842 42.206 175.842 41.3574C175.842 40.5877 175.92 39.2754 174.608 39.2754V39.5861V39.5814ZM174.529 43.2076H174.608V43.5183H174.529C173.217 43.5183 173.296 42.206 173.296 41.3574C173.296 40.5877 173.217 39.2754 174.608 39.2754V39.5861C173.681 39.5861 173.681 40.3558 173.681 41.3621C173.681 42.4425 173.681 43.2122 174.529 43.2122V43.2076Z" fill="white"/>
<path fill-rule="evenodd" clip-rule="evenodd" d="M178.313 43.4395L178.392 39.3496H180.706V43.4395H180.395V39.6603H178.698V43.4395H178.313Z" fill="white"/>
<path fill-rule="evenodd" clip-rule="evenodd" d="M183.484 40.43C183.484 41.0468 183.173 41.1998 182.788 41.1998V41.5105H182.867C183.562 41.5105 183.794 41.1256 183.794 40.3512C183.794 39.3496 183.256 39.3496 182.946 39.3496H182.793V39.6603C183.178 39.6603 183.488 39.6603 183.488 40.43H183.484ZM182.788 41.1998V41.5105H182.092V43.4395H181.782V39.3496H182.783V39.6603H182.088V41.2044H182.783L182.788 41.1998Z" fill="white"/>
<path fill-rule="evenodd" clip-rule="evenodd" d="M186.493 39.3496V39.6603H184.949V41.2044H186.414V41.5105H184.949V43.1334H186.567V43.4395H184.564L184.638 39.3496H186.493Z" fill="white"/>
<path fill-rule="evenodd" clip-rule="evenodd" d="M188.653 39.6615H189.655V43.1347H188.653V43.4453H189.887V44.3728H190.272V43.1393H189.961V39.3601H188.649V39.6708L188.653 39.6615ZM187.726 43.1347H188.653V43.4453H187.42V44.3728H187.035V43.1393H187.346C187.499 42.9074 187.731 42.3695 187.884 41.98C188.037 41.3633 188.037 40.8996 188.037 39.6662V39.3555H188.653V39.6662H188.422V39.8192C188.422 40.8208 188.343 41.4375 188.269 41.9012C188.116 42.4391 187.958 42.9816 187.731 43.1347H187.726Z" fill="white"/>
<path fill-rule="evenodd" clip-rule="evenodd" d="M191.042 43.4395V39.3496H193.435V43.4395H193.05V39.6603H191.432V43.4395H191.042Z" fill="white"/>
<path fill-rule="evenodd" clip-rule="evenodd" d="M196.138 40.43C196.138 41.0468 195.906 41.1998 195.521 41.1998H195.442V41.5105H195.521C196.216 41.5105 196.522 41.1256 196.522 40.3512C196.522 39.3496 195.906 39.3496 195.595 39.3496H195.442V39.6603H195.521C195.832 39.6603 196.138 39.6603 196.138 40.43ZM195.442 41.1998V41.5105H194.825V43.4395H194.44V39.3496H195.442V39.6603H194.825V41.2044H195.442V41.1998Z" fill="white"/>
<path fill-rule="evenodd" clip-rule="evenodd" d="M197.292 43.4395V39.3496H197.677V42.6697L199.3 39.3496H199.685V43.4395H199.3V40.124L197.677 43.4395H197.292Z" fill="white"/>
<path fill-rule="evenodd" clip-rule="evenodd" d="M200.687 43.4395L200.766 39.3496H201.077V41.2044H202.774V39.3496H203.08V43.4395H202.774V41.5105H201.077V43.4395H200.687Z" fill="white"/>
<path fill-rule="evenodd" clip-rule="evenodd" d="M204.16 43.4395V39.3496H204.545V42.6697L206.168 39.3496H206.552V43.4395H206.168V40.124L204.545 43.4395H204.16Z" fill="white"/>
<path fill-rule="evenodd" clip-rule="evenodd" d="M207.633 43.4395V39.3496H208.25L209.483 43.0546L210.722 39.3496H211.338V43.4395H210.949V39.6603L209.715 43.4395H209.252L208.018 39.6603V43.4395H207.633Z" fill="white"/>
<path fill-rule="evenodd" clip-rule="evenodd" d="M213.42 42.0542H214.037L213.42 39.7403V39.3555H213.652L214.811 43.4453H214.426L214.115 42.3649H213.42V42.0542ZM213.42 39.7403V39.3555H213.188L212.029 43.4453H212.414C212.414 43.4453 212.724 42.3649 212.646 42.3649H213.415V42.0542H212.799L213.415 39.7403H213.42Z" fill="white"/>
<path fill-rule="evenodd" clip-rule="evenodd" d="M215.887 39.6603H214.886V39.3496H217.278V39.6603H216.277V43.4395H215.887V39.6603Z" fill="white"/>
<path fill-rule="evenodd" clip-rule="evenodd" d="M217.974 39.3496V43.4395H219.903V43.1334H218.359V41.5105H219.824V41.2044H218.359V39.6603H219.903V39.3496H217.974Z" fill="white"/>
<path fill-rule="evenodd" clip-rule="evenodd" d="M223.372 43.4395H222.987V39.6603H221.674V40.8937C221.674 42.2849 221.674 42.8228 221.211 43.2865C221.058 43.5183 220.826 43.5183 220.673 43.5183C220.52 43.5183 220.441 43.4395 220.441 43.4395V43.1288C220.441 43.1288 220.52 43.2076 220.594 43.2076C220.668 43.2076 220.826 43.1288 220.979 43.0546C221.289 42.5167 221.289 42.053 221.289 40.5089V39.3496H223.372V43.4395Z" fill="white"/>
<path fill-rule="evenodd" clip-rule="evenodd" d="M226.149 42.3591C226.149 43.0546 225.764 43.1288 225.453 43.1288V43.4395H225.532C225.843 43.4395 226.459 43.4395 226.459 42.4379C226.459 41.5105 226.149 41.2044 225.458 41.2044V41.5151C225.843 41.5151 226.153 41.6681 226.153 42.3637L226.149 42.3591ZM225.453 43.1288V43.4395H224.452V39.3496H224.837L224.758 41.1998H225.453V41.5105H224.758V43.1288H225.453Z" fill="white"/>
<path fill-rule="evenodd" clip-rule="evenodd" d="M227.155 41.3574C227.155 40.5877 227.076 39.2754 228.467 39.2754C229.548 39.2754 229.469 40.2028 229.469 40.4347H229.084C229.084 39.9709 228.931 39.5861 228.467 39.5861C227.54 39.5861 227.54 40.3558 227.54 41.3621C227.54 42.4425 227.54 43.2122 228.467 43.2122C228.931 43.2122 229.084 42.8274 229.084 42.2848H229.469C229.469 42.5955 229.469 43.5183 228.467 43.5183C227.076 43.5183 227.155 42.206 227.155 41.3574Z" fill="white"/>
<path fill-rule="evenodd" clip-rule="evenodd" d="M231.087 39.6603H230.085V39.3496H232.478V39.6603H231.477V43.4395H231.087V39.6603Z" fill="white"/>
<path fill-rule="evenodd" clip-rule="evenodd" d="M234.254 39.6615C234.565 39.6615 234.95 39.6615 234.95 40.3571C234.95 40.8208 234.797 41.2057 234.254 41.2057V41.5163H234.333C234.95 41.5163 235.029 41.98 235.029 42.3649C235.029 42.9028 234.797 43.1347 234.259 43.1347V43.4453H234.338C235.033 43.4453 235.418 43.0605 235.418 42.2861C235.418 41.8224 235.265 41.4375 234.723 41.2845C235.26 41.1315 235.339 40.8208 235.339 40.3571C235.339 39.5873 235.029 39.3555 234.338 39.3555H234.259V39.6662L234.254 39.6615ZM233.559 41.2057H234.254V41.5163H233.559V43.1347H234.254V43.4453H233.174V39.3555H234.254V39.6662H233.559V41.2103V41.2057Z" fill="white"/>
<path fill-rule="evenodd" clip-rule="evenodd" d="M237.338 42.053H238.033L237.338 39.8133V39.3496H237.57L238.729 43.4395H238.418L238.108 42.3591H237.338V42.0484V42.053ZM237.338 39.7391V39.818V39.3542H237.106L235.947 43.4441H236.332L236.642 42.3637H237.338V42.053H236.721L237.338 39.7391Z" fill="white"/>
<path fill-rule="evenodd" clip-rule="evenodd" d="M59.1828 19.0576C60.4951 19.0576 61.9604 19.4425 63.1938 20.7548C64.3531 21.9882 65.2759 23.7642 65.2759 26.5418C65.2759 28.1601 65.044 30.0891 63.7317 31.7121C62.962 32.5607 61.7239 33.5623 59.6418 33.5623H59.1781V34.332C62.1876 34.332 64.0378 32.9409 65.1182 31.7075C66.2775 30.3952 67.2002 28.6192 67.2002 25.9993C67.2002 24.3021 66.8154 21.9882 64.8863 20.291C63.1103 18.7469 61.0283 18.2832 59.2523 18.2832H59.1735V19.053L59.1828 19.0576ZM53.1639 25.772C53.1639 28.3966 53.9336 30.168 54.9399 31.3272C56.2522 32.9456 57.8705 33.4881 59.1828 33.5669V34.3367H59.1039C57.5598 34.3367 54.9352 34.026 53.085 31.7121C51.7728 30.168 51.2349 28.1648 51.2349 26.3099C51.2349 24.9188 51.5455 23.0686 53.0109 21.2926C54.0125 19.9015 55.8673 18.362 59.1828 18.2832V19.053C59.1828 18.9741 59.1039 18.9741 59.1039 18.9741C57.9447 18.9741 56.0945 19.2848 54.7822 20.7501C53.6229 21.9836 53.1639 23.6807 53.1639 25.7674V25.772Z" fill="white"/>
<path fill-rule="evenodd" clip-rule="evenodd" d="M82.1731 19.9861C82.1731 19.8331 82.1731 19.6754 82.0943 19.6012C82.0155 19.4482 81.8624 19.4482 81.7094 19.4482H74.1464C73.9934 19.4482 73.8357 19.4482 73.7615 19.6012C73.6085 19.68 73.6085 19.8331 73.6085 19.9861V30.5586C73.6085 30.9434 73.6873 32.6406 73.8403 33.1831C73.9192 33.568 74.151 33.721 74.7678 33.7999H75.0784C75.3103 33.7999 75.6163 33.721 75.6163 33.9529C75.6163 34.1059 75.3845 34.1059 75.3845 34.1059H75.2315C74.9996 34.1059 74.6936 34.0271 74.4617 34.0271H71.2204C70.7567 34.1059 70.6825 34.1059 70.6037 34.1059C70.4507 34.1059 70.4507 33.9529 70.4507 33.9529C70.4507 33.7999 70.5295 33.7999 70.6825 33.7999H70.9932C71.4569 33.721 71.6099 33.4892 71.6888 33.1831C71.7676 32.7983 71.9206 32.1027 71.9206 30.0949V21.4514C71.9206 21.2195 71.9206 20.1391 71.8418 19.7542C71.8418 19.6012 71.7629 19.3694 71.6099 19.2163C71.3781 18.9845 71.072 18.9845 70.9144 18.9057H70.5295C70.5295 18.9057 70.3765 18.9057 70.3765 18.7526C70.3765 18.5996 70.5295 18.5996 70.6083 18.5996H71.3039C71.6146 18.5996 72.3843 18.6784 73.0799 18.6784H83.2628C83.6477 18.6784 84.1114 18.6784 85.0388 18.5996H85.1918C85.3449 18.5996 85.4237 18.6784 85.4237 18.7526C85.4237 18.8268 85.3449 18.9057 85.1918 18.9057H85.0388C84.5009 18.9845 84.2691 19.0587 84.1114 19.4436C84.0326 19.5966 83.9584 19.9073 83.8796 20.8347V30.0949C83.8796 30.6328 83.8796 32.5618 84.1114 33.1831C84.1902 33.568 84.4221 33.721 85.0388 33.7999H85.3495C85.5814 33.7999 85.8874 33.721 85.8874 33.9529C85.8874 34.1059 85.7344 34.1059 85.6555 34.1059H85.5767C85.266 34.1059 84.96 34.0271 84.6493 34.0271H81.4868C81.102 34.1059 80.9489 34.1059 80.9489 34.1059C80.7959 34.1059 80.7171 33.9529 80.7171 33.9529C80.7171 33.7999 80.8701 33.7999 80.9489 33.7999H81.3338C81.7187 33.721 81.8717 33.4892 81.9505 33.1831C82.1824 32.5664 82.1824 31.3329 82.1824 30.6374V19.9907L82.1731 19.9861Z" fill="white"/>
<path fill-rule="evenodd" clip-rule="evenodd" d="M96.8351 19.0576C98.1474 19.0576 99.6127 19.4425 100.846 20.7548C102.005 21.9882 102.928 23.7642 102.854 26.5418C102.854 28.1601 102.622 30.0891 101.31 31.7121C100.614 32.5607 99.302 33.5623 97.2988 33.5623H96.8351V34.332C99.8445 34.332 101.621 32.9409 102.701 31.7075C103.86 30.3952 104.862 28.6192 104.862 25.9993C104.862 24.3021 104.398 21.9882 102.469 20.291C100.772 18.7469 98.6899 18.2832 96.8351 18.2832V19.053V19.0576ZM90.8162 25.772C90.7374 28.3966 91.5859 30.168 92.5134 31.3272C93.8256 32.9456 95.5228 33.4881 96.8351 33.5669V34.3367H96.6821C95.2168 34.3367 92.5922 34.026 90.6632 31.7121C89.4297 30.168 88.813 28.1648 88.813 26.3099C88.813 24.9188 89.1979 23.0686 90.589 21.2926C91.6694 19.9015 93.5196 18.362 96.8397 18.2832V19.053C96.8397 18.9741 96.7609 18.9741 96.6867 18.9741C95.5274 18.9741 93.7561 19.2848 92.4438 20.7501C91.2845 21.9836 90.8255 23.6807 90.8255 25.7674L90.8162 25.772Z" fill="white"/>
<path fill-rule="evenodd" clip-rule="evenodd" d="M109.796 21.6044C109.796 20.0603 109.717 19.5966 109.643 19.4436C109.564 19.3647 109.332 18.9798 108.794 18.9057H108.484C108.331 18.9057 108.02 18.9057 108.02 18.7526C108.02 18.6738 108.099 18.5996 108.252 18.5996H108.331C109.258 18.6784 109.796 18.6784 110.413 18.6784H111.493C111.957 18.5996 112.421 18.5996 112.958 18.5996C115.198 18.5996 116.274 19.1375 116.97 19.7589C117.739 20.5286 117.971 21.456 117.971 22.2258C117.971 23.1532 117.818 24.4655 116.659 25.6201C115.578 26.7794 114.266 27.0854 112.801 27.0854H112.648C112.569 27.0854 112.337 27.0854 112.337 26.9324C112.337 26.7794 112.569 26.7794 112.648 26.7794H112.88C114.271 26.7005 115.504 26.0096 116.042 24.9292C116.353 24.3913 116.353 23.7699 116.353 23.3109C116.432 22.2304 116.2 21.15 115.272 20.2226C114.271 19.2952 113.033 19.221 112.648 19.221H112.416C111.952 19.221 111.489 19.221 111.489 19.7589V30.0995C111.489 30.6374 111.489 32.5664 111.642 33.1878C111.795 33.5726 112.026 33.7257 112.643 33.8045H113.26C113.339 33.8045 113.413 33.8045 113.413 33.9575C113.413 34.1894 112.717 34.1105 112.411 34.0364H110.329C110.176 34.0364 109.249 34.0364 108.864 34.1152H108.479C108.326 34.0364 108.326 33.9622 108.326 33.9622C108.326 33.8091 108.405 33.8091 108.479 33.8091H108.711C109.096 33.7303 109.407 33.7303 109.56 33.1924C109.638 32.9606 109.791 32.3438 109.791 30.1041V21.6183L109.796 21.6044Z" fill="white"/>
<path fill-rule="evenodd" clip-rule="evenodd" d="M125.845 21.451C125.923 21.451 125.923 21.5299 125.998 21.6041L127.927 27.1592C127.927 27.2381 127.927 27.3123 127.774 27.3123H125.845V28.0078H128.084C128.084 28.0078 128.237 28.0078 128.237 28.1609L130.166 33.1781C130.166 33.3312 130.166 33.563 130.088 33.716C130.009 33.7949 129.856 33.716 129.856 33.8691C129.856 34.0221 130.088 34.0221 130.241 34.0221C130.472 34.0221 131.321 34.1009 131.632 34.1009H133.561C133.714 34.1009 134.099 34.1009 134.099 33.9479C134.099 33.8953 134.072 33.8443 134.02 33.7949H133.403C132.401 33.6418 132.012 32.8675 131.785 32.2507C131.474 31.634 130.936 30.4747 128.622 24.3028C128.237 23.2224 127.853 22.2208 127.463 21.2146C127.152 20.4448 126.846 19.7492 126.614 18.9749C126.536 18.743 126.304 18.2793 126.151 18.2793C125.998 18.2793 125.919 18.4323 125.84 18.6642V21.4418L125.845 21.451ZM123.916 27.3169H125.845V28.0125H123.684C123.605 28.0125 123.531 28.0125 123.531 28.2443L122.372 31.8705C122.061 32.6402 122.061 32.9509 122.061 33.1039C122.061 33.7207 122.599 33.7995 122.756 33.7995H122.988C122.988 33.7995 123.141 33.7995 123.141 33.9525C123.141 34.1056 122.909 34.1056 122.831 34.1056C122.599 34.1056 122.293 34.0267 121.982 34.0267H120.98C119.589 34.0267 119.821 34.0267 119.051 34.1056H118.898C118.745 34.1056 118.667 34.0267 118.667 33.9525C118.667 33.7207 118.977 33.7995 119.283 33.7995C119.9 33.7207 120.517 33.5677 121.133 31.8705L125.687 19.1372C125.766 18.9841 125.766 18.8265 125.84 18.6734V21.451C125.761 21.451 125.687 21.5299 125.687 21.6041L123.837 27.1592C123.837 27.2381 123.758 27.3123 123.916 27.3123V27.3169Z" fill="white"/>
<path fill-rule="evenodd" clip-rule="evenodd" d="M141.741 21.6044C141.741 20.0603 141.662 19.5966 141.588 19.4436C141.509 19.3647 141.356 18.9798 140.739 18.9057H140.507C140.275 18.9057 139.969 18.9057 139.969 18.7526C139.969 18.6738 140.048 18.5996 140.201 18.5996H140.354C141.282 18.6784 141.745 18.6784 142.362 18.6784H143.521C143.985 18.5996 144.449 18.5996 144.912 18.5996C147.226 18.5996 148.307 19.1375 149.002 19.7589C149.698 20.5286 150.004 21.456 150.004 22.2258C150.004 23.1532 149.772 24.4655 148.692 25.6201C147.532 26.7794 146.299 27.0854 144.833 27.0854H144.68C144.527 27.0854 144.296 27.0854 144.296 26.9324C144.296 26.7794 144.527 26.7794 144.68 26.7794H144.912C146.225 26.7005 147.458 26.0096 148.001 24.9292C148.311 24.3913 148.385 23.7699 148.385 23.3109C148.385 22.2304 148.232 21.15 147.305 20.2226C146.225 19.2952 145.065 19.221 144.68 19.221H144.449C143.911 19.221 143.521 19.221 143.521 19.7589L143.442 30.0995C143.442 30.6374 143.442 32.5664 143.674 33.1878C143.753 33.5726 143.985 33.7257 144.602 33.8045H145.297C145.297 33.8045 145.45 33.8045 145.45 33.9575C145.45 34.1894 144.755 34.1105 144.37 34.0364H142.362C142.13 34.0364 141.282 34.0364 140.818 34.1152H140.507C140.354 34.0364 140.275 33.9622 140.275 33.9622C140.275 33.8091 140.354 33.8091 140.428 33.8091H140.66C141.045 33.7303 141.356 33.7303 141.509 33.1924C141.588 32.9606 141.741 32.3438 141.741 30.1041V21.6183V21.6044Z" fill="white"/>
<path fill-rule="evenodd" clip-rule="evenodd" d="M160.488 19.0576C161.801 19.0576 163.266 19.4425 164.499 20.7548C165.659 21.9882 166.581 23.7642 166.581 26.5418C166.581 28.1601 166.35 30.0891 164.963 31.7121C164.267 32.5607 162.955 33.5623 160.952 33.5623H160.488V34.332C163.498 34.332 165.348 32.9409 166.428 31.7075C167.588 30.3952 168.51 28.6192 168.51 25.9993C168.51 24.3021 168.047 21.9882 166.118 20.291C164.421 18.7469 162.338 18.2832 160.562 18.2832H160.484V19.053L160.488 19.0576ZM154.469 25.772C154.469 28.3966 155.239 30.168 156.245 31.3272C157.558 32.9456 159.176 33.4881 160.488 33.5669V34.3367H160.409C158.865 34.3367 156.241 34.026 154.391 31.7121C153.078 30.168 152.462 28.1648 152.54 26.3099C152.54 24.9188 152.851 23.0686 154.316 21.2926C155.318 19.9015 157.173 18.362 160.488 18.2832V19.053C160.488 18.9741 160.409 18.9741 160.409 18.9741C159.176 18.9741 157.4 19.2848 156.088 20.7501C154.928 21.9836 154.469 23.6807 154.469 25.7674V25.772Z" fill="white"/>
<path fill-rule="evenodd" clip-rule="evenodd" d="M184.564 22.7626C184.411 22.7626 184.411 22.5307 184.411 22.3777C184.411 21.5291 184.258 20.4487 182.714 19.7531C181.401 19.1364 179.936 19.1364 179.319 19.1364C177.928 19.1364 176.157 19.3683 174.845 20.6017C173.611 21.6822 172.994 23.4582 172.994 25.6932C172.994 29.8619 175.772 33.4093 180.632 33.4093C182.097 33.4093 183.562 33.0986 184.179 31.944C184.411 31.4802 184.564 30.8635 184.643 30.5528C184.643 30.474 184.643 30.3998 184.796 30.3998C184.949 30.3998 184.949 30.6317 184.949 30.7105C184.949 31.3272 184.564 33.4093 184.332 33.7199C184.1 34.0306 182.635 34.3367 180.321 34.3367C178.313 34.3367 175.693 34.1048 173.607 32.1758C171.678 30.3998 171.14 28.1648 171.14 26.0781C171.14 23.7642 172.141 21.8352 173.454 20.5229C174.919 18.9788 176.927 18.2832 179.625 18.2832C180.553 18.2832 181.323 18.362 182.171 18.5151C182.556 18.5939 182.941 18.5939 183.405 18.7469C183.636 18.7469 183.79 18.8257 184.021 18.8257C184.485 18.9046 184.638 18.8257 184.791 18.9046C184.87 18.9046 184.87 18.9834 184.944 19.0576V19.2106C184.865 19.7485 184.791 19.9062 184.791 21.7564C184.791 22.2201 184.791 22.758 184.559 22.758L184.564 22.7626Z" fill="white"/>
<path fill-rule="evenodd" clip-rule="evenodd" d="M200.918 22.7626C200.765 22.7626 200.84 22.5307 200.765 22.3777C200.765 21.5291 200.612 20.4487 199.068 19.7531C197.835 19.1364 196.291 19.1364 195.674 19.1364C194.283 19.1364 192.586 19.3683 191.199 20.6017C189.966 21.6822 189.349 23.4582 189.349 25.6932C189.349 29.8619 192.205 33.4093 197.065 33.4093C198.53 33.4093 199.996 33.0986 200.612 31.944C200.844 31.4802 200.923 30.8635 200.997 30.5528C200.997 30.474 201.076 30.3998 201.15 30.3998C201.303 30.3998 201.303 30.6317 201.303 30.7105C201.303 31.3272 200.993 33.4093 200.765 33.7199C200.455 34.0306 199.068 34.3367 196.676 34.3367C194.668 34.3367 192.122 34.1048 189.961 32.1758C188.032 30.3998 187.494 28.1648 187.494 26.0781C187.494 23.7642 188.496 21.8352 189.808 20.5229C191.352 18.9788 193.281 18.2832 195.98 18.2832C196.907 18.2832 197.677 18.362 198.526 18.5151C198.911 18.5939 199.374 18.5939 199.759 18.7469C199.991 18.7469 200.144 18.8257 200.376 18.8257C200.914 18.9046 201.071 18.8257 201.146 18.9046C201.224 18.9046 201.299 18.9834 201.299 19.0576V19.2106C201.22 19.7485 201.146 19.9062 201.146 21.7564C201.146 22.2201 201.224 22.758 200.914 22.758L200.918 22.7626Z" fill="white"/>
<path fill-rule="evenodd" clip-rule="evenodd" d="M217.199 18.827C217.352 18.5951 217.584 18.2891 217.816 18.2891C217.969 18.2891 218.201 18.3679 218.201 18.9058V30.248C218.122 32.6407 218.354 33.2575 218.586 33.4893C218.739 33.7212 219.124 33.7212 219.356 33.8H219.587C219.898 33.8 220.125 33.7212 220.125 33.953C220.125 34.106 219.972 34.106 219.893 34.106H219.815C219.045 34.106 218.27 34.0272 217.575 34.0272H217.111C216.573 34.0272 216.11 34.0272 215.414 34.106H215.261C215.108 34.0272 215.029 33.953 215.108 33.8742C215.108 33.7954 215.187 33.7954 215.261 33.7954H215.646C215.799 33.7165 216.031 33.6423 216.11 33.5635C216.188 33.4847 216.341 33.2528 216.42 32.5619C216.499 31.9452 216.499 30.8647 216.499 30.248L216.578 21.2985L206.622 33.953C206.543 34.106 206.312 34.4167 206.084 34.4167C205.931 34.4167 205.774 34.3379 205.774 33.8V21.688C205.774 20.1439 205.695 19.6802 205.621 19.4483C205.468 19.1376 205.236 18.9846 204.693 18.9104H204.383C204.304 18.9104 204.229 18.8316 204.229 18.7574C204.229 18.6044 204.383 18.6044 204.461 18.6044H204.614C205.078 18.6044 206.005 18.6832 206.465 18.6832H206.849C207.16 18.6832 207.545 18.6832 208.547 18.6044H208.7C208.778 18.6044 208.853 18.6832 208.853 18.7574C208.853 18.9104 208.7 18.9104 208.468 18.9104L208.236 18.9893C207.925 18.9893 207.698 19.1423 207.54 19.453C207.54 19.606 207.387 19.9167 207.387 20.9971V31.3377L217.185 18.8362L217.199 18.827Z" fill="white"/>
<path fill-rule="evenodd" clip-rule="evenodd" d="M236.415 18.827C236.568 18.5951 236.8 18.2891 237.032 18.2891C237.185 18.2891 237.417 18.3679 237.417 18.9058L237.338 30.248C237.338 32.6407 237.491 33.2575 237.723 33.4893C237.955 33.7212 238.34 33.7212 238.571 33.8H238.803C239.035 33.8 239.341 33.7212 239.341 33.953C239.341 34.106 239.188 34.106 239.109 34.106H239.03C238.261 34.106 237.486 34.0272 236.717 34.0272H236.332C235.794 34.0272 235.33 34.0272 234.556 34.106H234.477C234.245 34.0272 234.245 33.953 234.245 33.8742C234.324 33.7954 234.398 33.7954 234.398 33.7954H234.862C235.015 33.7165 235.247 33.6423 235.325 33.5635C235.404 33.4847 235.557 33.2528 235.636 32.5619C235.715 31.9452 235.715 30.8647 235.715 30.248V21.2985L225.838 33.953C225.685 34.106 225.527 34.4167 225.3 34.4167C225.147 34.4167 224.989 34.3379 224.989 33.8V21.688C224.989 20.1439 224.911 19.6802 224.836 19.4483C224.683 19.1376 224.452 18.9846 223.909 18.9104H223.598C223.52 18.9104 223.445 18.8316 223.445 18.7574C223.445 18.6044 223.524 18.6044 223.677 18.6044H223.756C224.294 18.6044 225.221 18.6832 225.685 18.6832H225.996C226.381 18.6832 226.691 18.6832 227.772 18.6044H227.851C228.004 18.6044 228.082 18.6832 228.082 18.7574C228.082 18.9104 227.929 18.9104 227.697 18.9104L227.387 18.9893C227.155 18.9893 226.923 19.1423 226.77 19.453C226.691 19.606 226.617 19.9167 226.617 20.9971V31.3377L236.415 18.8362V18.827Z" fill="white"/>
<path fill-rule="evenodd" clip-rule="evenodd" d="M2.85645 20.1385L44.7522 0.695312V33.0248L39.9668 26.1574H2.85645V20.1385Z" fill="#1B2665"/>
<path d="M23.6119 10.2057H23.6667L23.7165 10.1828L44.9659 0.390476V34.3192H0.250802L0.32803 10.2057H23.6119Z" fill="#1B2665" stroke="white" stroke-width="0.5"/>
<path fill-rule="evenodd" clip-rule="evenodd" d="M2.85645 20.1385L44.7522 0.695312V33.0248L39.9668 26.1574H2.85645V20.1385Z" fill="white"/>
<path fill-rule="evenodd" clip-rule="evenodd" d="M2.85645 22.1459L43.2081 10.0293L44.7522 33.0244L39.9668 26.157H2.85645V22.1459Z" fill="#3B6FB6"/>
<path fill-rule="evenodd" clip-rule="evenodd" d="M2.85645 24.1506L41.279 19.291L44.7522 33.026L39.9668 26.1585H2.85645V24.1506Z" fill="#E3001F"/>
<path d="M42.6424 47.8171V48.9068C42.6424 49.3752 42.8882 49.6395 43.3704 49.6395C43.6116 49.6395 43.8712 49.556 44.0474 49.4447V47.8125H44.4972V51.2532H44.0474V49.7925H44.0382C43.797 49.9316 43.5142 50.0058 43.2128 50.0058C42.7583 50.0058 42.1973 49.8111 42.1973 48.9718V47.8125H42.6424V47.8171Z" fill="white"/>
<path d="M48.7955 47.8164L49.4771 49.2817C49.5652 49.4857 49.6441 49.6851 49.7275 49.8892H49.7368C49.7971 49.713 49.862 49.5136 49.9501 49.2678L50.488 47.821H50.9563L50.2376 49.5878C50.0475 50.0468 49.8342 50.5708 49.593 50.8954C49.3705 51.1736 49.1201 51.3174 48.814 51.3174C48.7027 51.3174 48.6193 51.3081 48.5636 51.2849L48.61 50.9232C48.6471 50.9325 48.6981 50.9371 48.7723 50.9371C49.1293 50.9325 49.338 50.5894 49.4447 50.3436C49.4818 50.2648 49.4678 50.2184 49.4308 50.1349L48.29 47.8164H48.7955Z" fill="white"/>
<path d="M54.7217 47.8645C54.9164 47.8227 55.2225 47.7949 55.5332 47.7949C55.9783 47.7949 56.2612 47.8738 56.4791 48.0453C56.66 48.1798 56.7666 48.3838 56.7666 48.6528C56.7666 48.9866 56.5487 49.2741 56.187 49.4086V49.4179C56.5116 49.5014 56.8965 49.7703 56.8965 50.2804C56.8965 50.5772 56.7805 50.7997 56.6043 50.9713C56.3632 51.1892 55.9783 51.2913 55.4172 51.2913C55.1112 51.2913 54.8747 51.2727 54.7263 51.2495V47.8691L54.7217 47.8645ZM55.1668 49.2741H55.5703C56.0386 49.2741 56.3168 49.0284 56.3168 48.6991C56.3168 48.2957 56.0108 48.1381 55.561 48.1381C55.357 48.1381 55.241 48.152 55.1668 48.1705V49.2788V49.2741ZM55.1668 50.9203C55.2549 50.9342 55.3801 50.9388 55.5378 50.9388C55.9969 50.9388 56.4188 50.7719 56.4188 50.2711C56.4188 49.8028 56.0154 49.608 55.5332 49.608H55.1668V50.9203Z" fill="white"/>
<path d="M61.4411 50.1728L61.0841 51.2532H60.625L61.7935 47.8125H62.3314L63.5046 51.2532H63.0316L62.6653 50.1728H61.4458H61.4411ZM62.5679 49.825L62.2294 48.8373C62.1506 48.6147 62.0996 48.4107 62.0486 48.2113H62.0393C61.9883 48.4153 61.9326 48.624 61.8677 48.8327L61.5292 49.8296H62.5633L62.5679 49.825Z" fill="white"/>
<path d="M67.8397 47.8164V50.8815H68.9572V47.8164H69.3977V50.8815H70.5106V47.8164H70.9558V51.2571H67.4038V47.8164H67.8443H67.8397Z" fill="white"/>
<path d="M77.522 51.1421C77.3597 51.2256 77.0305 51.3044 76.6132 51.3044C75.644 51.3044 74.916 50.6923 74.916 49.5655C74.916 48.4387 75.644 47.7617 76.7106 47.7617C77.1372 47.7617 77.4108 47.8545 77.5267 47.9147L77.42 48.2764C77.2531 48.193 77.012 48.1327 76.7245 48.1327C75.9176 48.1327 75.3844 48.6474 75.3844 49.5516C75.3844 50.3956 75.8666 50.9335 76.7059 50.9335C76.9749 50.9335 77.2531 50.8778 77.4293 50.7897L77.522 51.1421Z" fill="white"/>
<path d="M81.9137 47.8171V49.3427H82.0528L83.2306 47.8171H83.7685L82.4655 49.3937C83.0312 49.4726 83.2491 49.8157 83.43 50.2794C83.5552 50.6318 83.6526 50.9471 83.8056 51.2532H83.328C83.2074 51.0167 83.11 50.7107 83.0173 50.4417C82.8596 49.9873 82.6417 49.6766 82.0574 49.6766H81.9137V51.2532H81.4731V47.8125H81.9137V47.8171Z" fill="white"/>
<path d="M90.4782 49.4999C90.4782 50.6823 89.7594 51.313 88.883 51.313C88.0066 51.313 87.3389 50.6081 87.3389 49.5694C87.3389 48.4797 88.0159 47.7656 88.934 47.7656C89.8521 47.7656 90.4782 48.4844 90.4782 49.5045V49.4999ZM87.8118 49.5555C87.8118 50.2882 88.2106 50.9466 88.9108 50.9466C89.611 50.9466 90.0144 50.2975 90.0144 49.5184C90.0144 48.8368 89.6574 48.1227 88.9155 48.1227C88.1735 48.1227 87.8118 48.7997 87.8118 49.5555Z" fill="white"/>
<path d="M96.2328 49.6441H94.8973V50.8822H96.3858V51.2532H94.4521V47.8125H96.307V48.1835H94.8927V49.2685H96.2281V49.6349L96.2328 49.6441Z" fill="white"/>
<path d="M104.834 47.8598C105.048 47.8227 105.331 47.7949 105.688 47.7949C106.128 47.7949 106.448 47.8969 106.652 48.0824C106.842 48.2447 106.954 48.4951 106.954 48.8012C106.954 49.1072 106.861 49.3576 106.689 49.5338C106.453 49.7842 106.073 49.9094 105.637 49.9094C105.502 49.9094 105.382 49.9048 105.28 49.877V51.2542H104.834V47.8552V47.8598ZM105.28 49.5199C105.377 49.5477 105.498 49.557 105.646 49.557C106.184 49.557 106.508 49.2973 106.508 48.8243C106.508 48.3514 106.188 48.152 105.697 48.152C105.502 48.152 105.354 48.1659 105.28 48.1891V49.5245V49.5199Z" fill="white"/>
<path d="M112.726 49.6441H111.391V50.8822H112.879V51.2532H110.946V47.8125H112.801V48.1835H111.386V49.2685H112.722V49.6349L112.726 49.6441Z" fill="white"/>
<path d="M118.681 47.8171V48.1881H117.299V51.2532H116.854V47.8125H118.681V47.8171Z" fill="white"/>
<path d="M122.877 47.8164V49.2632C122.877 49.8103 122.868 50.2601 122.835 50.7192H122.845C123.016 50.3668 123.234 49.9958 123.485 49.5878L124.597 47.8164H125.043V51.2571H124.625V49.7918C124.625 49.2353 124.63 48.8273 124.667 48.396H124.653C124.486 48.767 124.25 49.1658 124.013 49.5507L122.937 51.2617H122.464V47.821H122.882L122.877 47.8164Z" fill="white"/>
<path d="M132.151 49.4999C132.151 50.6823 131.433 51.313 130.556 51.313C129.68 51.313 129.012 50.6081 129.012 49.5694C129.012 48.4797 129.689 47.7656 130.607 47.7656C131.525 47.7656 132.151 48.4844 132.151 49.5045V49.4999ZM129.485 49.5555C129.485 50.2882 129.884 50.9466 130.584 50.9466C131.284 50.9466 131.688 50.2975 131.688 49.5184C131.688 48.8368 131.331 48.1227 130.589 48.1227C129.847 48.1227 129.485 48.7997 129.485 49.5555Z" fill="white"/>
<path d="M136.566 47.8164V49.2539H138.23V47.8164H138.68V51.2571H138.23V49.6434H136.566V51.2571H136.121V47.8164H136.566Z" fill="white"/>
<path d="M143.401 50.1728L143.044 51.2532H142.584L143.753 47.8125H144.291L145.464 51.2532H144.991L144.625 50.1728H143.405H143.401ZM144.527 49.825L144.189 48.8373C144.11 48.6147 144.059 48.4107 144.008 48.2113H143.999C143.948 48.4153 143.892 48.624 143.827 48.8327L143.489 49.8296H144.523L144.527 49.825Z" fill="white"/>
<path d="M151.798 47.8164V51.2571H151.349V48.192H150.213V49.2353C150.213 49.9819 150.18 50.8119 149.698 51.1365C149.573 51.22 149.373 51.2988 149.174 51.2988L149.118 50.9418C149.257 50.914 149.401 50.8351 149.48 50.7563C149.753 50.4873 149.781 49.8196 149.781 49.2678V47.821H151.803L151.798 47.8164Z" fill="white"/>
<path d="M156.408 47.8164V49.1009C156.51 49.087 156.714 49.0777 156.83 49.0777C157.534 49.0777 158.156 49.3884 158.156 50.1488C158.156 50.4688 158.054 50.7053 157.891 50.8815C157.613 51.1783 157.131 51.2849 156.658 51.2849C156.347 51.2849 156.111 51.2664 155.962 51.2432V47.8164H156.408ZM156.408 50.914C156.51 50.9325 156.621 50.9418 156.774 50.9418C157.27 50.9418 157.692 50.7006 157.692 50.1767C157.692 49.6527 157.256 49.4301 156.769 49.4301C156.658 49.4301 156.519 49.4394 156.408 49.4533V50.914Z" fill="white"/>
<path d="M162.57 47.8164V49.2539H164.235V47.8164H164.685V51.2571H164.235V49.6434H162.57V51.2571H162.125V47.8164H162.57Z" fill="white"/>
<path d="M171.789 49.4999C171.789 50.6823 171.07 51.313 170.194 51.313C169.317 51.313 168.649 50.6081 168.649 49.5694C168.649 48.4797 169.326 47.7656 170.245 47.7656C171.163 47.7656 171.789 48.4844 171.789 49.5045V49.4999ZM169.122 49.5555C169.122 50.2882 169.521 50.9466 170.221 50.9466C170.922 50.9466 171.325 50.2975 171.325 49.5184C171.325 48.8368 170.968 48.1227 170.226 48.1227C169.484 48.1227 169.122 48.7997 169.122 49.5555Z" fill="white"/>
<path d="M177.543 49.6441H176.208V50.8822H177.696V51.2532H175.763V47.8125H177.618V48.1835H176.203V49.2685H177.539V49.6349L177.543 49.6441Z" fill="white"/>
<path d="M189.085 49.4999C189.085 50.6823 188.366 51.313 187.49 51.313C186.614 51.313 185.946 50.6081 185.946 49.5694C185.946 48.4797 186.623 47.7656 187.541 47.7656C188.459 47.7656 189.085 48.4844 189.085 49.5045V49.4999ZM186.419 49.5555C186.419 50.2882 186.818 50.9466 187.518 50.9466C188.218 50.9466 188.621 50.2975 188.621 49.5184C188.621 48.8368 188.264 48.1227 187.522 48.1227C186.78 48.1227 186.419 48.7997 186.419 49.5555Z" fill="white"/>
<path d="M193.671 48.1979H192.627V47.8223H195.173V48.1979H194.121V51.2583H193.671V48.1979Z" fill="white"/>
<path d="M201.049 47.8164V50.8908L201.35 50.9L201.318 52.0779H200.97L200.937 51.2525H198.767L198.735 52.0779H198.387L198.354 50.9L198.614 50.8908C198.744 50.6543 198.869 50.4085 198.953 50.1349C199.069 49.7361 199.115 49.2771 199.115 48.6882V47.8164H201.039H201.049ZM199.537 48.8319C199.537 49.3837 199.486 49.8474 199.365 50.2369C199.296 50.4781 199.189 50.7053 199.083 50.8908H200.603V48.1874H199.537V48.8366V48.8319Z" fill="white"/>
<path d="M207.086 49.6441H205.75V50.8822H207.239V51.2532H205.305V47.8125H207.16V48.1835H205.746V49.2685H207.081V49.6349L207.086 49.6441Z" fill="white"/>
<path d="M213.606 47.8164V51.2571H213.156V48.192H212.02V49.2353C212.02 49.9819 211.987 50.8119 211.505 51.1365C211.38 51.22 211.18 51.2988 210.981 51.2988L210.925 50.9418C211.064 50.914 211.208 50.8351 211.287 50.7563C211.561 50.4873 211.588 49.8196 211.588 49.2678V47.821H213.61L213.606 47.8164Z" fill="white"/>
<path d="M219.55 49.6441H218.215V50.8822H219.703V51.2532H217.77V47.8125H219.624V48.1835H218.21V49.2685H219.546V49.6349L219.55 49.6441Z" fill="white"/>
<path d="M224.122 47.8164V49.2539H225.787V47.8164H226.237V51.2571H225.787V49.6434H224.122V51.2571H223.677V47.8164H224.122Z" fill="white"/>
<path d="M230.818 47.8164V49.2632C230.818 49.8103 230.809 50.2601 230.777 50.7192H230.786C230.958 50.3668 231.176 49.9958 231.426 49.5878L232.539 47.8164H232.984V51.2571H232.567V49.7918C232.567 49.2353 232.571 48.8273 232.608 48.396H232.594C232.428 48.767 232.191 49.1658 231.955 49.5507L230.879 51.2617H230.406V47.821H230.823L230.818 47.8164Z" fill="white"/>
<path d="M238.933 49.6441H237.598V50.8822H239.086V51.2532H237.153V47.8125H239.008V48.1835H237.593V49.2685H238.929V49.6349L238.933 49.6441Z" fill="white"/>
</svg>
