<svg width="240" height="53" viewBox="0 0 240 53" fill="none" xmlns="http://www.w3.org/2000/svg">
<path fill-rule="evenodd" clip-rule="evenodd" d="M1.39086 39.5814C2.31827 39.5814 2.31827 40.3512 2.31827 41.3574C2.31827 42.4379 2.31827 43.2076 1.39086 43.2076V43.5183C2.78197 43.5183 2.70314 42.206 2.70314 41.3574C2.70314 40.5877 2.78197 39.2754 1.39086 39.2754V39.5861V39.5814ZM1.39086 43.2076V43.5183C0.0785711 43.5183 0.157401 42.206 0.157401 41.3574C0.157401 40.5877 0.0785711 39.2754 1.39086 39.2754V39.5861C0.542276 39.5861 0.542276 40.3558 0.542276 41.3621C0.542276 42.4425 0.542276 43.2122 1.39086 43.2122V43.2076Z" fill="white"/>
<path fill-rule="evenodd" clip-rule="evenodd" d="M4.78524 41.5105C5.32314 41.5105 5.55499 41.8212 5.55499 42.2802C5.55499 42.897 5.32314 43.1288 4.78524 43.1288V43.4395H4.86407C5.55963 43.4395 5.86567 43.0546 5.86567 42.2802C5.86567 41.3528 5.32777 41.1998 4.78524 41.1998V41.5105ZM4.78524 39.6603V39.3496H5.55499V39.6603H4.78524ZM4.01549 41.5105V43.1288H4.78524V43.4395H3.62598V39.3496H4.78524V39.6603H4.01549V41.2044H4.78524V41.5151H4.01549V41.5105Z" fill="white"/>
<path fill-rule="evenodd" clip-rule="evenodd" d="M6.71436 39.3496H7.09923L7.0204 43.1334H8.56454V39.3496H8.94941V43.1334H10.4147V39.3496H10.8042V43.1334H11.0315V44.3669H10.6466V43.4395H6.71436V39.3496Z" fill="white"/>
<path fill-rule="evenodd" clip-rule="evenodd" d="M11.8801 39.3496V43.4395H13.8091V43.1334H12.2696V41.5105H13.6561V41.2044H12.2696V39.6603H13.7349V39.3496H11.8801Z" fill="white"/>
<path fill-rule="evenodd" clip-rule="evenodd" d="M16.6655 40.3512C16.6655 39.3496 16.1276 39.3496 15.7381 39.3496H15.6593V39.6603C16.0442 39.6603 16.276 39.6603 16.276 40.43C16.276 41.0468 16.0442 41.1998 15.6593 41.1998V41.5105C16.429 41.5105 16.6609 41.1256 16.6609 40.3512H16.6655ZM15.6639 39.3496V39.6603H14.9684V41.2044H15.6639V41.5151H14.9684V43.4441H14.5835L14.6623 39.3542H15.6639V39.3496Z" fill="white"/>
<path fill-rule="evenodd" clip-rule="evenodd" d="M18.6735 39.5814C19.6009 39.5814 19.522 40.3512 19.522 41.3574C19.522 42.4379 19.522 43.2076 18.6735 43.2076V43.5183C19.9857 43.5183 19.9069 42.206 19.9069 41.3574C19.9069 40.5877 19.9857 39.2754 18.6735 39.2754V39.5861V39.5814ZM18.6735 43.2076V43.5183C17.2823 43.5183 17.3612 42.206 17.3612 41.3574C17.3612 40.5877 17.2823 39.2754 18.6735 39.2754V39.5861C17.746 39.5861 17.746 40.3558 17.746 41.3621C17.746 42.4425 17.746 43.2122 18.6735 43.2122V43.2076Z" fill="white"/>
<path fill-rule="evenodd" clip-rule="evenodd" d="M20.8342 41.3574C20.8342 40.5877 20.7553 39.2754 22.0676 39.2754C23.148 39.2754 23.148 40.2028 23.148 40.4347H22.7632C22.7632 39.9709 22.6101 39.5861 22.0676 39.5861C21.219 39.5861 21.219 40.3558 21.219 41.3621C21.219 42.4425 21.1402 43.2122 22.0676 43.2122C22.5313 43.2122 22.7632 42.8274 22.7632 42.2848H23.148C23.148 42.5955 23.0692 43.5183 22.0676 43.5183C20.7553 43.5183 20.8342 42.206 20.8342 41.3574Z" fill="white"/>
<path fill-rule="evenodd" clip-rule="evenodd" d="M23.9178 41.3574C23.9178 40.5877 23.839 39.2754 25.2301 39.2754C26.3105 39.2754 26.2317 40.2028 26.2317 40.4347H25.8468C25.9257 39.9709 25.6938 39.5861 25.2301 39.5861C24.3027 39.5861 24.3027 40.3558 24.3027 41.3621C24.3027 42.4425 24.3027 43.2122 25.2301 43.2122C25.6938 43.2122 25.8468 42.8274 25.8468 42.2848H26.2317C26.2317 42.5955 26.2317 43.5183 25.2301 43.5183C23.839 43.5183 23.9178 42.206 23.9178 41.3574Z" fill="white"/>
<path fill-rule="evenodd" clip-rule="evenodd" d="M27.1589 43.4395V39.3496H27.5438V42.6697L29.1668 39.3496H29.5517V43.4395H29.1668V40.124L27.5438 43.4395H27.1589Z" fill="white"/>
<path fill-rule="evenodd" clip-rule="evenodd" d="M31.2488 38.3486C31.3276 38.6593 31.7125 38.7335 31.8655 38.7335C32.0186 38.7335 32.4034 38.6547 32.4823 38.3486H32.7141C32.7141 38.8123 32.2504 38.9654 31.8655 38.9654C31.5549 38.9654 31.017 38.8123 31.017 38.3486H31.2488ZM32.6399 43.4401V40.12L31.0216 43.4401H30.6367V39.3502H31.0216V42.6704L32.6399 39.3502H33.0248V43.4401H32.6399Z" fill="white"/>
<path fill-rule="evenodd" clip-rule="evenodd" d="M33.9476 41.3574C33.9476 40.5877 33.8688 39.2754 35.2599 39.2754C36.3403 39.2754 36.2615 40.2028 36.2615 40.4347H35.8766C35.8766 39.9709 35.7236 39.5861 35.2599 39.5861C34.3325 39.5861 34.3325 40.3558 34.3325 41.3621C34.3325 42.4425 34.3325 43.2122 35.2599 43.2122C35.7236 43.2122 35.8766 42.8274 35.8766 42.2848H36.2615C36.2615 42.5955 36.1827 43.5183 35.2599 43.5183C33.8688 43.5183 33.9476 42.206 33.9476 41.3574Z" fill="white"/>
<path fill-rule="evenodd" clip-rule="evenodd" d="M37.1892 43.4395L37.268 39.3496H37.5741V41.2044L39.1182 39.3496H39.5031L37.9636 41.2786L39.5819 43.4395H39.1182L37.5741 41.3575V43.4395H37.1892Z" fill="white"/>
<path fill-rule="evenodd" clip-rule="evenodd" d="M41.9744 42.0533H41.3577V42.3639H42.0532L42.3639 43.4444H42.7488L41.5895 39.3545H41.3577V39.7394L41.9744 42.0533ZM41.3577 42.0533V42.3639H40.6621L40.3514 43.4444H39.9666L41.1258 39.3545H41.3577V39.7394L40.7409 42.0533H41.3577Z" fill="white"/>
<path fill-rule="evenodd" clip-rule="evenodd" d="M45.1368 43.4402V41.4324H44.4413V41.1217H45.1368V39.6564H44.4413V39.3457H45.5217V43.4356H45.1368V43.4402ZM44.4413 41.4324V41.1217C43.9776 41.1217 43.7457 40.9687 43.7457 40.2731C43.7457 39.7352 43.9776 39.6564 44.3624 39.6564H44.4413V39.3457H44.3624C43.5139 39.3457 43.3608 39.5776 43.3608 40.3473C43.3608 40.811 43.4397 41.1959 43.9776 41.2747C43.4397 41.4277 43.3608 41.5066 43.3608 42.9719V43.4356H43.6715C43.7504 43.3568 43.7504 42.6658 43.7504 42.434C43.7504 42.281 43.5973 41.4324 44.4459 41.4324H44.4413Z" fill="white"/>
<path fill-rule="evenodd" clip-rule="evenodd" d="M49.3055 39.5814C50.1541 39.5814 50.1541 40.3512 50.1541 41.3574C50.1541 42.4379 50.1541 43.2076 49.3055 43.2076V43.5183C50.6178 43.5183 50.539 42.206 50.539 41.3574C50.539 40.5877 50.6178 39.2754 49.3055 39.2754V39.5861V39.5814ZM49.3055 43.2076V43.5183C47.9144 43.5183 47.9932 42.206 47.9932 41.3574C47.9932 40.5877 47.9144 39.2754 49.3055 39.2754V39.5861C48.3781 39.5861 48.3781 40.3558 48.3781 41.3621C48.3781 42.4425 48.3781 43.2122 49.3055 43.2122V43.2076Z" fill="white"/>
<path fill-rule="evenodd" clip-rule="evenodd" d="M52.621 41.5105C53.1589 41.5105 53.3907 41.8212 53.3907 42.2802C53.3907 42.897 53.1589 43.1288 52.621 43.1288V43.4395H52.6998C53.3953 43.4395 53.7802 43.0546 53.7802 42.2802C53.7802 41.3528 53.1635 41.1998 52.621 41.1998V41.5105ZM52.621 39.6603V39.3496H53.3907V39.6603H52.621ZM51.8512 41.5105V43.1288H52.621V43.4395H51.5405V39.3496H52.621V39.6603H51.8512V41.2044H52.621V41.5151H51.8512V41.5105Z" fill="white"/>
<path fill-rule="evenodd" clip-rule="evenodd" d="M54.5503 39.3496H54.9352V43.1334H56.4051V39.3496H56.79V43.1334H58.2553V39.3496H58.6402V43.1334H58.9509V44.3669H58.5613V43.4395H54.5503V39.3496Z" fill="white"/>
<path fill-rule="evenodd" clip-rule="evenodd" d="M61.6495 39.3496V39.6603H60.1053V41.2044H61.5706V41.5105H60.1053V43.1334H61.6495V43.4395H59.7205V39.3496H61.6495Z" fill="white"/>
<path fill-rule="evenodd" clip-rule="evenodd" d="M62.4191 41.3574C62.4191 40.5877 62.3403 39.2754 63.7314 39.2754C64.8118 39.2754 64.733 40.2028 64.733 40.4347H64.3481C64.3481 39.9709 64.1951 39.5861 63.7314 39.5861C62.804 39.5861 62.804 40.3558 62.804 41.3621C62.804 42.4425 62.804 43.2122 63.6526 43.2122C64.1905 43.2122 64.3481 42.8274 64.3481 42.2848H64.733C64.733 42.5955 64.6542 43.5183 63.6526 43.5183C62.3403 43.5183 62.4191 42.206 62.4191 41.3574Z" fill="white"/>
<path fill-rule="evenodd" clip-rule="evenodd" d="M66.3561 39.6603H65.3545V39.3496H67.7472V39.6603H66.741L66.6668 43.4395H66.3561V39.6603Z" fill="white"/>
<path fill-rule="evenodd" clip-rule="evenodd" d="M69.5184 39.6605C69.8291 39.6605 70.214 39.6605 70.214 40.3561C70.214 40.8198 70.061 41.2047 69.5184 41.2047V41.5154C70.214 41.5154 70.2882 41.9791 70.2882 42.3639C70.2882 42.9018 70.0563 43.1337 69.5184 43.1337V43.4444H69.5973C70.2928 43.4444 70.6777 43.0595 70.6777 42.2851C70.6777 41.8214 70.5247 41.4365 69.9821 41.2835C70.52 41.1305 70.5989 40.8198 70.5989 40.3561C70.5989 39.5863 70.214 39.3545 69.5973 39.3545H69.5184V39.6652V39.6605ZM68.8229 41.2047H69.5184V41.5154H68.8229V43.1337H69.5184V43.4444H68.438V39.3545H69.5184V39.6652H68.8229V41.2093V41.2047Z" fill="white"/>
<path fill-rule="evenodd" clip-rule="evenodd" d="M71.6052 39.3496V43.4395H73.5296V43.1334H71.9113V41.5105H73.3766V41.2044H71.9113L71.9901 39.6603H73.4554V39.3496H71.6052Z" fill="white"/>
<path fill-rule="evenodd" clip-rule="evenodd" d="M74.3828 43.4395V39.3496H74.7677V41.2044H76.386V39.3496H76.7709V43.4395H76.386V41.5105H74.7677V43.4395H74.3828Z" fill="white"/>
<path fill-rule="evenodd" clip-rule="evenodd" d="M77.8513 43.4395V39.3496H78.2408V41.2044H79.8592V39.3496H80.244V43.4395H79.8592V41.5105H78.2408L78.162 43.4395H77.8513Z" fill="white"/>
<path fill-rule="evenodd" clip-rule="evenodd" d="M82.9473 42.0533H82.3306V42.3639H83.0261L83.3368 43.4444H83.7217L82.5624 39.3545H82.3306V39.8182L82.9473 42.0579V42.0533ZM82.3306 42.0533V42.3639H81.635L81.3243 43.4444H80.9395L82.0987 39.3545H82.3306V39.8182V39.7394L81.7138 42.0533H82.3306Z" fill="white"/>
<path fill-rule="evenodd" clip-rule="evenodd" d="M86.1099 43.4402V41.4324H85.4144V41.1217H86.1099V39.6564H85.4144V39.3457H86.4948V43.4356H86.1099V43.4402ZM85.4144 41.4324V41.1217C84.8765 41.1217 84.6446 40.9687 84.6446 40.2731C84.7235 39.7352 84.8765 39.6564 85.3402 39.6564H85.419V39.3457H85.3402C84.4916 39.3457 84.3386 39.5776 84.3386 40.3473C84.3386 40.811 84.4174 41.1959 84.9553 41.2747C84.3386 41.4277 84.3386 41.5066 84.3386 42.9719C84.3386 43.1249 84.3386 43.2826 84.2598 43.4356H84.6446C84.6446 43.3568 84.7235 42.6658 84.7235 42.434C84.7235 42.281 84.5704 41.4324 85.419 41.4324H85.4144Z" fill="white"/>
<path fill-rule="evenodd" clip-rule="evenodd" d="M90.1997 39.5814H90.2785C91.1271 39.5814 91.1271 40.3512 91.1271 41.3574C91.1271 42.4379 91.1271 43.2076 90.1997 43.2076V43.5183C91.5908 43.5183 91.512 42.206 91.512 41.3574C91.512 40.5877 91.5908 39.2754 90.2785 39.2754H90.1997V39.5861V39.5814ZM90.1997 43.2076V43.5183C88.8874 43.5183 88.9662 42.206 88.9662 41.3574C88.9662 40.5877 88.8874 39.2754 90.1997 39.2754V39.5861C89.3511 39.5861 89.3511 40.3558 89.3511 41.3621C89.3511 42.4425 89.3511 43.2122 90.1997 43.2122V43.2076Z" fill="white"/>
<path fill-rule="evenodd" clip-rule="evenodd" d="M94.132 40.43C94.132 41.0468 93.9001 41.1998 93.5152 41.1998V41.5105C94.2108 41.5105 94.5169 41.1256 94.5169 40.3512C94.5169 39.3496 93.979 39.3496 93.5894 39.3496H93.5106V39.6603C93.8213 39.6603 94.1273 39.6603 94.1273 40.43H94.132ZM93.5152 41.1998V41.5105H92.8197V43.4395H92.4348V39.3496H93.5152V39.6603H92.8197V41.2044H93.5152V41.1998Z" fill="white"/>
<path fill-rule="evenodd" clip-rule="evenodd" d="M95.2913 43.4395H95.6761V39.6603H97.0673V39.3496H95.2913V43.4395Z" fill="white"/>
<path fill-rule="evenodd" clip-rule="evenodd" d="M98.3748 42.0533H98.9915L98.3748 39.7394V39.3545H98.6066L99.7659 43.4444H99.381L99.0703 42.3639H98.3748V42.0533ZM98.3748 39.7394V39.3545H98.1429L96.9836 43.4444H97.3685L97.6004 42.3639H98.3701V42.0533H97.7534L98.3701 39.7394H98.3748Z" fill="white"/>
<path fill-rule="evenodd" clip-rule="evenodd" d="M100.461 43.4395V39.3496H100.846V41.2044H102.465V39.3496H102.854V43.4395H102.465V41.5105H100.846V43.4395H100.461Z" fill="white"/>
<path fill-rule="evenodd" clip-rule="evenodd" d="M103.856 43.4395L103.93 39.3496H104.241V42.6697L105.938 39.3496H106.249V43.4395H105.938V40.124L104.241 43.4395H103.856Z" fill="white"/>
<path fill-rule="evenodd" clip-rule="evenodd" d="M108.02 41.1263C108.715 41.2051 108.947 40.8945 108.947 40.2777C108.947 39.814 108.794 39.5822 108.331 39.5822C107.867 39.5822 107.635 39.8928 107.714 40.3519H107.329C107.25 39.7352 107.64 39.2715 108.256 39.2715C108.952 39.2715 109.337 39.5033 109.337 40.2731C109.337 40.7368 109.258 41.2005 108.72 41.2747V41.3535C109.258 41.3535 109.416 41.8172 109.416 42.3551C109.416 43.1249 109.031 43.5144 108.335 43.5144C107.64 43.5144 107.176 43.2037 107.255 42.434H107.64C107.561 42.8977 107.793 43.2037 108.256 43.2037C108.873 43.2037 109.026 42.893 109.026 42.434C109.026 41.7384 108.794 41.4323 108.025 41.5065V41.1217L108.02 41.1263Z" fill="white"/>
<path fill-rule="evenodd" clip-rule="evenodd" d="M111.419 42.053H112.036L111.419 39.8133V39.3496H111.651L112.81 43.4395H112.425L112.114 42.3591H111.419V42.0484V42.053ZM111.419 39.7391V39.818V39.3542H111.187L109.954 43.4441H110.417L110.649 42.3637H111.419V42.053H110.723L111.34 39.7391H111.419Z" fill="white"/>
<path fill-rule="evenodd" clip-rule="evenodd" d="M113.501 39.3496H113.886V43.1334H115.504V39.3496H115.894V43.1334H116.126V44.3669H115.736V43.4395H113.501V39.3496Z" fill="white"/>
<path fill-rule="evenodd" clip-rule="evenodd" d="M116.895 43.4395L116.974 39.3496H117.28V42.6697L118.977 39.3496H119.288V43.4395H118.977V40.124H118.903L117.28 43.4395H116.895Z" fill="white"/>
<path fill-rule="evenodd" clip-rule="evenodd" d="M122.066 41.1256H121.37V41.4363H122.066V43.4441H122.45V39.3542H121.37V39.6649H122.066V41.1302V41.1256ZM121.37 41.1256V41.4363C120.6 41.4363 120.674 42.2849 120.674 42.4379C120.674 42.6697 120.674 43.3653 120.596 43.4395H120.285V42.9758C120.285 41.5105 120.364 41.4316 120.902 41.2786C120.364 41.1998 120.285 40.8149 120.285 40.3512C120.285 39.5815 120.517 39.3496 121.287 39.3496H121.365V39.6603H121.287C120.902 39.6603 120.67 39.7391 120.67 40.277C120.67 40.9726 120.902 41.1256 121.365 41.1256H121.37Z" fill="white"/>
<path fill-rule="evenodd" clip-rule="evenodd" d="M124.917 43.4395V39.3496H125.613L126.772 43.0546H126.846L128.006 39.3496H128.622V43.4395H128.238V39.6603L127.004 43.4395H126.615L125.307 39.6603V43.4395H124.917Z" fill="white"/>
<path fill-rule="evenodd" clip-rule="evenodd" d="M131.321 42.0533H130.705V42.3639H131.474L131.706 43.4444H132.091L130.932 39.3545H130.7V39.8182L131.317 42.0579L131.321 42.0533ZM130.705 42.0533V42.3639H130.009L129.698 43.4444H129.313L130.473 39.3545H130.705V39.8182V39.7394L130.088 42.0533H130.705Z" fill="white"/>
<path fill-rule="evenodd" clip-rule="evenodd" d="M135.337 43.4395H135.026V39.6603H133.64V40.8937C133.64 42.2849 133.64 42.8228 133.255 43.2865C133.023 43.5183 132.87 43.5183 132.717 43.5183C132.564 43.5183 132.485 43.4395 132.485 43.4395V43.1288C132.485 43.1288 132.564 43.2076 132.638 43.2076C132.712 43.2076 132.87 43.1288 132.949 43.0546C133.334 42.5167 133.26 42.053 133.26 40.5089L133.338 39.3496H135.346V43.4395H135.337Z" fill="white"/>
<path fill-rule="evenodd" clip-rule="evenodd" d="M137.651 39.5814C138.499 39.5814 138.499 40.3512 138.499 41.3574C138.499 42.4379 138.499 43.2076 137.651 43.2076V43.5183C138.963 43.5183 138.884 42.206 138.884 41.3574C138.884 40.5877 138.963 39.2754 137.651 39.2754V39.5861V39.5814ZM137.651 43.2076V43.5183C136.26 43.5183 136.338 42.206 136.338 41.3574C136.338 40.5877 136.26 39.2754 137.651 39.2754V39.5861C136.723 39.5861 136.723 40.3558 136.723 41.3621C136.723 42.4425 136.723 43.2122 137.651 43.2122V43.2076Z" fill="white"/>
<path fill-rule="evenodd" clip-rule="evenodd" d="M139.886 39.3496H141.662V39.6603H140.196V43.4395H139.886V39.3496Z" fill="white"/>
<path fill-rule="evenodd" clip-rule="evenodd" d="M143.517 39.5814H143.595C144.444 39.5814 144.444 40.3512 144.444 41.3574C144.444 42.4379 144.444 43.2076 143.517 43.2076V43.5183C144.908 43.5183 144.829 42.206 144.829 41.3574C144.829 40.5877 144.908 39.2754 143.595 39.2754H143.517V39.5861V39.5814ZM143.517 43.2076V43.5183C142.204 43.5183 142.283 42.206 142.283 41.3574C142.283 40.5877 142.204 39.2754 143.517 39.2754V39.5861C142.668 39.5861 142.668 40.3558 142.668 41.3621C142.668 42.4425 142.668 43.2122 143.517 43.2122V43.2076Z" fill="white"/>
<path fill-rule="evenodd" clip-rule="evenodd" d="M147.296 43.4395L147.37 39.3496H147.681V42.6697L149.378 39.3496H149.688V43.4395H149.378V40.124H149.299L147.681 43.4395H147.296Z" fill="white"/>
<path fill-rule="evenodd" clip-rule="evenodd" d="M152.234 41.3574C152.234 40.5877 152.081 39.2754 153.468 39.2754C154.548 39.2754 154.469 40.2028 154.469 40.4347H154.085C154.163 39.9709 154.006 39.5861 153.468 39.5861C152.54 39.5861 152.54 40.3558 152.54 41.3621C152.54 42.4425 152.54 43.2122 153.468 43.2122C153.932 43.2122 154.163 42.8274 154.163 42.2848H154.548C154.548 42.5955 154.469 43.5183 153.468 43.5183C152.077 43.5183 152.234 42.206 152.234 41.3574Z" fill="white"/>
<path fill-rule="evenodd" clip-rule="evenodd" d="M157.094 40.43C157.094 41.0468 156.862 41.1998 156.398 41.1998V41.5105H156.477C157.173 41.5105 157.479 41.1256 157.479 40.3512C157.479 39.3496 156.862 39.3496 156.551 39.3496H156.398V39.6603C156.783 39.6603 157.094 39.6603 157.094 40.43ZM156.398 41.1998V41.5105H155.782L155.703 43.4395H155.392V39.3496H156.394V39.6603H155.777V41.2044H156.394L156.398 41.1998Z" fill="white"/>
<path fill-rule="evenodd" clip-rule="evenodd" d="M160.103 39.3496V39.6603H158.638L158.559 41.2044H160.024V41.5105H158.559V43.1334H160.182V43.4395H158.253V39.3496H160.103Z" fill="white"/>
<path fill-rule="evenodd" clip-rule="evenodd" d="M162.264 39.6605H163.266V43.1337H162.264V43.4444H163.498V44.3718H163.882V43.1383H163.572L163.651 39.3591H162.259V39.6698L162.264 39.6605ZM161.337 43.1337H162.264V43.4444H161.031V44.3718H160.646V43.1383H160.956C161.188 42.9065 161.42 42.3686 161.494 41.9791C161.647 41.3623 161.647 40.8986 161.647 39.6652V39.3545H162.264V39.6652H162.032V39.8182C162.032 40.8198 161.953 41.4365 161.879 41.9002C161.726 42.4381 161.569 42.9807 161.341 43.1337H161.337Z" fill="white"/>
<path fill-rule="evenodd" clip-rule="evenodd" d="M164.657 43.4395V39.3496H165.042V41.2044H166.66V39.3496H167.049V43.4395H166.66V41.5105H165.042V43.4395H164.657Z" fill="white"/>
<path fill-rule="evenodd" clip-rule="evenodd" d="M169.98 39.3496V39.6603H168.436V41.2044H169.901V41.5105H168.436V43.1334H170.059V43.4395H168.13V39.3496H169.98Z" fill="white"/>
<path fill-rule="evenodd" clip-rule="evenodd" d="M170.907 39.3496H172.679V39.6603H171.292L171.214 43.4395H170.907V39.3496Z" fill="white"/>
<path fill-rule="evenodd" clip-rule="evenodd" d="M174.608 39.5814C175.457 39.5814 175.457 40.3512 175.457 41.3574C175.457 42.4379 175.457 43.2076 174.608 43.2076V43.5183C175.92 43.5183 175.842 42.206 175.842 41.3574C175.842 40.5877 175.92 39.2754 174.608 39.2754V39.5861V39.5814ZM174.529 43.2076H174.608V43.5183H174.529C173.217 43.5183 173.296 42.206 173.296 41.3574C173.296 40.5877 173.217 39.2754 174.608 39.2754V39.5861C173.681 39.5861 173.681 40.3558 173.681 41.3621C173.681 42.4425 173.681 43.2122 174.529 43.2122V43.2076Z" fill="white"/>
<path fill-rule="evenodd" clip-rule="evenodd" d="M178.313 43.4395L178.392 39.3496H180.706V43.4395H180.395V39.6603H178.698V43.4395H178.313Z" fill="white"/>
<path fill-rule="evenodd" clip-rule="evenodd" d="M183.483 40.43C183.483 41.0468 183.173 41.1998 182.788 41.1998V41.5105H182.867C183.562 41.5105 183.794 41.1256 183.794 40.3512C183.794 39.3496 183.256 39.3496 182.945 39.3496H182.792V39.6603C183.177 39.6603 183.488 39.6603 183.488 40.43H183.483ZM182.788 41.1998V41.5105H182.092V43.4395H181.781V39.3496H182.783V39.6603H182.088V41.2044H182.783L182.788 41.1998Z" fill="white"/>
<path fill-rule="evenodd" clip-rule="evenodd" d="M186.493 39.3496V39.6603H184.949V41.2044H186.414V41.5105H184.949V43.1334H186.567V43.4395H184.564L184.638 39.3496H186.493Z" fill="white"/>
<path fill-rule="evenodd" clip-rule="evenodd" d="M188.654 39.6605H189.655V43.1337H188.654V43.4444H189.887V44.3718H190.272V43.1383H189.961V39.3591H188.649V39.6698L188.654 39.6605ZM187.726 43.1337H188.654V43.4444H187.42V44.3718H187.035V43.1383H187.346C187.499 42.9065 187.731 42.3686 187.884 41.9791C188.037 41.3623 188.037 40.8986 188.037 39.6652V39.3545H188.654V39.6652H188.422V39.8182C188.422 40.8198 188.343 41.4365 188.269 41.9002C188.116 42.4381 187.958 42.9807 187.731 43.1337H187.726Z" fill="white"/>
<path fill-rule="evenodd" clip-rule="evenodd" d="M191.042 43.4395V39.3496H193.434V43.4395H193.05V39.6603H191.431V43.4395H191.042Z" fill="white"/>
<path fill-rule="evenodd" clip-rule="evenodd" d="M196.138 40.43C196.138 41.0468 195.906 41.1998 195.521 41.1998H195.442V41.5105H195.521C196.217 41.5105 196.523 41.1256 196.523 40.3512C196.523 39.3496 195.906 39.3496 195.595 39.3496H195.442V39.6603H195.521C195.832 39.6603 196.138 39.6603 196.138 40.43ZM195.442 41.1998V41.5105H194.826V43.4395H194.441V39.3496H195.442V39.6603H194.826V41.2044H195.442V41.1998Z" fill="white"/>
<path fill-rule="evenodd" clip-rule="evenodd" d="M197.292 43.4395V39.3496H197.677V42.6697L199.3 39.3496H199.685V43.4395H199.3V40.124L197.677 43.4395H197.292Z" fill="white"/>
<path fill-rule="evenodd" clip-rule="evenodd" d="M200.687 43.4395L200.766 39.3496H201.076V41.2044H202.773V39.3496H203.079V43.4395H202.773V41.5105H201.076V43.4395H200.687Z" fill="white"/>
<path fill-rule="evenodd" clip-rule="evenodd" d="M204.16 43.4395V39.3496H204.545V42.6697L206.168 39.3496H206.553V43.4395H206.168V40.124L204.545 43.4395H204.16Z" fill="white"/>
<path fill-rule="evenodd" clip-rule="evenodd" d="M207.633 43.4395V39.3496H208.25L209.483 43.0546L210.721 39.3496H211.338V43.4395H210.949V39.6603L209.715 43.4395H209.251L208.018 39.6603V43.4395H207.633Z" fill="white"/>
<path fill-rule="evenodd" clip-rule="evenodd" d="M213.42 42.0533H214.037L213.42 39.7394V39.3545H213.652L214.811 43.4444H214.426L214.116 42.3639H213.42V42.0533ZM213.42 39.7394V39.3545H213.188L212.029 43.4444H212.414C212.414 43.4444 212.725 42.3639 212.646 42.3639H213.416V42.0533H212.799L213.416 39.7394H213.42Z" fill="white"/>
<path fill-rule="evenodd" clip-rule="evenodd" d="M215.887 39.6603H214.885V39.3496H217.278V39.6603H216.277V43.4395H215.887V39.6603Z" fill="white"/>
<path fill-rule="evenodd" clip-rule="evenodd" d="M217.974 39.3496V43.4395H219.903V43.1334H218.359V41.5105H219.824V41.2044H218.359V39.6603H219.903V39.3496H217.974Z" fill="white"/>
<path fill-rule="evenodd" clip-rule="evenodd" d="M223.371 43.4395H222.986V39.6603H221.674V40.8937C221.674 42.2849 221.674 42.8228 221.21 43.2865C221.057 43.5183 220.826 43.5183 220.673 43.5183C220.52 43.5183 220.441 43.4395 220.441 43.4395V43.1288C220.441 43.1288 220.519 43.2076 220.594 43.2076C220.668 43.2076 220.826 43.1288 220.979 43.0546C221.289 42.5167 221.289 42.053 221.289 40.5089V39.3496H223.371V43.4395Z" fill="white"/>
<path fill-rule="evenodd" clip-rule="evenodd" d="M226.149 42.3591C226.149 43.0546 225.764 43.1288 225.453 43.1288V43.4395H225.532C225.843 43.4395 226.459 43.4395 226.459 42.4379C226.459 41.5105 226.149 41.2044 225.458 41.2044V41.5151C225.843 41.5151 226.153 41.6681 226.153 42.3637L226.149 42.3591ZM225.453 43.1288V43.4395H224.452V39.3496H224.837L224.758 41.1998H225.453V41.5105H224.758V43.1288H225.453Z" fill="white"/>
<path fill-rule="evenodd" clip-rule="evenodd" d="M227.155 41.3574C227.155 40.5877 227.076 39.2754 228.467 39.2754C229.548 39.2754 229.469 40.2028 229.469 40.4347H229.084C229.084 39.9709 228.931 39.5861 228.467 39.5861C227.54 39.5861 227.54 40.3558 227.54 41.3621C227.54 42.4425 227.54 43.2122 228.467 43.2122C228.931 43.2122 229.084 42.8274 229.084 42.2848H229.469C229.469 42.5955 229.469 43.5183 228.467 43.5183C227.076 43.5183 227.155 42.206 227.155 41.3574Z" fill="white"/>
<path fill-rule="evenodd" clip-rule="evenodd" d="M231.087 39.6603H230.086V39.3496H232.478V39.6603H231.477V43.4395H231.087V39.6603Z" fill="white"/>
<path fill-rule="evenodd" clip-rule="evenodd" d="M234.254 39.6605C234.565 39.6605 234.95 39.6605 234.95 40.3561C234.95 40.8198 234.797 41.2047 234.254 41.2047V41.5154H234.333C234.95 41.5154 235.029 41.9791 235.029 42.3639C235.029 42.9018 234.797 43.1337 234.259 43.1337V43.4444H234.338C235.034 43.4444 235.418 43.0595 235.418 42.2851C235.418 41.8214 235.265 41.4365 234.723 41.2835C235.261 41.1305 235.34 40.8198 235.34 40.3561C235.34 39.5863 235.029 39.3545 234.338 39.3545H234.259V39.6652L234.254 39.6605ZM233.559 41.2047H234.254V41.5154H233.559V43.1337H234.254V43.4444H233.174V39.3545H234.254V39.6652H233.559V41.2093V41.2047Z" fill="white"/>
<path fill-rule="evenodd" clip-rule="evenodd" d="M237.338 42.053H238.034L237.338 39.8133V39.3496H237.57L238.729 43.4395H238.419L238.108 42.3591H237.338V42.0484V42.053ZM237.338 39.7391V39.818V39.3542H237.106L235.947 43.4441H236.332L236.643 42.3637H237.338V42.053H236.721L237.338 39.7391Z" fill="white"/>
<path fill-rule="evenodd" clip-rule="evenodd" d="M59.1828 19.0586C60.4951 19.0586 61.9604 19.4434 63.1938 20.7557C64.3531 21.9892 65.2759 23.7652 65.2759 26.5428C65.2759 28.1611 65.044 30.0901 63.7317 31.7131C62.962 32.5617 61.7239 33.5633 59.6418 33.5633H59.1781V34.333C62.1876 34.333 64.0378 32.9419 65.1182 31.7084C66.2775 30.3962 67.2002 28.6202 67.2002 26.0002C67.2002 24.3031 66.8154 21.9892 64.8863 20.292C63.1103 18.7479 61.0283 18.2842 59.2523 18.2842H59.1735V19.0539L59.1828 19.0586ZM53.1639 25.773C53.1639 28.3976 53.9336 30.1689 54.9399 31.3282C56.2522 32.9465 57.8705 33.4891 59.1828 33.5679V34.3377H59.1039C57.5598 34.3377 54.9352 34.027 53.085 31.7131C51.7728 30.1689 51.2349 28.1657 51.2349 26.3109C51.2349 24.9198 51.5455 23.0696 53.0109 21.2936C54.0125 19.9025 55.8673 18.363 59.1828 18.2842V19.0539C59.1828 18.9751 59.1039 18.9751 59.1039 18.9751C57.9447 18.9751 56.0945 19.2858 54.7822 20.7511C53.6229 21.9845 53.1639 23.6817 53.1639 25.7684V25.773Z" fill="white"/>
<path fill-rule="evenodd" clip-rule="evenodd" d="M82.1731 19.9861C82.1731 19.8331 82.1731 19.6754 82.0943 19.6012C82.0155 19.4482 81.8624 19.4482 81.7094 19.4482H74.1464C73.9934 19.4482 73.8357 19.4482 73.7615 19.6012C73.6085 19.68 73.6085 19.8331 73.6085 19.9861V30.5586C73.6085 30.9434 73.6873 32.6406 73.8403 33.1831C73.9192 33.568 74.151 33.721 74.7678 33.7999H75.0784C75.3103 33.7999 75.6163 33.721 75.6163 33.9529C75.6163 34.1059 75.3845 34.1059 75.3845 34.1059H75.2315C74.9996 34.1059 74.6936 34.0271 74.4617 34.0271H71.2204C70.7567 34.1059 70.6825 34.1059 70.6037 34.1059C70.4507 34.1059 70.4507 33.9529 70.4507 33.9529C70.4507 33.7999 70.5295 33.7999 70.6825 33.7999H70.9932C71.4569 33.721 71.6099 33.4892 71.6888 33.1831C71.7676 32.7983 71.9206 32.1027 71.9206 30.0949V21.4514C71.9206 21.2195 71.9206 20.1391 71.8418 19.7542C71.8418 19.6012 71.7629 19.3694 71.6099 19.2163C71.3781 18.9845 71.072 18.9845 70.9144 18.9057H70.5295C70.5295 18.9057 70.3765 18.9057 70.3765 18.7526C70.3765 18.5996 70.5295 18.5996 70.6083 18.5996H71.3039C71.6146 18.5996 72.3843 18.6784 73.0799 18.6784H83.2628C83.6477 18.6784 84.1114 18.6784 85.0388 18.5996H85.1918C85.3449 18.5996 85.4237 18.6784 85.4237 18.7526C85.4237 18.8268 85.3449 18.9057 85.1918 18.9057H85.0388C84.5009 18.9845 84.2691 19.0587 84.1114 19.4436C84.0326 19.5966 83.9584 19.9073 83.8796 20.8347V30.0949C83.8796 30.6328 83.8796 32.5618 84.1114 33.1831C84.1902 33.568 84.4221 33.721 85.0388 33.7999H85.3495C85.5814 33.7999 85.8874 33.721 85.8874 33.9529C85.8874 34.1059 85.7344 34.1059 85.6555 34.1059H85.5767C85.266 34.1059 84.96 34.0271 84.6493 34.0271H81.4868C81.102 34.1059 80.9489 34.1059 80.9489 34.1059C80.7959 34.1059 80.7171 33.9529 80.7171 33.9529C80.7171 33.7999 80.8701 33.7999 80.9489 33.7999H81.3338C81.7187 33.721 81.8717 33.4892 81.9505 33.1831C82.1824 32.5664 82.1824 31.3329 82.1824 30.6374V19.9907L82.1731 19.9861Z" fill="white"/>
<path fill-rule="evenodd" clip-rule="evenodd" d="M96.8353 19.0586C98.1476 19.0586 99.6129 19.4434 100.846 20.7557C102.006 21.9892 102.928 23.7652 102.854 26.5428C102.854 28.1611 102.622 30.0901 101.31 31.7131C100.615 32.5617 99.3022 33.5633 97.299 33.5633H96.8353V34.333C99.8448 34.333 101.621 32.9419 102.701 31.7084C103.86 30.3962 104.862 28.6202 104.862 26.0002C104.862 24.3031 104.398 21.9892 102.469 20.292C100.772 18.7479 98.6902 18.2842 96.8353 18.2842V19.0539V19.0586ZM90.8164 25.773C90.7376 28.3976 91.5862 30.1689 92.5136 31.3282C93.8259 32.9465 95.523 33.4891 96.8353 33.5679V34.3377H96.6823C95.217 34.3377 92.5924 34.027 90.6634 31.7131C89.43 30.1689 88.8132 28.1657 88.8132 26.3109C88.8132 24.9198 89.1981 23.0696 90.5892 21.2936C91.6697 19.9025 93.5198 18.363 96.84 18.2842V19.0539C96.84 18.9751 96.7611 18.9751 96.6869 18.9751C95.5277 18.9751 93.7563 19.2858 92.444 20.7511C91.2848 21.9845 90.8257 23.6817 90.8257 25.7684L90.8164 25.773Z" fill="white"/>
<path fill-rule="evenodd" clip-rule="evenodd" d="M109.796 21.6044C109.796 20.0603 109.717 19.5966 109.643 19.4436C109.564 19.3647 109.332 18.9798 108.794 18.9057H108.484C108.331 18.9057 108.02 18.9057 108.02 18.7526C108.02 18.6738 108.099 18.5996 108.252 18.5996H108.331C109.258 18.6784 109.796 18.6784 110.413 18.6784H111.493C111.957 18.5996 112.421 18.5996 112.958 18.5996C115.198 18.5996 116.274 19.1375 116.97 19.7589C117.739 20.5286 117.971 21.456 117.971 22.2258C117.971 23.1532 117.818 24.4655 116.659 25.6201C115.578 26.7794 114.266 27.0854 112.801 27.0854H112.648C112.569 27.0854 112.337 27.0854 112.337 26.9324C112.337 26.7794 112.569 26.7794 112.648 26.7794H112.88C114.271 26.7005 115.504 26.0096 116.042 24.9292C116.353 24.3913 116.353 23.7699 116.353 23.3109C116.432 22.2304 116.2 21.15 115.272 20.2226C114.271 19.2952 113.033 19.221 112.648 19.221H112.416C111.952 19.221 111.489 19.221 111.489 19.7589V30.0995C111.489 30.6374 111.489 32.5664 111.642 33.1878C111.795 33.5726 112.026 33.7257 112.643 33.8045H113.26C113.339 33.8045 113.413 33.8045 113.413 33.9575C113.413 34.1894 112.717 34.1105 112.411 34.0364H110.329C110.176 34.0364 109.249 34.0364 108.864 34.1152H108.479C108.326 34.0364 108.326 33.9622 108.326 33.9622C108.326 33.8091 108.405 33.8091 108.479 33.8091H108.711C109.096 33.7303 109.407 33.7303 109.56 33.1924C109.638 32.9606 109.791 32.3438 109.791 30.1041V21.6183L109.796 21.6044Z" fill="white"/>
<path fill-rule="evenodd" clip-rule="evenodd" d="M125.845 21.451C125.924 21.451 125.924 21.5299 125.998 21.6041L127.927 27.1592C127.927 27.2381 127.927 27.3123 127.774 27.3123H125.845V28.0078H128.085C128.085 28.0078 128.238 28.0078 128.238 28.1609L130.167 33.1781C130.167 33.3312 130.167 33.563 130.088 33.716C130.009 33.7949 129.856 33.716 129.856 33.8691C129.856 34.0221 130.088 34.0221 130.241 34.0221C130.473 34.0221 131.321 34.1009 131.632 34.1009H133.561C133.714 34.1009 134.099 34.1009 134.099 33.9479C134.099 33.8953 134.073 33.8443 134.02 33.7949H133.403C132.402 33.6418 132.012 32.8675 131.785 32.2507C131.474 31.634 130.936 30.4747 128.622 24.3028C128.238 23.2224 127.853 22.2208 127.463 21.2146C127.153 20.4448 126.846 19.7492 126.615 18.9749C126.536 18.743 126.304 18.2793 126.151 18.2793C125.998 18.2793 125.919 18.4323 125.84 18.6642V21.4418L125.845 21.451ZM123.916 27.3169H125.845V28.0125H123.684C123.605 28.0125 123.531 28.0125 123.531 28.2443L122.372 31.8705C122.061 32.6402 122.061 32.9509 122.061 33.1039C122.061 33.7207 122.599 33.7995 122.757 33.7995H122.988C122.988 33.7995 123.141 33.7995 123.141 33.9525C123.141 34.1056 122.91 34.1056 122.831 34.1056C122.599 34.1056 122.293 34.0267 121.982 34.0267H120.981C119.59 34.0267 119.821 34.0267 119.052 34.1056H118.899C118.746 34.1056 118.667 34.0267 118.667 33.9525C118.667 33.7207 118.977 33.7995 119.283 33.7995C119.9 33.7207 120.517 33.5677 121.134 31.8705L125.687 19.1372C125.766 18.9841 125.766 18.8265 125.84 18.6734V21.451C125.761 21.451 125.687 21.5299 125.687 21.6041L123.837 27.1592C123.837 27.2381 123.758 27.3123 123.916 27.3123V27.3169Z" fill="white"/>
<path fill-rule="evenodd" clip-rule="evenodd" d="M141.741 21.6044C141.741 20.0603 141.662 19.5966 141.588 19.4436C141.509 19.3647 141.356 18.9798 140.739 18.9057H140.507C140.275 18.9057 139.969 18.9057 139.969 18.7526C139.969 18.6738 140.048 18.5996 140.201 18.5996H140.354C141.282 18.6784 141.745 18.6784 142.362 18.6784H143.521C143.985 18.5996 144.449 18.5996 144.912 18.5996C147.226 18.5996 148.307 19.1375 149.002 19.7589C149.698 20.5286 150.004 21.456 150.004 22.2258C150.004 23.1532 149.772 24.4655 148.692 25.6201C147.532 26.7794 146.299 27.0854 144.833 27.0854H144.68C144.527 27.0854 144.296 27.0854 144.296 26.9324C144.296 26.7794 144.527 26.7794 144.68 26.7794H144.912C146.225 26.7005 147.458 26.0096 148.001 24.9292C148.311 24.3913 148.385 23.7699 148.385 23.3109C148.385 22.2304 148.232 21.15 147.305 20.2226C146.225 19.2952 145.065 19.221 144.68 19.221H144.449C143.911 19.221 143.521 19.221 143.521 19.7589L143.442 30.0995C143.442 30.6374 143.442 32.5664 143.674 33.1878C143.753 33.5726 143.985 33.7257 144.602 33.8045H145.297C145.297 33.8045 145.45 33.8045 145.45 33.9575C145.45 34.1894 144.755 34.1105 144.37 34.0364H142.362C142.13 34.0364 141.282 34.0364 140.818 34.1152H140.507C140.354 34.0364 140.275 33.9622 140.275 33.9622C140.275 33.8091 140.354 33.8091 140.428 33.8091H140.66C141.045 33.7303 141.356 33.7303 141.509 33.1924C141.588 32.9606 141.741 32.3438 141.741 30.1041V21.6183V21.6044Z" fill="white"/>
<path fill-rule="evenodd" clip-rule="evenodd" d="M160.488 19.0586C161.8 19.0586 163.266 19.4434 164.499 20.7557C165.658 21.9892 166.581 23.7652 166.581 26.5428C166.581 28.1611 166.349 30.0901 164.963 31.7131C164.267 32.5617 162.955 33.5633 160.952 33.5633H160.488V34.333C163.498 34.333 165.348 32.9419 166.428 31.7084C167.587 30.3962 168.51 28.6202 168.51 26.0002C168.51 24.3031 168.046 21.9892 166.117 20.292C164.42 18.7479 162.338 18.2842 160.562 18.2842H160.483V19.0539L160.488 19.0586ZM154.469 25.773C154.469 28.3976 155.239 30.1689 156.245 31.3282C157.557 32.9465 159.176 33.4891 160.488 33.5679V34.3377H160.409C158.865 34.3377 156.241 34.027 154.39 31.7131C153.078 30.1689 152.461 28.1657 152.54 26.3109C152.54 24.9198 152.851 23.0696 154.316 21.2936C155.318 19.9025 157.173 18.363 160.488 18.2842V19.0539C160.488 18.9751 160.409 18.9751 160.409 18.9751C159.176 18.9751 157.4 19.2858 156.087 20.7511C154.928 21.9845 154.469 23.6817 154.469 25.7684V25.773Z" fill="white"/>
<path fill-rule="evenodd" clip-rule="evenodd" d="M184.564 22.7636C184.411 22.7636 184.411 22.5317 184.411 22.3787C184.411 21.5301 184.258 20.4497 182.713 19.7541C181.401 19.1374 179.936 19.1374 179.319 19.1374C177.928 19.1374 176.157 19.3692 174.844 20.6027C173.611 21.6831 172.994 23.4591 172.994 25.6942C172.994 29.8629 175.772 33.4102 180.631 33.4102C182.097 33.4102 183.562 33.0996 184.179 31.9449C184.411 31.4812 184.564 30.8645 184.642 30.5538C184.642 30.475 184.642 30.4008 184.796 30.4008C184.949 30.4008 184.949 30.6326 184.949 30.7115C184.949 31.3282 184.564 33.4102 184.332 33.7209C184.1 34.0316 182.635 34.3377 180.321 34.3377C178.313 34.3377 175.693 34.1058 173.606 32.1768C171.677 30.4008 171.139 28.1657 171.139 26.0791C171.139 23.7652 172.141 21.8362 173.453 20.5239C174.919 18.9797 176.926 18.2842 179.625 18.2842C180.553 18.2842 181.322 18.363 182.171 18.516C182.556 18.5949 182.941 18.5949 183.404 18.7479C183.636 18.7479 183.789 18.8267 184.021 18.8267C184.485 18.9055 184.638 18.8267 184.791 18.9055C184.87 18.9055 184.87 18.9844 184.944 19.0586V19.2116C184.865 19.7495 184.791 19.9071 184.791 21.7573C184.791 22.221 184.791 22.7589 184.559 22.7589L184.564 22.7636Z" fill="white"/>
<path fill-rule="evenodd" clip-rule="evenodd" d="M200.919 22.7636C200.766 22.7636 200.84 22.5317 200.766 22.3787C200.766 21.5301 200.613 20.4497 199.068 19.7541C197.835 19.1374 196.291 19.1374 195.674 19.1374C194.283 19.1374 192.586 19.3692 191.199 20.6027C189.966 21.6831 189.349 23.4591 189.349 25.6942C189.349 29.8629 192.206 33.4102 197.065 33.4102C198.531 33.4102 199.996 33.0996 200.613 31.9449C200.844 31.4812 200.923 30.8645 200.997 30.5538C200.997 30.475 201.076 30.4008 201.151 30.4008C201.304 30.4008 201.304 30.6326 201.304 30.7115C201.304 31.3282 200.993 33.4102 200.766 33.7209C200.455 34.0316 199.068 34.3377 196.676 34.3377C194.668 34.3377 192.122 34.1058 189.961 32.1768C188.032 30.4008 187.494 28.1657 187.494 26.0791C187.494 23.7652 188.496 21.8362 189.808 20.5239C191.352 18.9797 193.281 18.2842 195.98 18.2842C196.908 18.2842 197.677 18.363 198.526 18.516C198.911 18.5949 199.375 18.5949 199.759 18.7479C199.991 18.7479 200.144 18.8267 200.376 18.8267C200.914 18.9055 201.072 18.8267 201.146 18.9055C201.225 18.9055 201.299 18.9844 201.299 19.0586V19.2116C201.22 19.7495 201.146 19.9071 201.146 21.7573C201.146 22.221 201.225 22.7589 200.914 22.7589L200.919 22.7636Z" fill="white"/>
<path fill-rule="evenodd" clip-rule="evenodd" d="M217.199 18.826C217.352 18.5941 217.584 18.2881 217.816 18.2881C217.969 18.2881 218.201 18.3669 218.201 18.9048V30.247C218.122 32.6398 218.354 33.2565 218.586 33.4883C218.739 33.7202 219.124 33.7202 219.356 33.799H219.587C219.898 33.799 220.125 33.7202 220.125 33.952C220.125 34.1051 219.972 34.1051 219.893 34.1051H219.815C219.045 34.1051 218.27 34.0262 217.575 34.0262H217.111C216.573 34.0262 216.11 34.0262 215.414 34.1051H215.261C215.108 34.0262 215.029 33.952 215.108 33.8732C215.108 33.7944 215.187 33.7944 215.261 33.7944H215.646C215.799 33.7156 216.031 33.6414 216.11 33.5625C216.188 33.4837 216.341 33.2518 216.42 32.5609C216.499 31.9442 216.499 30.8638 216.499 30.247L216.578 21.2975L206.622 33.952C206.543 34.1051 206.312 34.4157 206.084 34.4157C205.931 34.4157 205.774 34.3369 205.774 33.799V21.687C205.774 20.1429 205.695 19.6792 205.621 19.4473C205.468 19.1367 205.236 18.9836 204.693 18.9095H204.383C204.304 18.9095 204.229 18.8306 204.229 18.7564C204.229 18.6034 204.383 18.6034 204.461 18.6034H204.614C205.078 18.6034 206.005 18.6822 206.465 18.6822H206.849C207.16 18.6822 207.545 18.6822 208.547 18.6034H208.7C208.778 18.6034 208.853 18.6822 208.853 18.7564C208.853 18.9095 208.7 18.9095 208.468 18.9095L208.236 18.9883C207.925 18.9883 207.698 19.1413 207.54 19.452C207.54 19.605 207.387 19.9157 207.387 20.9961V31.3367L217.185 18.8353L217.199 18.826Z" fill="white"/>
<path fill-rule="evenodd" clip-rule="evenodd" d="M236.415 18.826C236.568 18.5941 236.8 18.2881 237.032 18.2881C237.185 18.2881 237.417 18.3669 237.417 18.9048L237.338 30.247C237.338 32.6398 237.491 33.2565 237.723 33.4883C237.955 33.7202 238.34 33.7202 238.572 33.799H238.803C239.035 33.799 239.341 33.7202 239.341 33.952C239.341 34.1051 239.188 34.1051 239.11 34.1051H239.031C238.261 34.1051 237.487 34.0262 236.717 34.0262H236.332C235.794 34.0262 235.33 34.0262 234.556 34.1051H234.477C234.245 34.0262 234.245 33.952 234.245 33.8732C234.324 33.7944 234.398 33.7944 234.398 33.7944H234.862C235.015 33.7156 235.247 33.6414 235.326 33.5625C235.405 33.4837 235.558 33.2518 235.636 32.5609C235.715 31.9442 235.715 30.8638 235.715 30.247V21.2975L225.838 33.952C225.685 34.1051 225.528 34.4157 225.3 34.4157C225.147 34.4157 224.99 34.3369 224.99 33.799V21.687C224.99 20.1429 224.911 19.6792 224.837 19.4473C224.684 19.1367 224.452 18.9836 223.909 18.9095H223.599C223.52 18.9095 223.446 18.8306 223.446 18.7564C223.446 18.6034 223.524 18.6034 223.677 18.6034H223.756C224.294 18.6034 225.222 18.6822 225.685 18.6822H225.996C226.381 18.6822 226.691 18.6822 227.772 18.6034H227.851C228.004 18.6034 228.083 18.6822 228.083 18.7564C228.083 18.9095 227.93 18.9095 227.698 18.9095L227.387 18.9883C227.155 18.9883 226.923 19.1413 226.77 19.452C226.691 19.605 226.617 19.9157 226.617 20.9961V31.3367L236.415 18.8353V18.826Z" fill="white"/>
<path fill-rule="evenodd" clip-rule="evenodd" d="M2.85645 20.1385L44.7522 0.695312V33.0248L39.9668 26.1574H2.85645V20.1385Z" fill="#1B2665"/>
<path d="M23.6119 10.2057H23.6667L23.7165 10.1828L44.9659 0.390476V34.3192H0.250802L0.32803 10.2057H23.6119Z" fill="#1B2665" stroke="white" stroke-width="0.5"/>
<path fill-rule="evenodd" clip-rule="evenodd" d="M2.85645 20.1385L44.7522 0.695312V33.0248L39.9668 26.1574H2.85645V20.1385Z" fill="white"/>
<path fill-rule="evenodd" clip-rule="evenodd" d="M2.85645 22.1469L43.2081 10.0303L44.7522 33.0254L39.9668 26.1579H2.85645V22.1469Z" fill="#3B6FB6"/>
<path fill-rule="evenodd" clip-rule="evenodd" d="M2.85645 24.1497L41.279 19.29L44.7522 33.025L39.9668 26.1575H2.85645V24.1497Z" fill="#E3001F"/>
<path d="M42.6422 47.8171V48.9068C42.6422 49.3752 42.8879 49.6395 43.3702 49.6395C43.6113 49.6395 43.871 49.556 44.0472 49.4447V47.8125H44.497V51.2532H44.0472V49.7925H44.0379C43.7968 49.9316 43.5139 50.0058 43.2125 50.0058C42.7581 50.0058 42.197 49.8111 42.197 48.9718V47.8125H42.6422V47.8171Z" fill="white"/>
<path d="M48.7957 47.8174L49.4774 49.2827C49.5655 49.4867 49.6443 49.6861 49.7278 49.8901H49.737C49.7973 49.7139 49.8622 49.5145 49.9503 49.2688L50.4882 47.822H50.9566L50.2378 49.5887C50.0477 50.0478 49.8344 50.5718 49.5933 50.8964C49.3707 51.1746 49.1203 51.3184 48.8143 51.3184C48.703 51.3184 48.6195 51.3091 48.5639 51.2859L48.6102 50.9242C48.6473 50.9335 48.6983 50.9381 48.7725 50.9381C49.1296 50.9335 49.3383 50.5903 49.4449 50.3446C49.482 50.2657 49.4681 50.2194 49.431 50.1359L48.2903 47.8174H48.7957Z" fill="white"/>
<path d="M54.7217 47.8635C54.9164 47.8218 55.2225 47.7939 55.5332 47.7939C55.9783 47.7939 56.2612 47.8728 56.4791 48.0443C56.66 48.1788 56.7666 48.3829 56.7666 48.6518C56.7666 48.9857 56.5487 49.2732 56.187 49.4076V49.4169C56.5116 49.5004 56.8965 49.7693 56.8965 50.2794C56.8965 50.5762 56.7805 50.7988 56.6043 50.9703C56.3632 51.1883 55.9783 51.2903 55.4172 51.2903C55.1112 51.2903 54.8747 51.2717 54.7263 51.2485V47.8681L54.7217 47.8635ZM55.1668 49.2732H55.5703C56.0386 49.2732 56.3168 49.0274 56.3168 48.6982C56.3168 48.2947 56.0108 48.1371 55.561 48.1371C55.357 48.1371 55.241 48.151 55.1668 48.1695V49.2778V49.2732ZM55.1668 50.9193C55.2549 50.9332 55.3801 50.9379 55.5378 50.9379C55.9969 50.9379 56.4188 50.7709 56.4188 50.2701C56.4188 49.8018 56.0154 49.607 55.5332 49.607H55.1668V50.9193Z" fill="white"/>
<path d="M61.4409 50.1728L61.0838 51.2532H60.6248L61.7933 47.8125H62.3312L63.5044 51.2532H63.0314L62.6651 50.1728H61.4455H61.4409ZM62.5677 49.825L62.2292 48.8373C62.1503 48.6147 62.0993 48.4107 62.0483 48.2113H62.0391C61.988 48.4153 61.9324 48.624 61.8675 48.8327L61.529 49.8296H62.563L62.5677 49.825Z" fill="white"/>
<path d="M67.8399 47.8174V50.8825H68.9575V47.8174H69.398V50.8825H70.5109V47.8174H70.956V51.2581H67.4041V47.8174H67.8446H67.8399Z" fill="white"/>
<path d="M77.522 51.1421C77.3597 51.2256 77.0305 51.3044 76.6132 51.3044C75.644 51.3044 74.916 50.6923 74.916 49.5655C74.916 48.4387 75.644 47.7617 76.7106 47.7617C77.1372 47.7617 77.4108 47.8545 77.5267 47.9147L77.42 48.2764C77.2531 48.193 77.012 48.1327 76.7245 48.1327C75.9176 48.1327 75.3844 48.6474 75.3844 49.5516C75.3844 50.3956 75.8666 50.9335 76.7059 50.9335C76.9749 50.9335 77.2531 50.8778 77.4293 50.7897L77.522 51.1421Z" fill="white"/>
<path d="M81.9134 47.8171V49.3427H82.0525L83.2303 47.8171H83.7682L82.4652 49.3937C83.031 49.4726 83.2489 49.8157 83.4297 50.2794C83.5549 50.6318 83.6523 50.9471 83.8053 51.2532H83.3277C83.2072 51.0167 83.1098 50.7107 83.017 50.4417C82.8594 49.9873 82.6414 49.6766 82.0572 49.6766H81.9134V51.2532H81.4729V47.8125H81.9134V47.8171Z" fill="white"/>
<path d="M90.4782 49.5009C90.4782 50.6833 89.7594 51.3139 88.883 51.3139C88.0066 51.3139 87.3389 50.6091 87.3389 49.5704C87.3389 48.4807 88.0159 47.7666 88.934 47.7666C89.8521 47.7666 90.4782 48.4853 90.4782 49.5055V49.5009ZM87.8118 49.5565C87.8118 50.2892 88.2106 50.9476 88.9108 50.9476C89.611 50.9476 90.0144 50.2984 90.0144 49.5194C90.0144 48.8378 89.6574 48.1237 88.9155 48.1237C88.1735 48.1237 87.8118 48.8007 87.8118 49.5565Z" fill="white"/>
<path d="M96.2325 49.6441H94.8971V50.8822H96.3856V51.2532H94.4519V47.8125H96.3067V48.1835H94.8924V49.2685H96.2279V49.6349L96.2325 49.6441Z" fill="white"/>
<path d="M104.834 47.8589C105.048 47.8218 105.331 47.7939 105.688 47.7939C106.128 47.7939 106.448 47.896 106.652 48.0814C106.842 48.2437 106.954 48.4941 106.954 48.8002C106.954 49.1062 106.861 49.3566 106.689 49.5328C106.453 49.7832 106.073 49.9084 105.637 49.9084C105.502 49.9084 105.382 49.9038 105.28 49.876V51.2532H104.834V47.8542V47.8589ZM105.28 49.5189C105.377 49.5468 105.498 49.556 105.646 49.556C106.184 49.556 106.508 49.2964 106.508 48.8234C106.508 48.3504 106.188 48.151 105.697 48.151C105.502 48.151 105.354 48.1649 105.28 48.1881V49.5236V49.5189Z" fill="white"/>
<path d="M112.726 49.6441H111.391V50.8822H112.879V51.2532H110.946V47.8125H112.801V48.1835H111.386V49.2685H112.722V49.6349L112.726 49.6441Z" fill="white"/>
<path d="M118.681 47.8171V48.1881H117.299V51.2532H116.854V47.8125H118.681V47.8171Z" fill="white"/>
<path d="M122.877 47.8174V49.2641C122.877 49.8113 122.868 50.2611 122.835 50.7202H122.845C123.016 50.3678 123.234 49.9968 123.485 49.5887L124.597 47.8174H125.043V51.2581H124.625V49.7928C124.625 49.2363 124.63 48.8283 124.667 48.397H124.653C124.486 48.768 124.25 49.1668 124.013 49.5516L122.937 51.2627H122.464V47.822H122.882L122.877 47.8174Z" fill="white"/>
<path d="M132.151 49.5009C132.151 50.6833 131.432 51.3139 130.556 51.3139C129.68 51.3139 129.012 50.6091 129.012 49.5704C129.012 48.4807 129.689 47.7666 130.607 47.7666C131.525 47.7666 132.151 48.4853 132.151 49.5055V49.5009ZM129.485 49.5565C129.485 50.2892 129.884 50.9476 130.584 50.9476C131.284 50.9476 131.688 50.2984 131.688 49.5194C131.688 48.8378 131.33 48.1237 130.589 48.1237C129.847 48.1237 129.485 48.8007 129.485 49.5565Z" fill="white"/>
<path d="M136.566 47.8174V49.2549H138.23V47.8174H138.68V51.2581H138.23V49.6444H136.566V51.2581H136.12V47.8174H136.566Z" fill="white"/>
<path d="M143.401 50.1728L143.044 51.2532H142.585L143.753 47.8125H144.291L145.464 51.2532H144.991L144.625 50.1728H143.405H143.401ZM144.528 49.825L144.189 48.8373C144.11 48.6147 144.059 48.4107 144.008 48.2113H143.999C143.948 48.4153 143.892 48.624 143.827 48.8327L143.489 49.8296H144.523L144.528 49.825Z" fill="white"/>
<path d="M151.798 47.8174V51.2581H151.349V48.193H150.213V49.2363C150.213 49.9829 150.18 50.8129 149.698 51.1375C149.573 51.221 149.373 51.2998 149.174 51.2998L149.118 50.9428C149.257 50.9149 149.401 50.8361 149.48 50.7573C149.753 50.4883 149.781 49.8206 149.781 49.2688V47.822H151.803L151.798 47.8174Z" fill="white"/>
<path d="M156.408 47.8174V49.1018C156.51 49.0879 156.714 49.0787 156.83 49.0787C157.534 49.0787 158.156 49.3893 158.156 50.1498C158.156 50.4698 158.054 50.7063 157.891 50.8825C157.613 51.1792 157.131 51.2859 156.658 51.2859C156.347 51.2859 156.111 51.2673 155.962 51.2442V47.8174H156.408ZM156.408 50.9149C156.51 50.9335 156.621 50.9428 156.774 50.9428C157.27 50.9428 157.692 50.7016 157.692 50.1776C157.692 49.6537 157.256 49.4311 156.769 49.4311C156.658 49.4311 156.519 49.4403 156.408 49.4543V50.9149Z" fill="white"/>
<path d="M162.57 47.8174V49.2549H164.235V47.8174H164.685V51.2581H164.235V49.6444H162.57V51.2581H162.125V47.8174H162.57Z" fill="white"/>
<path d="M171.789 49.5009C171.789 50.6833 171.07 51.3139 170.194 51.3139C169.317 51.3139 168.649 50.6091 168.649 49.5704C168.649 48.4807 169.326 47.7666 170.245 47.7666C171.163 47.7666 171.789 48.4853 171.789 49.5055V49.5009ZM169.122 49.5565C169.122 50.2892 169.521 50.9476 170.221 50.9476C170.922 50.9476 171.325 50.2984 171.325 49.5194C171.325 48.8378 170.968 48.1237 170.226 48.1237C169.484 48.1237 169.122 48.8007 169.122 49.5565Z" fill="white"/>
<path d="M177.543 49.6441H176.208V50.8822H177.696V51.2532H175.763V47.8125H177.618V48.1835H176.203V49.2685H177.539V49.6349L177.543 49.6441Z" fill="white"/>
<path d="M189.085 49.5009C189.085 50.6833 188.366 51.3139 187.49 51.3139C186.613 51.3139 185.946 50.6091 185.946 49.5704C185.946 48.4807 186.623 47.7666 187.541 47.7666C188.459 47.7666 189.085 48.4853 189.085 49.5055V49.5009ZM186.419 49.5565C186.419 50.2892 186.817 50.9476 187.518 50.9476C188.218 50.9476 188.621 50.2984 188.621 49.5194C188.621 48.8378 188.264 48.1237 187.522 48.1237C186.78 48.1237 186.419 48.8007 186.419 49.5565Z" fill="white"/>
<path d="M193.671 48.1979H192.628V47.8223H195.173V48.1979H194.121V51.2583H193.671V48.1979Z" fill="white"/>
<path d="M201.048 47.8174V50.8917L201.35 50.901L201.317 52.0788H200.97L200.937 51.2534H198.767L198.734 52.0788H198.387L198.354 50.901L198.614 50.8917C198.744 50.6553 198.869 50.4095 198.952 50.1359C199.068 49.7371 199.115 49.2781 199.115 48.6891V47.8174H201.039H201.048ZM199.537 48.8329C199.537 49.3847 199.486 49.8484 199.365 50.2379C199.296 50.4791 199.189 50.7063 199.082 50.8917H200.603V48.1883H199.537V48.8375V48.8329Z" fill="white"/>
<path d="M207.086 49.6441H205.75V50.8822H207.239V51.2532H205.305V47.8125H207.16V48.1835H205.746V49.2685H207.081V49.6349L207.086 49.6441Z" fill="white"/>
<path d="M213.606 47.8174V51.2581H213.156V48.193H212.02V49.2363C212.02 49.9829 211.987 50.8129 211.505 51.1375C211.38 51.221 211.181 51.2998 210.981 51.2998L210.926 50.9428C211.065 50.9149 211.208 50.8361 211.287 50.7573C211.561 50.4883 211.589 49.8206 211.589 49.2688V47.822H213.61L213.606 47.8174Z" fill="white"/>
<path d="M219.55 49.6441H218.215V50.8822H219.703V51.2532H217.77V47.8125H219.624V48.1835H218.21V49.2685H219.546V49.6349L219.55 49.6441Z" fill="white"/>
<path d="M224.122 47.8174V49.2549H225.787V47.8174H226.237V51.2581H225.787V49.6444H224.122V51.2581H223.677V47.8174H224.122Z" fill="white"/>
<path d="M230.818 47.8174V49.2641C230.818 49.8113 230.809 50.2611 230.776 50.7202H230.786C230.957 50.3678 231.175 49.9968 231.426 49.5887L232.539 47.8174H232.984V51.2581H232.566V49.7928C232.566 49.2363 232.571 48.8283 232.608 48.397H232.594C232.427 48.768 232.191 49.1668 231.954 49.5516L230.879 51.2627H230.406V47.822H230.823L230.818 47.8174Z" fill="white"/>
<path d="M238.933 49.6441H237.598V50.8822H239.086V51.2532H237.153V47.8125H239.007V48.1835H237.593V49.2685H238.929V49.6349L238.933 49.6441Z" fill="white"/>
</svg>
