<svg width="1620" height="1455" viewBox="0 0 1620 1455" fill="none" xmlns="http://www.w3.org/2000/svg">
<path fill-rule="evenodd" clip-rule="evenodd" d="M580.472 0L534.558 46.0903L718.318 230.556L626.456 322.772L672.37 368.862L764.198 276.681V184.725L764.344 184.578L626.602 46.3068H626.171L626.386 46.0903L580.472 0ZM396.914 276.772L580.549 92.432L534.635 46.3416L350.979 230.703L351.16 230.885V323.023L777.892 751.394V1455H842.824V750.674L855.914 737.535L842.824 724.395V724.255L856.164 737.647L993.903 599.38L994.011 599.488L1131.68 461.294L1131.75 461.217L1269.42 323.023V230.885L1269.6 230.703L1085.94 46.3416L1040.03 92.432L1223.66 276.772L1085.84 415.126L1085.76 415.204L948.1 553.394L947.992 553.285L810.25 691.556L840.771 722.194H840.632L396.914 276.772ZM734.713 771.784L734.623 771.875L596.906 633.629L597.013 633.521L459.348 495.327L459.271 495.25L321.606 357.056H229.82L229.639 356.874L45.9834 541.236L91.8974 587.326L275.532 402.986L413.357 541.34L413.434 541.417L551.096 679.607L550.988 679.716L688.73 817.987L688.82 817.896L734.713 863.965V771.784ZM885.36 771.858L885.287 771.784V863.965L931.162 817.913L931.235 817.987L1068.98 679.716L1068.87 679.607L1206.53 541.417L1206.61 541.34L1344.43 402.986L1528.07 587.326L1573.98 541.236L1390.33 356.874L1390.14 357.056H1298.36L1160.69 495.25L1160.62 495.327L1022.95 633.521L1023.06 633.629L885.36 771.858ZM993.829 46.0903L1039.74 0L1085.66 46.0903L1085.44 46.3068H1085.8L902.259 230.556L994.122 322.772L948.208 368.862L856.38 276.681V184.725L856.234 184.578L993.976 46.3068H994.045L993.829 46.0903ZM1154.72 656.58L1108.81 702.67L1111.95 705.827L977.219 841.08L977.142 841.158L885.391 933.261L885.676 933.547H885.321V1455H950.254V960.33L1023.06 887.248L1023.13 887.171L1160.96 748.816L1344.59 933.157L1390.51 887.066L1206.85 702.705L1206.67 702.887H1200.42L1200.64 702.67L1154.72 656.58ZM409.44 702.67L455.354 656.58L501.268 702.67L500.638 703.302L637.889 841.08L637.966 841.158L729.717 933.261L729.432 933.547H729.786V1455H664.854V960.33L592.052 887.248L591.975 887.171L454.15 748.816L270.515 933.157L224.601 887.066L408.257 702.705L408.438 702.887H409.655L409.44 702.67ZM45.914 541.375L0 587.465L45.914 633.556L45.9487 633.521V633.556L183.691 771.827L183.837 771.68H275.442L367.27 679.499L321.356 633.409L229.493 725.624L45.9487 541.375V541.41L45.914 541.375ZM1574.02 541.445L1574.09 541.375L1620 587.465L1574.09 633.556L1574.02 633.486V633.556L1436.27 771.827L1436.13 771.68H1344.52L1252.7 679.499L1298.61 633.409L1390.47 725.624L1574.02 541.375V541.445ZM488.609 276.681L580.437 184.501L626.351 230.591L534.523 322.772L488.609 276.681ZM1131.97 276.681L1086.05 322.772L994.226 230.591L1040.14 184.501L1131.97 276.681ZM672.3 368.932L580.472 276.751L534.558 322.841L626.386 415.022L672.3 368.932ZM948.278 368.932L994.192 415.022L1086.02 322.841L1040.11 276.751L948.278 368.932ZM275.442 495.033L183.614 587.214L229.528 633.304L321.356 541.124L275.442 495.033ZM367.339 679.429L275.511 587.249L321.425 541.158L413.253 633.339L367.339 679.429ZM362.308 1117.66L362.455 1117.51H454.059L545.887 1025.33L499.973 979.239L408.11 1071.45L224.566 887.206V979.386L362.308 1117.66ZM454.059 840.864L362.231 933.045L408.145 979.135L499.973 886.954L454.059 840.864ZM545.957 1025.26L454.129 933.079L500.043 886.989L591.871 979.169L545.957 1025.26ZM1252.8 1117.66L1390.54 979.386V887.206L1207 1071.45L1206.96 1071.42L1115.13 979.239L1069.22 1025.33L1161.05 1117.51H1252.65L1252.8 1117.66ZM1161.05 840.864L1115.13 886.954L1206.96 979.135L1252.88 933.045L1161.05 840.864ZM1069.15 1025.26L1023.24 979.169L1115.07 886.989L1160.98 933.079L1069.15 1025.26ZM1344.52 495.033L1298.61 541.124L1390.44 633.304L1436.35 587.214L1344.52 495.033ZM1252.63 679.429L1206.71 633.339L1298.54 541.158L1344.45 587.249L1252.63 679.429Z" fill="#091C5A" fill-opacity="0.03"/>
</svg>
