<svg width="380" height="343" viewBox="0 0 380 343" fill="none" xmlns="http://www.w3.org/2000/svg">
<path fill-rule="evenodd" clip-rule="evenodd" d="M136.16 0.808594L125.39 11.6422L168.494 55.0012L146.946 76.6766L157.716 87.5102L179.256 65.843V44.2284L179.291 44.1939L146.981 11.6931H146.88L146.93 11.6422L136.16 0.808594ZM93.1033 65.8643L136.178 22.5349L125.408 11.7013L82.3284 55.0357L82.3709 55.0784V76.7356L182.469 177.425V342.809H197.7V177.256L200.77 174.167L197.7 171.079V171.046L200.829 174.194L233.138 141.694L233.163 141.719L265.455 109.236L265.473 109.218L297.765 76.7356V55.0784L297.807 55.0357L254.727 11.7013L243.957 22.5349L287.032 65.8643L254.703 98.3847L254.685 98.4029L222.394 130.885L222.369 130.859L190.059 163.36L197.218 170.562H197.185L93.1033 65.8643ZM172.34 182.218L172.319 182.239L140.015 149.744L140.04 149.719L107.748 117.236L107.73 117.218L75.4385 84.7352H53.9085L53.866 84.6925L10.7862 128.027L21.5562 138.861L64.631 95.5311L96.9604 128.051L96.9784 128.07L129.269 160.551L129.244 160.577L161.554 193.078L161.575 193.056L172.34 203.885V182.218ZM207.677 182.235L207.66 182.218V203.885L218.421 193.06L218.438 193.078L250.748 160.577L250.723 160.551L283.013 128.07L283.031 128.051L315.361 95.5311L358.436 138.861L369.206 128.027L326.126 84.6925L326.083 84.7352H304.553L272.262 117.218L272.243 117.236L239.952 149.719L239.977 149.744L207.677 182.235ZM233.12 11.6422L243.89 0.808594L254.66 11.6422L254.61 11.6931H254.695L211.641 55.0012L233.189 76.6766L222.419 87.5102L200.879 65.843V44.2284L200.845 44.1939L233.155 11.6931H233.171L233.12 11.6422ZM270.861 155.139L260.091 165.972L260.829 166.714L229.224 198.506L229.206 198.524L207.684 220.173L207.751 220.24H207.668V342.809H222.899V226.536L239.976 209.358L239.994 209.339L272.323 176.819L315.398 220.149L326.168 209.315L283.088 165.98L283.046 166.023H281.58L281.631 165.972L270.861 155.139ZM96.0414 165.972L106.811 155.139L117.581 165.972L117.434 166.121L149.628 198.506L149.646 198.524L171.168 220.173L171.101 220.24H171.184V342.809H155.953V226.536L138.876 209.358L138.858 209.339L106.529 176.819L63.4541 220.149L52.6842 209.315L95.764 165.98L95.8064 166.023H96.092L96.0414 165.972ZM10.77 128.06L0 138.893L10.77 149.727L10.7781 149.719V149.727L43.0879 182.228L43.1223 182.193H64.6098L86.1497 160.526L75.3798 149.692L53.8317 171.368L10.7781 128.06V128.068L10.77 128.06ZM369.214 128.076L369.23 128.06L380 138.893L369.23 149.727L369.214 149.71V149.727L336.904 182.228L336.87 182.193H315.382L293.842 160.526L304.612 149.692L326.16 171.368L369.214 128.06V128.076ZM114.612 65.843L136.152 44.1757L146.922 55.0094L125.382 76.6766L114.612 65.843ZM265.523 65.843L254.753 76.6766L233.213 55.0094L243.983 44.1757L265.523 65.843ZM157.7 87.5265L136.16 65.8593L125.39 76.6929L146.93 98.3601L157.7 87.5265ZM222.436 87.5265L233.205 98.3601L254.745 76.6929L243.975 65.8593L222.436 87.5265ZM64.6098 117.167L43.0699 138.834L53.8399 149.668L75.3798 128.001L64.6098 117.167ZM86.166 160.509L64.6261 138.842L75.396 128.009L96.9359 149.676L86.166 160.509ZM84.9859 263.516L85.0203 263.481H106.508L128.048 241.814L117.278 230.98L95.7296 252.656L52.676 209.348V231.015L84.9859 263.516ZM106.508 198.455L84.9678 220.122L95.7378 230.956L117.278 209.289L106.508 198.455ZM128.064 241.797L106.524 220.13L117.294 209.297L138.834 230.964L128.064 241.797ZM293.867 263.516L326.176 231.015V209.348L283.123 252.656L283.115 252.647L261.575 230.98L250.805 241.814L272.345 263.481H293.832L293.867 263.516ZM272.345 198.455L261.575 209.289L283.115 230.956L293.885 220.122L272.345 198.455ZM250.788 241.797L240.019 230.964L261.558 209.297L272.328 220.13L250.788 241.797ZM315.382 117.167L304.612 128.001L326.152 149.668L336.922 138.834L315.382 117.167ZM293.826 160.509L283.056 149.676L304.596 128.009L315.366 138.842L293.826 160.509Z" fill="#091C5A" fill-opacity="0.03"/>
</svg>
