<svg width="1091" height="978" viewBox="0 0 1091 978" fill="none" xmlns="http://www.w3.org/2000/svg">
<path fill-rule="evenodd" clip-rule="evenodd" d="M390.923 0L360.002 30.9803L483.756 154.972L421.891 216.956L452.812 247.936L514.654 185.975V124.165L514.753 124.067L421.989 31.1258H421.699L421.844 30.9803L390.923 0ZM267.305 186.037L390.975 62.1295L360.054 31.1492L236.369 155.07L236.491 155.193V217.125L523.877 505.061V978H567.606V504.577L576.421 495.745L567.606 486.913V486.819L576.59 495.82L669.351 402.882L669.423 402.955L762.135 310.066L762.186 310.014L854.898 217.125V155.193L855.02 155.07L731.335 31.1492L700.414 62.1295L824.084 186.037L731.265 279.033L731.213 279.085L638.505 371.972L638.432 371.899L545.669 464.84L566.223 485.434H566.13L267.305 186.037ZM494.798 518.766L494.737 518.827L401.99 425.903L402.063 425.83L309.351 332.942L309.299 332.89L216.588 240.001H154.774L154.652 239.879L30.9678 363.8L61.8889 394.78L185.559 270.873L278.378 363.87L278.43 363.922L371.139 456.808L371.066 456.881L463.83 549.822L463.891 549.761L494.798 580.727V518.766ZM596.252 518.816L596.202 518.766V580.727L627.098 549.773L627.147 549.822L719.91 456.881L719.838 456.808L812.547 363.922L812.598 363.87L905.417 270.873L1029.09 394.78L1060.01 363.8L936.324 239.879L936.203 240.001H874.389L781.677 332.89L781.625 332.942L688.914 425.83L688.987 425.903L596.252 518.816ZM669.301 30.9803L700.222 0L731.143 30.9803L730.998 31.1258H731.242L607.633 154.972L669.498 216.956L638.577 247.936L576.735 185.975V124.166L576.637 124.067L669.4 31.1258H669.446L669.301 30.9803ZM777.656 441.33L746.735 472.31L748.853 474.432L658.115 565.345L658.063 565.397L596.272 627.305L596.465 627.498H596.226V978H639.955V645.5L688.984 596.377L689.036 596.325L781.855 503.328L905.525 627.235L936.446 596.255L812.762 472.334L812.64 472.456H808.432L808.577 472.31L777.656 441.33ZM275.74 472.31L306.661 441.33L337.582 472.31L337.158 472.735L429.591 565.345L429.642 565.397L491.433 627.305L491.241 627.498H491.479V978H447.75V645.5L398.721 596.377L398.669 596.325L305.85 503.328L182.18 627.235L151.259 596.255L274.943 472.334L275.065 472.456H275.885L275.74 472.31ZM30.9211 363.893L0 394.874L30.9211 425.854L30.9445 425.831V425.854L123.708 518.795L123.807 518.696H185.498L247.34 456.735L216.419 425.755L154.554 487.739L30.9445 363.893V363.917L30.9211 363.893ZM1060.03 363.94L1060.08 363.893L1091 394.874L1060.08 425.854L1060.03 425.807V425.854L967.269 518.795L967.17 518.696H905.478L843.636 456.735L874.557 425.755L936.423 487.739L1060.03 363.893V363.94ZM329.057 185.975L390.9 124.015L421.821 154.995L359.978 216.956L329.057 185.975ZM762.332 185.975L731.41 216.956L669.568 154.995L700.489 124.015L762.332 185.975ZM452.765 247.983L390.923 186.022L360.002 217.003L421.844 278.963L452.765 247.983ZM638.624 247.983L669.545 278.963L731.387 217.003L700.466 186.022L638.624 247.983ZM185.498 332.744L123.656 394.705L154.577 425.685L216.419 363.724L185.498 332.744ZM247.387 456.689L185.545 394.728L216.466 363.748L278.308 425.708L247.387 456.689ZM243.999 751.25L244.098 751.151H305.789L367.632 689.19L336.71 658.21L274.845 720.194L151.236 596.349V658.309L243.999 751.25ZM305.789 565.199L243.947 627.16L274.868 658.14L336.71 596.18L305.789 565.199ZM367.678 689.144L305.836 627.183L336.757 596.203L398.599 658.163L367.678 689.144ZM843.706 751.25L936.47 658.309V596.349L812.861 720.194L812.837 720.171L750.995 658.21L720.074 689.19L781.916 751.151H843.608L843.706 751.25ZM781.916 565.199L750.995 596.18L812.837 658.14L843.758 627.16L781.916 565.199ZM720.027 689.144L689.106 658.163L750.948 596.203L781.869 627.183L720.027 689.144ZM905.478 332.744L874.557 363.724L936.4 425.685L967.321 394.705L905.478 332.744ZM843.589 456.689L812.668 425.708L874.511 363.748L905.432 394.728L843.589 456.689Z" fill="white" fill-opacity="0.02"/>
</svg>
