<svg width="198" height="278" viewBox="0 0 198 278" fill="none" xmlns="http://www.w3.org/2000/svg">
<path fill-rule="evenodd" clip-rule="evenodd" d="M197.749 33.0731L190.039 25.3807L187.863 27.5518L190.039 25.3805L177.438 12.8085L175.262 14.9798L164.838 25.3805L164.806 25.4127L164.795 25.4022L152.195 37.9743L152.205 37.9847L152.205 37.985L152.195 37.9746L139.594 50.5466L139.605 50.557L139.572 50.59L108.388 19.4761L108.377 19.4867L101.683 12.8082L89.083 25.3803L89.0831 25.3804L69.0364 45.382L69.0473 45.3929L63.8605 50.568L76.461 63.14L83.143 56.4731L83.1432 56.4733L76.4611 63.1404L89.0616 75.7124L101.662 63.1404L89.0618 50.5685L95.7439 43.9015L95.7325 43.8901L101.694 37.9419L101.726 37.9738L101.726 37.9742L114.326 50.5463L114.327 50.5459L114.327 50.546L114.326 50.5465L126.927 63.1185L126.927 63.1181L126.927 63.1184L126.927 63.1189L126.971 63.1626L126.917 63.2158L126.885 63.1831L114.284 75.7552L114.317 75.7878L114.317 75.788L114.284 75.7553L101.684 88.3274L101.684 88.3275L89.0833 100.9L89.1159 100.932L89.1156 100.932L89.0829 100.9L76.4824 113.472L76.5152 113.504L76.4386 113.581L76.4166 113.559L63.816 126.131L59.4835 121.808L59.3971 121.722L59.3968 121.723L51.1715 113.516L38.5711 126.088L51.1715 138.66L51.2153 138.703L51.2156 138.703L51.2375 138.725L51.1824 138.78L51.1715 138.769L38.5711 151.341L38.5707 151.341L25.9702 163.913L25.9814 163.924L25.9813 163.924L25.9701 163.913L13.3697 176.485L23.1246 186.218L23.1028 186.24L43.7492 206.84L51.1712 214.245L56.3801 209.048L56.413 209.081L69.0134 196.509L68.9807 196.476L76.3943 189.079L63.7938 176.507L51.1934 189.079L51.2261 189.112L51.2041 189.134L51.1712 189.101L38.5599 176.518L63.8272 151.308L76.4166 163.869L76.4273 163.858L76.5041 163.935L76.4824 163.957L89.0829 176.529L89.0833 176.528L101.684 189.101L101.684 189.101L114.284 201.673L114.306 201.651L114.306 201.651L114.284 201.673L126.885 214.245L126.906 214.223L126.95 214.267L101.683 239.476L89.0829 226.904L89.0826 226.904L89.0499 226.872L89.0615 226.86L76.4611 214.288L63.8606 226.86L72.0387 235.02L72.0271 235.031L84.6275 247.604L84.6278 247.603L89.0829 252.048L97.3743 243.776L97.3746 243.776L89.0833 252.049L101.684 264.621L106.139 260.176L106.161 260.197L139.572 226.861L139.594 226.883L147.74 235.01L152.195 239.455L152.195 239.455L164.795 252.027L170.756 257.975L170.767 257.964L177.438 264.621L190.039 252.049L177.438 239.477L177.428 239.487L177.396 239.455L164.795 226.883L164.795 226.883L160.34 222.438L152.195 214.311L152.173 214.289L159.749 206.729L159.738 206.718L164.794 201.673L164.784 201.662L164.784 201.662L164.795 201.673L177.395 189.101L177.384 189.09L177.384 189.09L177.395 189.101L189.996 176.528L189.996 176.529L197.749 168.793V143.627L139.55 201.695L76.4383 138.725L133.632 81.6608L133.632 81.661L139.572 75.7344L184.885 120.946L197.486 133.518L197.749 133.78V108.635L189.996 100.9L189.995 100.9L189.995 100.9L189.996 100.9L177.395 88.3275L177.395 88.3279L177.395 88.3277L177.395 88.3274L164.795 75.7553L164.794 75.7557L164.794 75.7555L164.794 75.7552L152.194 63.1831L152.194 63.1833L152.173 63.1623L155.143 60.1992L155.142 60.1988L171.499 43.8785L171.5 43.8789L177.439 37.9531L190.039 50.5248L197.749 42.8324V33.0731ZM197.749 42.8329L190.039 50.5252L190.083 50.5689L190.062 50.5901L190.061 50.5897L177.461 63.1618L190.061 75.7339L196.743 69.0669L196.744 69.0673L197.749 68.0645V42.8329ZM197.749 209.365L190.061 201.695L177.461 214.267L184.896 221.686L184.885 221.696L190.072 226.871L190.039 226.904L197.749 234.596V209.365ZM197.749 234.597L190.039 226.904L177.439 239.476L190.039 252.048L197.749 244.356V234.597ZM126.229 12.7869L138.829 0.214844L151.43 12.7869L138.829 25.359L126.229 12.7869ZM38.5709 75.7554L51.1714 63.1833L57.8762 69.8731L57.8983 69.851L70.4988 82.4231L70.4763 82.4455L76.3943 88.3502L63.7938 100.922L51.1934 88.3502L51.2159 88.3278L51.1935 88.3054L51.1714 88.3275L38.5709 75.7554ZM25.9703 88.3279L38.5708 75.7558L51.1712 88.3279L45.9738 93.5136L45.9963 93.536L38.5713 100.944L51.1711 113.516L38.5707 126.088L25.9702 113.516L33.3953 106.107L33.3951 106.107L25.9701 113.516L13.3697 100.944L25.9701 88.3715L25.9708 88.3722L25.9928 88.3503L25.9703 88.3279ZM164.796 126.131L177.396 138.703L167.186 148.89L167.208 148.912L164.795 151.319L164.795 151.32L152.195 163.892L152.194 163.891L144.769 171.3L144.747 171.278L139.55 176.463L126.95 163.891L139.55 151.319L139.573 151.341L152.217 138.725L152.195 138.703L164.796 126.131ZM152.195 113.559L164.795 126.131L152.195 138.703L145.512 132.036L145.512 132.036L139.551 126.088L139.529 126.109L126.929 113.537L139.529 100.965L145.491 106.913L145.512 106.892L152.194 113.559L152.195 113.559ZM139.55 151.318L126.95 138.746L126.949 138.747L126.906 138.704L126.929 138.682L114.328 126.11L101.728 138.682L109.174 146.111L109.152 146.134L121.752 158.706L121.753 158.705L126.95 163.89L139.55 151.318ZM89.0617 226.86L101.662 214.288L89.0617 201.716L76.4612 214.288L89.0617 226.86ZM126.929 113.537L114.328 126.109L126.929 138.682L139.529 126.109L126.929 113.537ZM13.349 126.153L0.748535 138.725L13.349 151.297L25.9494 138.725L13.349 126.153ZM138.829 277.215L126.229 264.643L138.829 252.071L151.43 264.643L138.829 277.215Z" fill="#FF0000" fill-opacity="0.3"/>
</svg>
