<svg width="197" height="277" viewBox="0 0 197 277" fill="none" xmlns="http://www.w3.org/2000/svg">
<path fill-rule="evenodd" clip-rule="evenodd" d="M197 33.0221L189.32 25.3418L187.152 27.5098L187.152 27.5097L189.32 25.3418L176.767 12.7892L164.215 25.3418L164.215 25.3423L164.183 25.3745L164.172 25.3636L151.619 37.9162L139.067 50.4688L139.078 50.4794L139.045 50.5123L107.979 19.4462L107.968 19.457L101.3 12.7892L96.3194 17.77L96.3193 17.7699L68.7772 45.3121L68.7883 45.3231L63.6209 50.4905L76.1735 63.0431L76.1736 63.0431L88.7262 75.5957L101.279 63.0431L88.7262 50.4905L95.383 43.8335L95.372 43.8224L101.3 37.8943L101.3 37.8944L101.311 37.8836L101.343 37.9157L101.343 37.9162L113.895 50.4688L113.896 50.4683L113.896 50.4683L113.895 50.4688L126.448 63.0214L126.448 63.0209L126.448 63.021L126.448 63.0214L126.492 63.0653L126.438 63.119L126.406 63.0865L113.853 75.6391L113.886 75.6717L113.885 75.6718L113.853 75.6391L101.3 88.1917L101.333 88.2243L101.333 88.2244L101.3 88.1917L88.7476 100.744L88.7803 100.777L88.7801 100.777L88.7473 100.744L76.1947 113.297L76.2275 113.33L76.1512 113.406L76.1292 113.384L63.5768 125.936L59.2602 121.62L59.26 121.62L59.1745 121.535L59.1742 121.535L50.9799 113.341L38.4273 125.893L50.9799 138.446L51.0239 138.489L51.046 138.511L50.9913 138.566L50.9799 138.555L38.4273 151.107L25.8746 163.66L13.3219 176.212L23.0396 185.93L23.0179 185.952L38.4272 201.361L50.9798 213.914L56.1687 208.725L56.2015 208.758L68.7541 196.205L68.7213 196.172L76.1069 188.787L63.5543 176.234L51.0018 188.787L51.0346 188.82L51.0127 188.841L38.4169 176.246L63.5877 151.075L76.1292 163.616L76.1402 163.605L76.2165 163.682L76.1947 163.703L88.7473 176.256L88.769 176.234L88.7692 176.234L88.7476 176.256L101.3 188.809L113.853 201.361L126.406 213.914L126.427 213.892L126.47 213.935L101.3 239.106L88.7473 226.553L88.7471 226.554L88.7147 226.521L88.726 226.51H88.7262L101.279 213.957L88.7262 201.405L76.1736 213.957L76.1735 213.957L63.6209 226.51L71.7677 234.657L71.7563 234.668L84.3089 247.221L84.3091 247.22L88.7473 251.659L97.0077 243.398L97.0078 243.398L88.7476 251.659L101.3 264.211L105.738 259.773L105.76 259.795L139.045 226.51L139.062 226.527L139.067 226.532L147.181 234.646L151.619 239.084L164.172 251.637L170.111 257.576L170.121 257.565L176.767 264.211L189.32 251.659L197 243.978V234.234L189.32 226.553L176.767 239.106L189.32 251.659L176.767 239.106L176.757 239.117L176.724 239.084L176.725 239.084L164.172 226.532L159.734 222.094L151.619 213.979L151.598 213.957L159.145 206.41L159.134 206.398L164.172 201.361L176.724 188.809L189.277 176.256L189.266 176.245L189.266 176.245L189.277 176.256L197 168.533V143.405L139.023 201.383L76.1514 138.511L133.127 81.5348L139.045 75.6175L139.066 75.6392L142.003 78.5761L151.619 88.1918L164.172 100.744L176.724 113.297L176.724 113.297L184.186 120.759L184.186 120.759L189.364 125.937L196.739 133.312L196.739 133.311L197 133.573V108.468L189.277 100.744L176.724 88.1918L164.172 75.6392L154.556 66.0236L151.619 63.0866L151.597 63.0649L154.556 60.1062L170.851 43.8117L176.768 37.8948L189.32 50.447L197 42.7667V33.0221ZM197 42.7669L189.32 50.447L189.364 50.4907L189.342 50.5123L183.447 56.4079L176.79 63.0649L189.342 75.6175L195.999 68.9605L197 67.9594V42.7669ZM197 209.041L189.342 201.383L176.79 213.935L184.197 221.343L184.186 221.354L189.353 226.521L189.32 226.553L197 234.233V209.041ZM125.752 12.7674L138.305 0.214844L150.858 12.7674L138.305 25.32L125.752 12.7674ZM25.8746 88.1918L38.4271 75.6392L50.9797 88.1918L45.8024 93.3692L45.8244 93.3912L38.4274 100.788L50.9798 113.341L38.4272 125.893L25.8746 113.341L33.2716 105.944L25.8745 113.341L13.3219 100.788L25.8745 88.2354L25.8748 88.2357L25.8966 88.2139L25.8746 88.1918ZM38.4272 75.6392L50.9798 63.0866L57.659 69.7658L57.6812 69.7437L70.2338 82.2963L70.2117 82.3184L76.1069 88.2136L63.5543 100.766L51.0018 88.2136L51.0239 88.1915L51.002 88.1696L50.9798 88.1918L38.4272 75.6392ZM164.172 125.937L164.173 125.937L176.725 138.489L166.554 148.66L166.575 148.681L164.172 151.085L164.172 151.085L151.619 163.638L151.619 163.638L144.222 171.035L144.201 171.013L139.023 176.191L126.471 163.638L121.293 158.46L121.292 158.46L108.74 145.908L108.762 145.885L101.344 138.468L113.897 125.915L126.449 138.468L126.427 138.49L126.47 138.533L126.47 138.533L139.023 151.085L139.045 151.107L151.641 138.51L151.62 138.489L151.62 138.489L144.962 131.832L144.962 131.832L139.023 125.894L139.002 125.915L126.45 113.362L139.002 100.81L144.941 106.748L144.962 106.727L151.619 113.384L151.62 113.384L164.172 125.937ZM126.45 113.362L139.002 125.915L126.449 138.468L113.897 125.915L126.45 113.362L126.45 113.362ZM13.3011 125.958L0.748535 138.511L13.3011 151.064L25.8537 138.511L13.3011 125.958ZM150.858 264.233L138.305 276.786L125.752 264.233L138.305 251.68L150.858 264.233Z" fill="white" fill-opacity="0.2"/>
</svg>
