<svg width="531" height="362" viewBox="0 0 531 362" fill="none" xmlns="http://www.w3.org/2000/svg">
<path fill-rule="evenodd" clip-rule="evenodd" d="M190.266 0L175.216 15.0783L235.449 75.4259L205.338 105.594L220.388 120.672L250.487 90.5157V60.4322L250.535 60.3842L205.386 15.1492H205.245L205.315 15.0783L190.266 0ZM130.1 90.5454L190.291 30.2389L175.241 15.1606L115.043 75.474L115.102 75.5334V105.676L254.976 245.817V476H276.259V245.581L280.55 241.283L276.259 236.984V236.939L280.632 241.319L325.779 196.086L325.815 196.121L370.938 150.911L370.963 150.886L416.087 105.676V75.5334L416.146 75.474L355.948 15.1606L340.898 30.2389L401.09 90.5454L355.914 135.808L355.888 135.833L310.766 181.042L310.731 181.006L265.582 226.241L275.586 236.264H275.541L130.1 90.5454ZM240.823 252.488L240.793 252.517L195.652 207.29L195.688 207.255L150.564 162.045L150.539 162.02L105.415 116.81H75.33L75.2707 116.751L15.0723 177.064L30.1219 192.142L90.3134 131.836L135.489 177.098L135.515 177.124L180.637 222.332L180.602 222.367L225.75 267.602L225.78 267.573L240.823 282.644V252.488ZM290.201 252.512L290.177 252.488V282.644L305.214 267.578L305.238 267.602L350.387 222.367L350.352 222.332L395.474 177.124L395.499 177.098L440.675 131.836L500.867 192.142L515.916 177.064L455.718 116.751L455.659 116.81H425.573L380.45 162.02L380.424 162.045L335.301 207.255L335.336 207.29L290.201 252.512ZM325.755 15.0783L340.805 0L355.854 15.0783L355.784 15.1492H355.902L295.741 75.4259L325.851 105.594L310.802 120.672L280.702 90.5157V60.4323L280.654 60.3842L325.803 15.1492H325.826L325.755 15.0783ZM378.493 214.799L363.443 229.877L364.474 230.91L320.311 275.158L320.285 275.183L290.211 305.314L290.305 305.408H290.189V476H311.472V314.17L335.335 290.261L335.36 290.236L380.536 244.974L440.728 305.28L455.777 290.202L395.579 229.888L395.52 229.948H393.471L393.542 229.877L378.493 214.799ZM134.205 229.877L149.255 214.799L164.304 229.877L164.098 230.084L209.086 275.158L209.111 275.183L239.185 305.314L239.091 305.408H239.208V476H217.924V314.17L194.061 290.261L194.036 290.236L148.86 244.974L88.6688 305.28L73.6192 290.202L133.818 229.888L133.877 229.948H134.276L134.205 229.877ZM15.0496 177.11L0 192.188L15.0496 207.266L15.061 207.255V207.266L60.2097 252.501L60.2578 252.453H90.2837L120.383 222.297L105.333 207.218L75.2227 237.386L15.061 177.11V177.121L15.0496 177.11ZM515.928 177.132L515.95 177.11L531 192.188L515.95 207.266L515.928 207.244V207.266L470.779 252.501L470.731 252.453H440.705L410.606 222.297L425.655 207.218L455.766 237.386L515.928 177.11V177.132ZM160.155 90.5157L190.255 60.359L205.304 75.4373L175.205 105.594L160.155 90.5157ZM371.034 90.5157L355.984 105.594L325.885 75.4373L340.935 60.359L371.034 90.5157ZM220.365 120.695L190.266 90.5385L175.216 105.617L205.315 135.773L220.365 120.695ZM310.824 120.695L325.874 135.773L355.973 105.617L340.924 90.5385L310.824 120.695ZM90.2837 161.949L60.1845 192.106L75.2341 207.184L105.333 177.027L90.2837 161.949ZM120.406 222.274L90.3065 192.117L105.356 177.039L135.455 207.195L120.406 222.274ZM118.757 365.639L118.805 365.591H148.831L178.93 335.434L163.88 320.356L133.77 350.524L73.6078 290.247V320.404L118.757 365.639ZM148.831 275.087L118.731 305.243L133.781 320.322L163.88 290.165L148.831 275.087ZM178.952 335.411L148.853 305.255L163.903 290.176L194.002 320.333L178.952 335.411ZM410.64 365.639L455.789 320.404V290.247L395.627 350.524L395.615 350.513L365.516 320.356L350.467 335.434L380.566 365.591H410.592L410.64 365.639ZM380.566 275.087L365.516 290.165L395.615 320.322L410.665 305.243L380.566 275.087ZM350.444 335.411L335.394 320.333L365.494 290.176L380.543 305.255L350.444 335.411ZM440.705 161.949L425.655 177.027L455.755 207.184L470.804 192.106L440.705 161.949ZM410.583 222.274L395.533 207.195L425.633 177.039L440.682 192.117L410.583 222.274Z" fill="white" fill-opacity="0.2"/>
</svg>
