<svg xmlns="http://www.w3.org/2000/svg" width="174" height="33" viewBox="0 0 174 33" fill="none"><g clip-path="url(#clip0_4739_24620)"><path fill-rule="evenodd" clip-rule="evenodd" d="M159.124 0.929688H151.85V5.03226H159.124V5.03348C164.999 5.53516 169.607 10.3507 169.607 16.2172C169.607 22.0855 164.999 27.0003 159.124 27.5048H155.979V13.2624H158.075V13.2829C158.097 13.2829 158.118 13.2792 158.142 13.2792C159.877 13.2792 161.285 14.656 161.285 16.3518C161.285 18.048 159.877 19.4248 158.142 19.4248C158.119 19.4248 158.098 19.4211 158.075 19.4211V23.5197C162.128 23.5197 165.413 20.3103 165.413 16.3518C165.413 12.3946 162.128 9.18429 158.075 9.18429H151.785V31.7105H159.124V31.6986C167.355 31.1701 173.866 24.4874 173.866 16.3137C173.866 8.14063 167.355 1.45671 159.124 0.929688Z" fill="white"/><path fill-rule="evenodd" clip-rule="evenodd" d="M116.259 13.6727C111.772 13.6727 111.68 8.65802 111.68 7.40001C111.68 6.12277 111.771 1.10938 116.259 1.10938C120.746 1.10938 120.837 6.1759 120.837 7.40001C120.837 8.65802 120.746 13.6727 116.259 13.6727ZM117.998 7.38353C117.998 5.70659 118.05 3.96157 116.284 3.96157C114.52 3.96157 114.489 5.74995 114.489 7.40978C114.489 8.84275 114.429 10.8019 116.284 10.8019C118.143 10.8019 117.998 8.81527 117.998 7.38353Z" fill="white"/><path fill-rule="evenodd" clip-rule="evenodd" d="M116.259 13.6727C111.772 13.6727 111.68 8.65802 111.68 7.40001C111.68 6.12277 111.771 1.10938 116.259 1.10938C120.746 1.10938 120.837 6.1759 120.837 7.40001C120.837 8.65802 120.746 13.6727 116.259 13.6727ZM117.998 7.38353C117.998 5.70659 118.05 3.96157 116.284 3.96157C114.52 3.96157 114.489 5.74995 114.489 7.40978C114.489 8.84275 114.429 10.8019 116.284 10.8019C118.143 10.8019 117.998 8.81527 117.998 7.38353Z" fill="white"/><path fill-rule="evenodd" clip-rule="evenodd" d="M100.413 32.1365C94.7593 32.1365 94.6445 25.8196 94.6445 24.2355C94.6445 22.6291 94.7593 16.3125 100.413 16.3125C106.065 16.3125 106.18 22.695 106.18 24.2355C106.18 25.8196 106.065 32.1365 100.413 32.1365ZM102.604 24.215C102.604 22.1023 102.67 19.9036 100.446 19.9036C98.2217 19.9036 98.185 22.1576 98.185 24.2483C98.185 26.0525 98.1066 28.5203 100.446 28.5203C102.786 28.5203 102.604 26.0199 102.604 24.215Z" fill="white"/><path fill-rule="evenodd" clip-rule="evenodd" d="M100.413 32.1365C94.7593 32.1365 94.6445 25.8196 94.6445 24.2355C94.6445 22.6291 94.7593 16.3125 100.413 16.3125C106.065 16.3125 106.18 22.695 106.18 24.2355C106.18 25.8196 106.065 32.1365 100.413 32.1365ZM102.604 24.215C102.604 22.1023 102.67 19.9036 100.446 19.9036C98.2217 19.9036 98.185 22.1576 98.185 24.2483C98.185 26.0525 98.1066 28.5203 100.446 28.5203C102.786 28.5203 102.604 26.0199 102.604 24.215Z" fill="white"/><path fill-rule="evenodd" clip-rule="evenodd" d="M124.194 13.5595H121.359L121.376 1.28906H124.212L124.194 13.5595Z" fill="white"/><path d="M111.025 1.25781H108.191V13.571H111.025V1.25781Z" fill="white"/><path d="M97.1439 1.28125H94.3086V13.4604H97.1439V1.28125Z" fill="white"/><path d="M109.724 1.25781H103.91V4.05321H109.724V1.25781Z" fill="white"/><path d="M126.566 10.7656H121.812V13.5613H126.566V10.7656Z" fill="white"/><path d="M148.242 1.22656H145.406V13.5978H148.242V1.22656Z" fill="white"/><path fill-rule="evenodd" clip-rule="evenodd" d="M146.126 3.95225V5.03376C146.152 4.85819 146.169 4.67713 146.169 4.49362C146.169 4.30858 146.152 4.12965 146.126 3.95225ZM144.359 4.04232C143.724 4.04232 143.048 4.5556 143.048 5.33483C143.048 6.11131 143.576 6.85574 144.212 6.85574L144.36 6.87955H145.384C144.841 7.53634 144.058 7.83497 143.199 7.83497C141.558 7.83497 140.227 6.33971 140.227 4.49362C140.227 2.64874 141.527 1.28906 143.169 1.28906C144.637 1.28906 146.043 2.46768 146.282 4.04263L144.359 4.04232Z" fill="white"/><path fill-rule="evenodd" clip-rule="evenodd" d="M146.375 1.28906H143.102L143.114 3.9214H146.385L146.375 1.28906Z" fill="white"/><path d="M146.318 6.84375H142.359V9.59488H146.318V6.84375Z" fill="white"/><path fill-rule="evenodd" clip-rule="evenodd" d="M142.685 11.1475C142.685 11.1475 143.067 10.3902 143.07 10.3661C143.133 9.91356 143.377 9.60028 143.702 9.52608C143.565 8.68334 142.963 7.73526 142.268 7.64396C141.348 7.52152 140.466 8.42166 140.297 9.65433C140.13 10.8861 140.74 11.9829 141.659 12.1053C142.181 12.1737 142.687 11.9121 142.573 12.1063L142.685 11.1475Z" fill="white"/><path fill-rule="evenodd" clip-rule="evenodd" d="M143.116 10.0147L142.638 13.5964H139.727L140.325 9.46875L143.116 10.0147Z" fill="white"/><path d="M148.273 16.3828H144.762V31.8791H148.273V16.3828Z" fill="white"/><path d="M129.816 16.3828H126.305V31.8792H129.816V16.3828Z" fill="white"/><path d="M136.946 16.3828H133.434V31.8791H136.946V16.3828Z" fill="white"/><path fill-rule="evenodd" clip-rule="evenodd" d="M130.077 31.9185H127.586L132.68 16.4219H135.173L130.077 31.9185Z" fill="white"/><path fill-rule="evenodd" clip-rule="evenodd" d="M145.62 19.8441V21.1922C145.652 20.9739 145.673 20.7482 145.673 20.518C145.673 20.2893 145.652 20.0639 145.62 19.8441ZM143.232 19.8117H145.616C145.317 17.8469 143.811 16.3516 141.993 16.3516C139.96 16.3516 138.312 18.2179 138.312 20.5177C138.312 22.8197 139.96 24.6859 141.993 24.6859C143.057 24.6859 144.014 24.1702 144.685 23.3503H143.232V23.3213C142.444 23.3213 141.805 22.5378 141.805 21.5678C141.805 20.598 142.444 19.8117 143.232 19.8117Z" fill="white"/><path d="M145.94 16.3828H141.887V19.8142H145.94V16.3828Z" fill="white"/><path d="M145.858 23.3516H140.957V26.783H145.858V23.3516Z" fill="white"/><path fill-rule="evenodd" clip-rule="evenodd" d="M141.359 28.82C141.359 28.82 141.831 27.8765 141.836 27.8453C141.913 27.2811 142.215 26.8924 142.618 26.7986C142.447 25.7473 141.703 24.566 140.842 24.4512C139.701 24.2997 138.609 25.4219 138.402 26.9583C138.194 28.4936 138.949 29.8627 140.088 30.0154C140.733 30.1018 141.36 29.7742 141.22 30.0169L141.359 28.82Z" fill="white"/><path fill-rule="evenodd" clip-rule="evenodd" d="M141.887 27.4084L141.297 31.8746H137.691L138.431 26.7266L141.887 27.4084Z" fill="white"/><path fill-rule="evenodd" clip-rule="evenodd" d="M139.507 13.5955L136.403 1.28906H133.625L136.715 13.5955H139.507Z" fill="white"/><path fill-rule="evenodd" clip-rule="evenodd" d="M129.109 13.5955L132.222 1.28906H134.999L131.901 13.5955H129.109Z" fill="white"/><path d="M136.638 8.03906H132.305V10.843H136.638V8.03906Z" fill="white"/><path fill-rule="evenodd" clip-rule="evenodd" d="M126.499 1.28125C125.234 1.28125 124.148 2.21529 123.887 3.63971H124.827C125.495 3.63971 126.035 4.17864 126.035 4.84398C126.035 5.50871 125.495 6.04672 124.827 6.04672C124.737 6.04672 124.65 6.03359 124.566 6.01405H124.234C124.703 6.9035 125.524 7.49648 126.465 7.49648C127.927 7.49648 129.11 6.07542 129.11 4.32184C129.11 2.56827 127.961 1.28125 126.499 1.28125Z" fill="white"/><path fill-rule="evenodd" clip-rule="evenodd" d="M126.661 13.5635C125.333 13.5635 124.227 12.1675 123.953 10.726H124.942C125.644 10.726 126.21 10.1809 126.21 9.50675C126.21 8.83439 125.644 8.28844 124.942 8.28844C124.845 8.28844 124.754 8.30157 124.665 8.32202H124.317C124.81 7.42188 125.672 6.82524 126.661 6.82035C128.461 6.81089 129.442 8.57424 129.442 10.3492C129.442 12.1251 128.197 13.5635 126.661 13.5635Z" fill="white"/><path fill-rule="evenodd" clip-rule="evenodd" d="M126.2 1.32031H124.129L124.14 3.6522H126.21L126.2 1.32031Z" fill="white"/><path d="M126.256 6H124.051V8.39082H126.256V6Z" fill="white"/><path d="M106.753 1.26562H103.918V8.6042H106.753V1.26562Z" fill="white"/><path fill-rule="evenodd" clip-rule="evenodd" d="M104.183 4.08594C104.079 4.08594 103.977 4.10274 103.875 4.12686V7.85569C103.9 8.04195 103.868 8.34912 103.868 8.54943C103.868 9.82178 103.366 10.7378 102.684 10.7378C102.509 10.7378 102.346 10.6667 102.195 10.5454L102.243 13.4318C102.909 13.797 103.909 13.7152 104.175 13.7152C105.587 13.7152 106.744 11.4947 106.744 8.84194C106.743 6.18883 105.596 4.08594 104.183 4.08594Z" fill="white"/><path d="M101.539 1.26562H94.2969V4.0372H101.539V1.26562Z" fill="white"/><path d="M101.539 10.8125H94.2969V13.614H101.539V10.8125Z" fill="white"/><path d="M86.9006 10.8047H84.0469V15.1949H86.9006V10.8047Z" fill="white"/><path d="M93.4279 10.8438H90.5742V15.1995H93.4279V10.8438Z" fill="white"/><path d="M101.175 5.92969H94.3359V8.62677H101.175V5.92969Z" fill="white"/><path fill-rule="evenodd" clip-rule="evenodd" d="M92.708 10.8449V1.28125L85.7858 1.29835L85.7979 4.07207V6.89526H85.7907C85.7858 7.32976 85.7226 7.83113 85.5951 8.35724C85.4104 9.11448 85.1279 10.411 84.8272 10.8452H84.0742V13.5936H93.4321V10.8452L92.708 10.8449ZM89.8727 10.8449H87.6134C87.8603 10.3792 87.9568 9.37586 88.1244 8.69036C88.2 8.38319 88.3493 7.31022 88.3602 6.71847H88.3654V4.07177H89.8727V10.8449Z" fill="white"/><path fill-rule="evenodd" clip-rule="evenodd" d="M115.379 27.2309C114.738 27.5936 113.898 27.8168 113.39 27.8168C111.897 27.8168 110.689 26.0837 110.689 23.9494C110.689 21.8132 111.897 20.0822 113.39 20.0822C113.977 20.0822 114.733 20.2645 115.379 20.6376V16.7827C114.608 16.3736 113.597 16.1479 112.265 16.1565C108.721 16.1778 106.719 19.6792 106.719 24.0239C106.719 28.3689 108.798 31.8916 112.265 31.8916C113.598 31.8916 114.608 31.6467 115.379 31.2147V27.2309Z" fill="white"/><path fill-rule="evenodd" clip-rule="evenodd" d="M124.644 27.2309C124.002 27.5936 123.163 27.8168 122.653 27.8168C121.162 27.8168 119.952 26.0837 119.952 23.9494C119.952 21.8132 121.162 20.0822 122.653 20.0822C123.241 20.0822 123.998 20.2645 124.644 20.6376V16.7827C123.872 16.3736 122.861 16.1479 121.528 16.1565C117.985 16.1778 115.984 19.6792 115.984 24.0239C115.984 28.3689 118.064 31.8916 121.528 31.8916C122.861 31.8916 123.87 31.6467 124.644 31.2147V27.2309Z" fill="white"/><path d="M87.5842 16.3672H84.0742V31.8652H87.5842V16.3672Z" fill="white"/><path d="M90.1587 16.375H85.0938V19.8461H90.1587V16.375Z" fill="white"/><path d="M90.5795 23.3438H85.0938V26.8161H90.5795V23.3438Z" fill="white"/><path fill-rule="evenodd" clip-rule="evenodd" d="M86.7461 20.542C86.7461 20.7713 86.7669 20.9961 86.7986 21.2153V19.8687C86.7669 20.0871 86.7461 20.3118 86.7461 20.542ZM90.6122 21.5899C90.6122 22.5597 89.9727 23.3444 89.1855 23.3444V23.3747H87.733C88.4054 24.1933 89.3603 24.7081 90.4252 24.7081C92.4584 24.7081 94.1053 22.8431 94.1053 20.542C94.1053 18.24 92.4584 16.375 90.4252 16.375C88.6076 16.375 87.101 17.8703 86.8039 19.8351H89.1855C89.9727 19.8351 90.6122 20.6199 90.6122 21.5899Z" fill="white"/><path fill-rule="evenodd" clip-rule="evenodd" d="M86.7945 23.3027V21.9537C86.7615 22.1744 86.7422 22.398 86.7422 22.6294C86.7422 22.8587 86.7615 23.0834 86.7945 23.3027ZM89.1813 23.3354H86.7994C87.0968 25.2987 88.6031 26.7955 90.4211 26.7955C92.453 26.7955 94.1008 24.9292 94.1008 22.6294C94.1008 20.3274 92.453 18.4609 90.4211 18.4609C89.3561 18.4609 88.3997 18.9769 87.7275 19.7971H89.1813V19.8245C89.9673 19.8245 90.6067 20.6108 90.6067 21.5793C90.6067 22.5491 89.9673 23.3354 89.1813 23.3354Z" fill="white"/><path fill-rule="evenodd" clip-rule="evenodd" d="M94.1711 21.5126C94.1711 23.5459 93.5892 25.195 92.8738 25.195C92.1575 25.195 91.5781 23.5459 91.5781 21.5126C91.5781 19.4781 92.1575 17.8281 92.8738 17.8281C93.5892 17.8281 94.1711 19.4781 94.1711 21.5126Z" fill="white"/><path fill-rule="evenodd" clip-rule="evenodd" d="M2.50525 8.44861C0.12993 8.44861 0.0820312 5.70481 0.0820312 5.0184C0.0820312 4.32069 0.12993 1.57812 2.50525 1.57812C4.88088 1.57812 4.92847 4.34971 4.92847 5.0181C4.92847 5.70482 4.88088 8.44861 2.50525 8.44861ZM3.54688 5.0184C3.54688 4.10024 3.43958 2.60926 2.50525 2.60926C1.57123 2.60926 1.46361 4.1097 1.46361 5.0184C1.46361 5.80099 1.52209 7.41625 2.50525 7.41625C3.48841 7.41625 3.54688 5.80099 3.54688 5.0184Z" fill="white"/><path fill-rule="evenodd" clip-rule="evenodd" d="M7.57795 4.33343H8.25911C8.71632 4.33343 9.29079 4.3719 9.73836 4.67786C10.0991 4.92518 10.478 5.39481 10.478 6.33068C10.478 6.94289 10.3131 8.27997 8.21992 8.27997H6.44923C6.27319 8.27997 6.25391 8.17462 6.25391 8.08821V1.9243C6.25391 1.75392 6.36152 1.73438 6.44923 1.73438H9.85561C9.94208 1.73438 10.0012 1.76186 10.0012 1.84002C10.0012 1.84827 10.0012 1.8675 9.98127 1.93467L9.78688 2.61345C9.75764 2.69987 9.71876 2.76582 9.56325 2.76582H7.57764L7.57795 4.33343ZM7.57795 7.2473H7.92879C8.50233 7.2473 9.16513 7.17067 9.16513 6.30167C9.16513 5.41313 8.4451 5.36396 8.02583 5.36396H7.57826L7.57795 7.2473Z" fill="white"/><path fill-rule="evenodd" clip-rule="evenodd" d="M14.6154 1.92522C14.6154 1.75362 14.7234 1.73438 14.8098 1.73438H15.7442C15.9202 1.73438 15.9395 1.84003 15.9395 1.92522V7.24701H17.3015V1.92522C17.3015 1.84003 17.3208 1.73438 17.4959 1.73438H18.4311C18.6059 1.73438 18.6255 1.84003 18.6255 1.92522V7.24701H19.014C19.102 7.24701 19.21 7.26624 19.21 7.43937V9.63692C19.21 9.72334 19.1904 9.82775 19.014 9.82775H18.168C17.9932 9.82775 17.9736 9.72334 17.9736 9.63692V8.2809H12.1241C11.949 8.2809 11.9297 8.17495 11.9297 8.08854V1.92522C11.9297 1.75362 12.0361 1.73438 12.1241 1.73438H13.0581C13.2329 1.73438 13.2525 1.84003 13.2525 1.92522V7.24701H14.6154V1.92522Z" fill="white"/><path fill-rule="evenodd" clip-rule="evenodd" d="M21.7382 7.24701H23.7627C23.8494 7.24701 23.9571 7.26625 23.9571 7.43938V8.08854C23.9571 8.26045 23.8491 8.27938 23.7627 8.27938H20.6085C20.4337 8.27938 20.4141 8.17495 20.4141 8.08854V1.92522C20.4141 1.75362 20.5221 1.73438 20.6085 1.73438H23.9085C23.9474 1.73438 23.9966 1.74292 24.0258 1.7814C24.0553 1.82079 24.0454 1.86781 24.0354 1.90628L23.8414 2.62383C23.8302 2.67086 23.8022 2.76582 23.6554 2.76582H21.7385V4.35238H23.3729C23.549 4.35238 23.5673 4.45802 23.5673 4.54474V5.19389C23.5673 5.3658 23.461 5.38383 23.3729 5.38383H21.7385L21.7382 7.24701Z" fill="white"/><path fill-rule="evenodd" clip-rule="evenodd" d="M26.578 8.08853C26.578 8.17494 26.5587 8.28089 26.3836 8.28089H25.4496C25.2735 8.28089 25.2539 8.17494 25.2539 8.08853V1.92522C25.2539 1.75361 25.3615 1.73438 25.4496 1.73438H27.0451C27.4828 1.73438 28.0865 1.75361 28.5344 2.00216C28.9048 2.20277 29.3228 2.63238 29.3228 3.56C29.3228 4.82137 28.4756 5.66167 27.094 5.66167H26.578V8.08853ZM26.578 4.62931H26.8803C27.4448 4.62931 27.9988 4.5539 27.9988 3.62597C27.9988 2.7475 27.3767 2.73802 27.0063 2.73802H26.5783L26.578 4.62931Z" fill="white"/><path fill-rule="evenodd" clip-rule="evenodd" d="M32.7669 8.44831C30.3925 8.44831 30.3438 5.70451 30.3438 5.0181C30.3438 4.3207 30.3925 1.57812 32.7669 1.57812C35.1425 1.57812 35.1902 4.34971 35.1902 5.0181C35.1902 5.70451 35.1425 8.44831 32.7669 8.44831ZM33.8086 5.0181C33.8086 4.09994 33.7009 2.60896 32.7669 2.60896C31.8329 2.60896 31.7253 4.1094 31.7253 5.0181C31.7253 5.80069 31.7837 7.41595 32.7669 7.41595C33.75 7.41595 33.8086 5.80069 33.8086 5.0181Z" fill="white"/><path fill-rule="evenodd" clip-rule="evenodd" d="M40.2213 7.6938C40.2604 7.76098 40.2701 7.79915 40.2701 7.83763C40.2701 7.9045 40.1917 7.97198 40.1525 7.99946C39.8126 8.27671 39.2185 8.44952 38.6344 8.44952C36.4155 8.44952 36.1328 6.46083 36.1328 5.1042C36.1328 2.15155 37.5741 1.57812 38.6048 1.57812C39.0829 1.57812 39.6757 1.72194 40.0661 2.05568C40.2017 2.16957 40.2505 2.24652 40.2505 2.30515C40.2505 2.35217 40.2213 2.39064 40.2017 2.42759L39.8424 2.96407C39.8129 3.0111 39.7936 3.05903 39.7351 3.05903C39.6664 3.05903 39.5799 2.99186 39.5308 2.95308C39.2776 2.75278 39.0341 2.60987 38.7224 2.60987C38.3912 2.60987 38.1184 2.7253 37.9336 2.91613C37.6416 3.2114 37.5156 3.77567 37.5156 5.03704C37.5156 5.45688 37.5449 6.54694 37.8945 7.01472C38.0413 7.20678 38.3041 7.41595 38.7516 7.41595C39.0244 7.41595 39.2875 7.32954 39.5501 7.17717C39.6468 7.12069 39.7249 7.06266 39.7933 7.06266C39.8704 7.06266 39.89 7.10969 39.9189 7.15763L40.2213 7.6938Z" fill="white"/><path fill-rule="evenodd" clip-rule="evenodd" d="M45.0299 7.6938C45.069 7.76098 45.079 7.79915 45.079 7.83763C45.079 7.9045 45.0006 7.97198 44.9614 7.99946C44.6215 8.27671 44.0274 8.44952 43.4427 8.44952C41.2241 8.44952 40.9414 6.46083 40.9414 5.1042C40.9414 2.15155 42.3814 1.57812 43.4134 1.57812C43.8912 1.57812 44.4843 1.72194 44.8731 2.05568C45.0099 2.16957 45.0588 2.24652 45.0588 2.30515C45.0588 2.35217 45.0292 2.39064 45.0099 2.42759L44.6491 2.96407C44.6212 3.0111 44.6016 3.05903 44.5428 3.05903C44.4747 3.05903 44.3876 2.99186 44.3387 2.95308C44.0859 2.75278 43.8423 2.60987 43.5304 2.60987C43.1991 2.60987 42.9267 2.7253 42.7419 2.91613C42.4499 3.2114 42.3239 3.77567 42.3239 5.03704C42.3239 5.45688 42.3531 6.54694 42.7027 7.01472C42.8492 7.20678 43.1124 7.41595 43.5599 7.41595C43.8327 7.41595 44.0952 7.32954 44.3583 7.17717C44.4548 7.12069 44.5331 7.06266 44.6016 7.06266C44.6784 7.06266 44.698 7.10969 44.7275 7.15763L45.0299 7.6938Z" fill="white"/><path fill-rule="evenodd" clip-rule="evenodd" d="M50.5103 1.73438C50.6851 1.73438 50.7047 1.84003 50.7047 1.92522V8.08854C50.7047 8.17495 50.6851 8.27938 50.5103 8.27938H49.5762C49.4002 8.27938 49.3818 8.17495 49.3818 8.08854V5.04948C49.3818 4.79146 49.4002 4.33283 49.4198 3.99909H49.3818C49.1371 4.66779 48.9819 4.97375 48.8363 5.27971L47.4926 8.11724C47.4438 8.22259 47.4146 8.27907 47.269 8.27907H46.335C46.159 8.27907 46.1406 8.17464 46.1406 8.08823V1.92522C46.1406 1.75362 46.247 1.73438 46.335 1.73438H47.269C47.4438 1.73438 47.4634 1.84003 47.4634 1.92522V4.67727C47.4634 5.12642 47.4438 4.92581 47.4242 6.01436H47.4634C47.6199 5.63299 47.9598 4.84916 48.1063 4.53344L49.3327 1.93468C49.3915 1.81102 49.4095 1.73438 49.5859 1.73438H50.5103Z" fill="white"/><path fill-rule="evenodd" clip-rule="evenodd" d="M56.8087 1.7344C56.9835 1.7344 57.0028 1.84005 57.0028 1.92524V8.08856C57.0028 8.17497 56.9835 8.27939 56.8087 8.27939H55.8744C55.6983 8.27939 55.6787 8.17497 55.6787 8.08856V5.04949C55.6787 4.79148 55.698 4.33286 55.7179 3.99912H55.6787C55.4355 4.66782 55.2803 4.97377 55.1347 5.27972L53.7911 8.11726C53.7423 8.2226 53.7127 8.27909 53.5672 8.27909H52.6331C52.4571 8.27909 52.4375 8.17466 52.4375 8.08825V1.92524C52.4375 1.75364 52.5451 1.7344 52.6331 1.7344H53.5672C53.7423 1.7344 53.7615 1.84005 53.7615 1.92524V4.67728C53.7615 5.12644 53.7423 4.92583 53.7224 6.01437H53.7615C53.9168 5.633 54.2583 4.84919 54.4035 4.53347L55.6311 1.93471C55.6887 1.81104 55.7086 1.7344 55.8846 1.7344H56.8087ZM56.1079 0.186015C56.1459 0.186015 56.2047 0.224488 56.2047 0.31945C56.2047 0.463265 56.1655 0.644638 56.0103 0.855934C55.7966 1.13196 55.4175 1.40921 54.7251 1.40921C54.0343 1.40921 53.6552 1.13196 53.4415 0.855934C53.2851 0.644638 53.2459 0.463265 53.2459 0.31945C53.2459 0.224488 53.3043 0.186015 53.3435 0.186015L53.9758 0.120062C54.0051 0.120062 54.0346 0.109375 54.0639 0.109375C54.1519 0.109375 54.1603 0.224488 54.1911 0.3109C54.2679 0.539295 54.4331 0.692577 54.7251 0.692577C55.0172 0.692577 55.1836 0.539295 55.2604 0.3109C55.2899 0.234259 55.2996 0.158535 55.3388 0.128611C55.3876 0.0913595 55.4268 0.120062 55.4747 0.120062L56.1079 0.186015Z" fill="white"/><path fill-rule="evenodd" clip-rule="evenodd" d="M62.4323 7.6938C62.4715 7.76098 62.4811 7.79915 62.4811 7.83763C62.4811 7.9045 62.4026 7.97198 62.3634 7.99946C62.0238 8.27671 61.4295 8.44952 60.8463 8.44952C58.6262 8.44952 58.3438 6.46083 58.3438 5.1042C58.3438 2.15155 59.7841 1.57812 60.8158 1.57812C61.2926 1.57812 61.8867 1.72194 62.2771 2.05568C62.4127 2.16957 62.4618 2.24652 62.4618 2.30515C62.4618 2.35217 62.4323 2.39064 62.4127 2.42759L62.0522 2.96407C62.0242 3.0111 62.0043 3.05903 61.9458 3.05903C61.8771 3.05903 61.7905 2.99186 61.7417 2.95308C61.4882 2.75278 61.2451 2.60987 60.9337 2.60987C60.6025 2.60987 60.3297 2.7253 60.145 2.91613C59.8529 3.2114 59.7269 3.77567 59.7269 5.03704C59.7269 5.45688 59.7565 6.54694 60.1058 7.01472C60.2529 7.20678 60.5154 7.41595 60.9627 7.41595C61.2354 7.41595 61.4986 7.32954 61.7611 7.17717C61.8578 7.12069 61.9361 7.06266 62.0042 7.06266C62.081 7.06266 62.101 7.10969 62.13 7.15763L62.4323 7.6938Z" fill="white"/><path fill-rule="evenodd" clip-rule="evenodd" d="M63.7374 8.28617C63.6398 8.28617 63.543 8.27671 63.543 8.09442V1.93079C63.543 1.74942 63.6398 1.74088 63.7374 1.74088H64.6715C64.7691 1.74088 64.8659 1.74942 64.8659 1.93079V4.36863H65.1971C65.6643 4.36863 65.9171 4.23428 66.0247 3.65078L66.1703 2.83948C66.239 2.44712 66.3268 2.07492 66.7647 1.81691C67.0471 1.645 67.397 1.57812 67.5914 1.57812C67.6695 1.57812 67.7478 1.59705 67.7771 1.69201L67.9811 2.37109C68.0107 2.46727 67.9715 2.55246 67.8835 2.5717L67.6402 2.62911C67.4163 2.68652 67.2906 2.76223 67.2122 3.24009L67.0947 3.91917C67.0275 4.30085 66.8627 4.66483 66.3367 4.84589V4.87337C67.0471 5.09414 67.1731 5.70512 67.2119 5.88772L67.3671 6.69077C67.4552 7.1384 67.504 7.26327 67.7961 7.32922L68.0492 7.38663C68.1755 7.41564 68.1656 7.52099 68.146 7.57839L67.8928 8.3048C67.8632 8.38052 67.844 8.44769 67.6791 8.44769C67.5727 8.44769 67.0079 8.41868 66.6667 8.13288C66.3644 7.87365 66.3171 7.49197 66.258 7.18694L66.0244 6.03977C65.966 5.75305 65.8876 5.40009 65.2848 5.40009H64.8655V8.0935C64.8655 8.27579 64.7688 8.28526 64.6711 8.28526L63.7374 8.28617Z" fill="white"/><path fill-rule="evenodd" clip-rule="evenodd" d="M71.6719 1.73438C71.7696 1.73438 71.7895 1.79208 71.8187 1.88674L73.726 8.05007C73.7356 8.08854 73.7555 8.11755 73.7555 8.16549C73.7555 8.26991 73.6479 8.27938 73.5987 8.27938H72.5192C72.4016 8.27938 72.3727 8.2699 72.3136 8.07907L71.8859 6.53068H70.212L69.8132 8.07907C69.774 8.23143 69.7644 8.27938 69.6372 8.27938H68.5968C68.3912 8.27938 68.4304 8.14625 68.4503 8.08854L70.3871 1.8785C70.416 1.79208 70.4259 1.73438 70.5532 1.73438H71.6719ZM71.2443 4.02689C71.1755 3.74017 71.1071 3.4162 71.0303 2.75727H71.0007C70.9911 3.01528 70.9618 3.36827 70.7867 4.02689L70.3588 5.67114H71.6427L71.2443 4.02689Z" fill="white"/><path fill-rule="evenodd" clip-rule="evenodd" d="M78.4437 1.73438C78.5402 1.73438 78.6381 1.74293 78.6381 1.92522V8.08854C78.6381 8.26991 78.5398 8.27938 78.4437 8.27938H77.5094C77.3237 8.27938 77.3141 8.18472 77.3141 8.08854V5.60398H76.8861C76.2824 5.60398 76.2152 5.95816 76.1465 6.24488L75.9225 7.24701C75.8544 7.56273 75.7773 7.90594 75.5145 8.12671C75.2809 8.32701 74.8324 8.44242 74.5301 8.44242C74.3357 8.44242 74.3173 8.37524 74.2868 8.2986L74.0349 7.57221C74.0156 7.5148 74.0057 7.41038 74.1316 7.38045L74.3845 7.32396C74.6181 7.26656 74.7157 7.18106 74.8221 6.68427L74.9297 6.20518C75.0265 5.75755 75.1926 5.33618 75.7278 5.0974V5.07847C75.4065 4.99298 75.0554 4.79177 74.8514 4.50597C74.657 4.23818 74.5786 3.85559 74.5786 3.56857C74.5786 3.05253 74.7842 2.52674 75.1534 2.21193C75.679 1.75361 76.4581 1.73438 76.8466 1.73438H78.4437ZM77.3138 2.76551H76.8273C76.0289 2.76551 75.8933 3.28277 75.8933 3.67391C75.8933 4.56337 76.6721 4.57162 76.8466 4.57162H77.3138V2.76551Z" fill="white"/><path fill-rule="evenodd" clip-rule="evenodd" d="M14.4662 19.956C12.0909 19.956 12.043 17.2135 12.043 16.5258C12.043 15.8284 12.0909 13.0859 14.4662 13.0859C16.8406 13.0859 16.8895 15.8574 16.8895 16.5258C16.8895 17.2135 16.8406 19.956 14.4662 19.956ZM15.5079 16.5258C15.5079 15.6086 15.4 14.1179 14.4662 14.1179C13.5322 14.1179 13.4243 15.6184 13.4243 16.5258C13.4243 17.3093 13.4834 18.9252 14.4662 18.9252C15.4491 18.9252 15.5079 17.3093 15.5079 16.5258Z" fill="white"/><path fill-rule="evenodd" clip-rule="evenodd" d="M19.5389 15.8497H20.2197C20.6772 15.8497 21.2517 15.8881 21.6993 16.1929C22.0601 16.4417 22.4389 16.9107 22.4389 17.8472C22.4389 18.4579 22.2741 19.795 20.1805 19.795H18.4092C18.2341 19.795 18.2148 19.6906 18.2148 19.6041V13.4408C18.2148 13.2692 18.3221 13.25 18.4092 13.25H21.8168C21.9049 13.25 21.9621 13.279 21.9621 13.3559C21.9621 13.3654 21.9621 13.3846 21.9428 13.4518L21.7484 14.13C21.7189 14.2155 21.6797 14.2823 21.5245 14.2823H19.5389V15.8497ZM19.5389 18.7641H19.8885C20.4632 18.7641 21.1257 18.6872 21.1257 17.817C21.1257 16.93 20.4045 16.8811 19.9861 16.8811H19.5386L19.5389 18.7641Z" fill="white"/><path fill-rule="evenodd" clip-rule="evenodd" d="M26.5763 13.4423C26.5763 13.2695 26.6843 13.25 26.7707 13.25H27.706C27.8808 13.25 27.9004 13.3559 27.9004 13.4423V18.7641H29.2624V13.4423C29.2624 13.3559 29.2817 13.25 29.4577 13.25H30.3917C30.5668 13.25 30.5861 13.3559 30.5861 13.4423V18.7641H30.9764C31.0629 18.7641 31.1708 18.7831 31.1708 18.9559V21.1538C31.1708 21.2389 31.1512 21.3446 30.9764 21.3446H30.1292C29.9532 21.3446 29.9348 21.2386 29.9348 21.1538V19.7962H24.085C23.9099 19.7962 23.8906 19.6918 23.8906 19.6054V13.4423C23.8906 13.2695 23.9979 13.25 24.085 13.25H25.019C25.1951 13.25 25.2146 13.3559 25.2146 13.4423V18.7641H26.5766L26.5763 13.4423Z" fill="white"/><path fill-rule="evenodd" clip-rule="evenodd" d="M33.702 18.7641H35.7265C35.8146 18.7641 35.9206 18.7831 35.9206 18.9559V19.6054C35.9206 19.777 35.8146 19.795 35.7265 19.795H32.573C32.397 19.795 32.3789 19.6918 32.3789 19.6054V13.4423C32.3789 13.2695 32.485 13.25 32.573 13.25H35.873C35.911 13.25 35.9598 13.2594 35.989 13.2979C36.0186 13.3364 36.0083 13.3843 35.9987 13.4228L35.8043 14.1394C35.7946 14.1874 35.7651 14.2823 35.6186 14.2823H33.7017V15.8692H35.3374C35.5122 15.8692 35.5318 15.9736 35.5318 16.06V16.7104C35.5318 16.882 35.4242 16.9 35.3374 16.9H33.7017L33.702 18.7641Z" fill="white"/><path fill-rule="evenodd" clip-rule="evenodd" d="M40.9127 19.2025C40.9519 19.27 40.9615 19.3078 40.9615 19.3463C40.9615 19.4123 40.8831 19.4797 40.8439 19.5084C40.5043 19.7854 39.9099 19.9573 39.3258 19.9573C37.1066 19.9573 36.8242 17.9683 36.8242 16.6123C36.8242 13.6609 38.2646 13.0859 39.2963 13.0859C39.7731 13.0859 40.3674 13.2303 40.7559 13.565C40.8928 13.6789 40.9419 13.7558 40.9419 13.8132C40.9419 13.8612 40.9124 13.8996 40.8928 13.9369L40.5323 14.4721C40.5043 14.5201 40.4844 14.5671 40.4259 14.5671C40.3572 14.5671 40.2707 14.5012 40.2219 14.4627C39.9684 14.2621 39.7252 14.1192 39.4135 14.1192C39.0823 14.1192 38.8095 14.2331 38.6247 14.4251C38.3327 14.7204 38.2067 15.2847 38.2067 16.546C38.2067 16.9662 38.2363 18.0547 38.5859 18.524C38.7324 18.7149 38.9952 18.9249 39.4431 18.9249C39.7155 18.9249 39.9783 18.8385 40.2412 18.6862C40.3379 18.6297 40.4163 18.5707 40.4844 18.5707C40.5612 18.5707 40.5811 18.6187 40.6107 18.6669L40.9127 19.2025Z" fill="white"/><path fill-rule="evenodd" clip-rule="evenodd" d="M43.854 19.5973C43.854 19.7692 43.7466 19.7881 43.6596 19.7881H42.7246C42.5495 19.7881 42.5302 19.6837 42.5302 19.5973V14.3894H41.2354C41.0898 14.3894 41.0898 14.284 41.0898 14.2456V13.386C41.0898 13.3475 41.0898 13.2422 41.2354 13.2422H45.3727C45.5671 13.2422 45.5183 13.3766 45.4984 13.4437L45.2847 14.2373C45.2455 14.3707 45.1584 14.3897 45.0806 14.3897H43.8543L43.854 19.5973Z" fill="white"/><path fill-rule="evenodd" clip-rule="evenodd" d="M47.9004 13.25C48.3773 13.25 49.0973 13.2692 49.5741 13.6231C49.8662 13.843 50.1685 14.2726 50.1685 14.9233C50.1685 15.7538 49.6621 16.1654 49.1757 16.3657C49.5645 16.4606 50.3921 16.7953 50.3921 17.9895C50.3921 19.6133 49.0388 19.7947 47.9785 19.7947H46.3624C46.1873 19.7947 46.168 19.6915 46.168 19.6051V13.4423C46.168 13.2695 46.2744 13.25 46.3624 13.25H47.9004ZM47.7925 15.9541C48.2597 15.9541 48.8538 15.8594 48.8538 15.0561C48.8538 14.7984 48.795 14.253 47.9004 14.253H47.4908V15.9538L47.7925 15.9541ZM47.8417 18.7925C48.4161 18.7925 49.0777 18.7159 49.0777 17.8851C49.0777 16.9574 48.2413 16.9574 47.8613 16.9574H47.4908V18.7925H47.8417Z" fill="white"/><path fill-rule="evenodd" clip-rule="evenodd" d="M53.1678 18.7641H55.1926C55.2791 18.7641 55.387 18.7831 55.387 18.9559V19.6054C55.387 19.777 55.2791 19.795 55.1926 19.795H52.0381C51.8637 19.795 51.8438 19.6918 51.8438 19.6054V13.4423C51.8438 13.2695 51.9514 13.25 52.0381 13.25H55.3382C55.3773 13.25 55.4262 13.2594 55.4551 13.2979C55.4846 13.3364 55.4749 13.3843 55.465 13.4228L55.2706 14.1394C55.2606 14.1874 55.2315 14.2823 55.0847 14.2823H53.1678V15.8692H54.8022C54.9783 15.8692 54.9966 15.9736 54.9966 16.06V16.7104C54.9966 16.882 54.8903 16.9 54.8022 16.9H53.1678V18.7641Z" fill="white"/><path fill-rule="evenodd" clip-rule="evenodd" d="M56.6797 13.4423C56.6797 13.261 56.7774 13.25 56.8741 13.25H57.8082C57.9058 13.25 58.0035 13.261 58.0035 13.4423V15.8787H59.8426V13.4423C59.8426 13.261 59.9403 13.25 60.0379 13.25H60.9722C61.1567 13.25 61.1666 13.3474 61.1666 13.4423V19.6057C61.1666 19.7003 61.1567 19.7965 60.9722 19.7965H60.0379C59.9403 19.7965 59.8426 19.7867 59.8426 19.6057V16.911H58.0035V19.6057C58.0035 19.7867 57.9058 19.7965 57.8082 19.7965H56.8741C56.7774 19.7965 56.6797 19.7867 56.6797 19.6057V13.4423Z" fill="white"/><path fill-rule="evenodd" clip-rule="evenodd" d="M62.9023 13.4423C62.9023 13.261 63.0003 13.25 63.0967 13.25H64.0323C64.129 13.25 64.2266 13.261 64.2266 13.4423V15.8787H66.0655V13.4423C66.0655 13.261 66.1631 13.25 66.2608 13.25H67.1951C67.3795 13.25 67.3892 13.3474 67.3892 13.4423V19.6057C67.3892 19.7003 67.3795 19.7965 67.1951 19.7965H66.2608C66.1631 19.7965 66.0655 19.7867 66.0655 19.6057V16.911H64.2266V19.6057C64.2266 19.7867 64.129 19.7965 64.0323 19.7965H63.0967C63.0003 19.7965 62.9023 19.7867 62.9023 19.6057V13.4423Z" fill="white"/><path fill-rule="evenodd" clip-rule="evenodd" d="M71.6719 13.2503C71.7696 13.2503 71.7895 13.3092 71.8187 13.4042L73.726 19.5675C73.7356 19.606 73.7555 19.6335 73.7555 19.6814C73.7555 19.7867 73.6479 19.7953 73.5987 19.7953H72.5192C72.4016 19.7953 72.3727 19.7867 72.3136 19.595L71.8859 18.0478H70.212L69.8132 19.595C69.774 19.7489 69.7644 19.7953 69.6372 19.7953H68.5968C68.3912 19.7953 68.4304 19.6622 68.4503 19.6057L70.3871 13.3944C70.416 13.3089 70.4259 13.25 70.5532 13.25L71.6719 13.2503ZM71.2443 15.544C71.1755 15.2573 71.1071 14.9321 71.0303 14.2729H71.0007C70.9911 14.5309 70.9618 14.8851 70.7867 15.544L70.3588 17.1883H71.6427L71.2443 15.544Z" fill="white"/><path fill-rule="evenodd" clip-rule="evenodd" d="M78.4437 13.25C78.5402 13.25 78.6381 13.2594 78.6381 13.4423V19.6057C78.6381 19.7867 78.5398 19.7953 78.4437 19.7953H77.5094C77.3237 19.7953 77.3141 19.7003 77.3141 19.6057V17.1211H76.8861C76.2824 17.1211 76.2152 17.4738 76.1465 17.7611L75.9225 18.7644C75.8544 19.0802 75.7773 19.4234 75.5145 19.6429C75.2809 19.8447 74.8324 19.9586 74.5301 19.9586C74.3357 19.9586 74.3173 19.8912 74.2868 19.8148L74.0349 19.0899C74.0156 19.0322 74.0057 18.9281 74.1316 18.8979L74.3845 18.8417C74.6181 18.784 74.7157 18.6976 74.8221 18.2008L74.9297 17.7232C75.0265 17.2753 75.1926 16.8527 75.7278 16.6139V16.5959C75.4065 16.5095 75.0554 16.3092 74.8514 16.0222C74.657 15.7544 74.5786 15.3727 74.5786 15.0857C74.5786 14.5697 74.7842 14.0439 75.1534 13.7297C75.679 13.2698 76.4581 13.2506 76.8466 13.2506L78.4437 13.25ZM77.3138 14.2823H76.8273C76.0289 14.2823 75.8933 14.7987 75.8933 15.191C75.8933 16.079 76.6721 16.0884 76.8466 16.0884H77.3138V14.2823Z" fill="white"/><path fill-rule="evenodd" clip-rule="evenodd" d="M20.4819 31.4639C18.1062 31.4639 18.0586 28.7214 18.0586 28.0333C18.0586 27.3363 18.1062 24.5938 20.4819 24.5938C22.8563 24.5938 22.9051 27.365 22.9051 28.0333C22.9051 28.7214 22.8563 31.4639 20.4819 31.4639ZM21.5232 28.0333C21.5232 27.1155 21.4159 25.6261 20.4819 25.6261C19.5479 25.6261 19.4402 27.1262 19.4402 28.0333C19.4402 28.8171 19.4987 30.4316 20.4819 30.4316C21.4647 30.4316 21.5232 28.8171 21.5232 28.0333Z" fill="white"/><path fill-rule="evenodd" clip-rule="evenodd" d="M25.5659 31.1119C25.5659 31.1983 25.5467 31.3043 25.3716 31.3043H24.4375C24.2615 31.3043 24.2422 31.1983 24.2422 31.1119V24.9498C24.2422 24.777 24.3495 24.7578 24.4375 24.7578H26.0331C26.472 24.7578 27.0744 24.7767 27.5223 25.0265C27.8928 25.2268 28.3108 25.6567 28.3108 26.5834C28.3108 27.8448 27.4648 28.686 26.0819 28.686H25.5659V31.1119ZM25.5659 27.653H25.8683C26.4319 27.653 26.9867 27.5776 26.9867 26.6506C26.9867 25.7706 26.3647 25.7611 25.9942 25.7611H25.5663L25.5659 27.653Z" fill="white"/><path fill-rule="evenodd" clip-rule="evenodd" d="M29.7305 24.9498C29.7305 24.777 29.8384 24.7578 29.9249 24.7578H33.2249C33.3521 24.7578 33.3801 24.8152 33.3801 24.8741C33.3801 24.8921 33.3714 24.9113 33.3618 24.9581L33.1658 25.7513C33.1378 25.8857 33.0302 25.9052 32.9425 25.9052H31.0545V31.1119C31.0545 31.1983 31.0349 31.3043 30.8601 31.3043H29.9249C29.7501 31.3043 29.7305 31.1983 29.7305 31.1119V24.9498Z" fill="white"/><path fill-rule="evenodd" clip-rule="evenodd" d="M36.1524 24.7578C36.2491 24.7578 36.2699 24.8152 36.2979 24.9114L38.2064 31.0735C38.216 31.112 38.2359 31.1407 38.2359 31.1886C38.2359 31.293 38.128 31.3031 38.0792 31.3031H36.9996C36.882 31.3031 36.8531 31.2933 36.794 31.1022L36.3664 29.5541H34.6924L34.2927 31.1022C34.2535 31.2546 34.2448 31.3031 34.1176 31.3031H33.076C32.8716 31.3031 32.9111 31.1697 32.9307 31.1123L34.8672 24.9019C34.8964 24.8155 34.9061 24.7581 35.032 24.7581L36.1524 24.7578ZM35.7247 27.0503C35.656 26.7645 35.5875 26.4393 35.5107 25.7801H35.4815C35.4715 26.0381 35.4423 26.392 35.2675 27.0503L34.8383 28.6946H36.1234L35.7247 27.0503Z" fill="white"/><path fill-rule="evenodd" clip-rule="evenodd" d="M39.2773 24.9498C39.2773 24.7688 39.3741 24.7578 39.4717 24.7578H40.4057C40.5037 24.7578 40.6017 24.7688 40.6017 24.9498V27.3864H42.4405V24.9498C42.4405 24.7688 42.5381 24.7578 42.6349 24.7578H43.5698C43.7546 24.7578 43.7642 24.8536 43.7642 24.9498V31.1122C43.7642 31.2081 43.7546 31.3046 43.5698 31.3046H42.6349C42.5381 31.3046 42.4405 31.2936 42.4405 31.1122V28.4176H40.6017V31.1122C40.6017 31.2936 40.504 31.3046 40.4057 31.3046H39.4717C39.3741 31.3046 39.2773 31.2936 39.2773 31.1122V24.9498Z" fill="white"/><path fill-rule="evenodd" clip-rule="evenodd" d="M49.8666 24.7581C50.0418 24.7581 50.061 24.8635 50.061 24.9499V31.1123C50.061 31.1987 50.0418 31.3031 49.8666 31.3031H48.9326C48.7566 31.3031 48.7382 31.1987 48.7382 31.1123V28.0745C48.7382 27.8152 48.7566 27.3566 48.7762 27.0229H48.7382C48.4938 27.6916 48.3386 27.9975 48.193 28.3038L46.8494 31.141C46.8005 31.2466 46.771 31.3034 46.6254 31.3034H45.6914C45.5154 31.3034 45.4961 31.199 45.4961 31.1126V24.9499C45.4961 24.7771 45.6037 24.7581 45.6914 24.7581H46.6254C46.8005 24.7581 46.8198 24.8635 46.8198 24.9499V27.701C46.8198 28.1511 46.8005 27.9493 46.7806 29.039H46.8198C46.975 28.6561 47.3162 27.8723 47.4618 27.5581L48.6894 24.9584C48.7479 24.8345 48.7662 24.7578 48.9423 24.7578L49.8666 24.7581Z" fill="white"/><path fill-rule="evenodd" clip-rule="evenodd" d="M52.3674 27.6035C52.3674 27.5171 52.3873 27.4118 52.5618 27.4118H52.7659C53.8078 27.4118 53.8078 26.6582 53.8078 26.4949C53.8078 26.3041 53.759 25.6259 52.913 25.6259C52.7379 25.6259 52.4262 25.6643 52.0458 25.9305C51.969 25.9895 51.9102 26.0273 51.8614 26.0273C51.8222 26.0273 51.783 25.9974 51.7342 25.9305L51.4039 25.4445C51.3746 25.406 51.355 25.3769 51.355 25.3195C51.355 25.1946 51.4919 25.0902 51.6079 25.0243C51.9883 24.7855 52.504 24.5938 53.1559 24.5938C54.3331 24.5938 55.0631 25.225 55.0631 26.334C55.0631 27.3843 54.3331 27.7369 54.0803 27.8328C54.8295 27.9757 55.2771 28.5592 55.2771 29.4487C55.2771 30.4893 54.6647 31.4639 52.9027 31.4639C52.2415 31.4639 51.5787 31.2912 51.2387 31.0149C51.1995 30.9862 51.1211 30.9189 51.1211 30.8517C51.1211 30.8132 51.1311 30.776 51.1703 30.7088L51.4723 30.1733C51.5003 30.1266 51.5199 30.0786 51.5983 30.0786C51.667 30.0786 51.7342 30.1352 51.8415 30.1926C52.0079 30.2884 52.3382 30.4312 52.8343 30.4312C53.1655 30.4312 53.4859 30.3738 53.7304 30.0975C53.9148 29.8877 53.954 29.6381 53.954 29.4485C53.954 28.9599 53.7584 28.7117 53.5543 28.5877C53.3304 28.4534 53.0679 28.4447 52.8439 28.4447H52.5615C52.387 28.4447 52.3671 28.3395 52.3671 28.253L52.3674 27.6035Z" fill="white"/><path fill-rule="evenodd" clip-rule="evenodd" d="M59.2304 24.7578C59.3281 24.7578 59.3474 24.8152 59.3769 24.9114L61.2842 31.0735C61.2941 31.112 61.3137 31.1407 61.3137 31.1886C61.3137 31.293 61.2064 31.3031 61.1573 31.3031H60.0777C59.9604 31.3031 59.9312 31.2933 59.8724 31.1022L59.4444 29.5541H57.7705L57.3721 31.1022C57.3332 31.2546 57.3232 31.3031 57.196 31.3031H56.1544C55.9503 31.3031 55.9889 31.1697 56.0088 31.1123L57.9456 24.9019C57.9751 24.8155 57.9848 24.7581 58.112 24.7581L59.2304 24.7578ZM58.8025 27.0503C58.7337 26.7645 58.6656 26.4393 58.5888 25.7801H58.5592C58.5496 26.0381 58.5201 26.392 58.3453 27.0503L57.9173 28.6946H59.2009L58.8025 27.0503Z" fill="white"/><path fill-rule="evenodd" clip-rule="evenodd" d="M65.3827 30.2714V24.9496C65.3827 24.7768 65.4903 24.7578 65.5771 24.7578H66.5111C66.6872 24.7578 66.7064 24.8632 66.7064 24.9496V30.2714H67.0952C67.1832 30.2714 67.2896 30.2906 67.2896 30.4622V32.6598C67.2896 32.7462 67.27 32.8506 67.0952 32.8506H66.2492C66.0732 32.8506 66.0539 32.7462 66.0539 32.6598V31.3025H62.5499C62.3751 31.3025 62.3555 31.1981 62.3555 31.1117V24.9496C62.3555 24.7768 62.4631 24.7578 62.5499 24.7578H63.4851C63.6599 24.7578 63.6795 24.8632 63.6795 24.9496V30.2714H65.3827Z" fill="white"/><path fill-rule="evenodd" clip-rule="evenodd" d="M72.8658 24.7581C73.0406 24.7581 73.0602 24.8635 73.0602 24.9499V31.1123C73.0602 31.1987 73.0406 31.3031 72.8658 31.3031H71.9318C71.7567 31.3031 71.7374 31.1987 71.7374 31.1123V28.0745C71.7374 27.8152 71.7567 27.3566 71.7766 27.0229H71.7374C71.4941 27.6916 71.3374 27.9975 71.1918 28.3038L69.8482 31.141C69.8006 31.2466 69.7714 31.3034 69.6246 31.3034H68.6905C68.5145 31.3034 68.4961 31.199 68.4961 31.1126V24.9499C68.4961 24.7771 68.6025 24.7581 68.6905 24.7581H69.6246C69.8006 24.7581 69.8189 24.8635 69.8189 24.9499V27.701C69.8189 28.1511 69.8006 27.9493 69.7807 29.039H69.8189C69.9754 28.6561 70.3154 27.8723 70.4618 27.5581L71.6882 24.9584C71.7467 24.8345 71.7663 24.7578 71.9411 24.7578L72.8658 24.7581Z" fill="white"/><path fill-rule="evenodd" clip-rule="evenodd" d="M78.4437 24.7578C78.5402 24.7578 78.6381 24.7676 78.6381 24.9496V31.112C78.6381 31.293 78.5398 31.3028 78.4437 31.3028H77.5094C77.3237 31.3028 77.3141 31.2079 77.3141 31.112V28.6286H76.8861C76.2824 28.6286 76.2152 28.9813 76.1465 29.2683L75.9225 30.2717C75.8544 30.5874 75.7773 30.9294 75.5145 31.1504C75.2809 31.352 74.8324 31.4659 74.5301 31.4659C74.3357 31.4659 74.3173 31.3987 74.2868 31.322L74.0349 30.5959C74.0156 30.5382 74.0057 30.4335 74.1316 30.4051L74.3845 30.3486C74.6181 30.2912 74.7157 30.2048 74.8221 29.7077L74.9297 29.2289C75.0265 28.7813 75.1926 28.3596 75.7278 28.1209V28.1028C75.4065 28.0164 75.0554 27.8149 74.8514 27.5291C74.657 27.2616 74.5786 26.8787 74.5786 26.5932C74.5786 26.0769 74.7842 25.5502 75.1534 25.2357C75.679 24.7771 76.4581 24.7581 76.8466 24.7581L78.4437 24.7578ZM77.3138 25.7887H76.8273C76.0289 25.7887 75.8933 26.3059 75.8933 26.697C75.8933 27.5868 76.6721 27.5951 76.8466 27.5951H77.3138V25.7887Z" fill="white"/></g><defs><clipPath id="clip0_4739_24620"><rect width="174" height="33" fill="white"/></clipPath></defs></svg>