<svg xmlns="http://www.w3.org/2000/svg" width="1314" height="201" viewBox="0 0 1314 201" fill="none"><g clip-path="url(#clip0_4736_24556)"><path d="M1056.55 40.3516V161.672H1082.72V112.112H1138.53V161.672H1164.7V40.3516H1138.53V90.0916H1082.72V40.3516H1056.55Z" fill="white"/><path d="M1223.65 112.742H1239.94L1280.12 161.682H1313.95L1260.39 98.9315L1307.19 40.3516H1277.1L1238.1 92.3515H1223.65V40.3516H1197.46V161.682H1223.65V112.742Z" fill="white"/><path d="M1011.55 161.672H1039.11L988.001 40.3516H961.301L908.961 161.672H935.481L946.001 137.242H1001.64L1011.55 161.672ZM953.831 117.002L974.111 68.2916L993.171 117.002H953.831Z" fill="white"/><path d="M854.212 87.6416H822.352V60.5515H890.822L890.882 40.3516H796.172V161.672H850.832C881.492 161.672 899.082 147.782 899.082 123.562C899.082 100.402 883.142 87.6416 854.212 87.6416ZM849.652 141.472H822.352V107.842H849.652C866.272 107.842 874.012 113.472 874.012 124.662C874.012 136.092 865.812 141.472 849.652 141.472Z" fill="white"/><path d="M587.851 60.5515L615.261 40.3516H523.531V161.682H615.261V141.472H549.711V110.412H605.621V90.2116H549.711V60.5515H587.851Z" fill="white"/><path d="M454.29 87.6416H422.43V60.5515H473.28L500.69 40.3516H396.25V161.682H450.91C481.57 161.682 499.15 147.782 499.15 123.562C499.15 100.402 483.22 87.6416 454.29 87.6416ZM449.73 141.472H422.43V107.842H449.73C466.34 107.842 474.08 113.472 474.08 124.662C474.08 136.092 465.89 141.472 449.73 141.472Z" fill="white"/><path d="M689.581 40.3516H639.641V161.672H665.811V127.312H689.581C721.451 127.312 741.251 110.552 741.251 83.7716C741.251 56.9916 721.451 40.3516 689.581 40.3516ZM689.001 107.112H665.811V60.5515H689.001C705.781 60.5515 715.001 68.8216 715.001 83.8316C715.001 98.8416 705.771 107.112 689.001 107.112Z" fill="white"/><path d="M351.31 135.412C344.373 139.17 336.6 141.117 328.71 141.073C305.11 141.073 287.98 124.223 287.98 101.013C287.98 77.8025 305.11 61.0025 328.71 61.0025C337.24 60.8784 345.586 63.4931 352.52 68.4625L371.3 54.6225L370.06 53.5325C359.06 43.9025 344.45 38.8125 327.7 38.8125C309.53 38.8125 293.04 44.9325 281.27 56.0625C269.5 67.1925 262.91 82.9925 262.91 100.393C262.91 117.793 269.41 133.853 281.21 145.393C293.01 156.933 309.49 163.333 327.53 163.333C346.4 163.333 362.88 156.753 374.06 144.783L357.11 132.292L351.31 135.412Z" fill="white"/><path d="M200.629 100.421C200.63 94.4148 200.095 88.4209 199.029 82.5106L177.499 98.3705C177.499 99.0505 177.499 99.7405 177.499 100.371C177.522 117.578 171.781 134.298 161.191 147.862C150.601 161.425 135.773 171.051 119.074 175.202C102.374 179.353 84.765 177.791 69.057 170.764C53.3491 163.738 40.4475 151.652 32.4112 136.436C24.3749 121.22 21.6672 103.75 24.7201 86.8152C27.773 69.8802 36.4106 54.456 49.2544 43.004C62.0983 31.552 78.408 24.7322 95.5808 23.6332C112.754 22.5342 129.8 27.2192 143.999 36.9406L163.449 22.6006C145.799 8.35808 123.833 0.537858 101.154 0.423155C78.4755 0.308452 56.4312 7.90608 38.6389 21.9693C20.8466 36.0325 8.36302 55.726 3.23668 77.8181C-1.88965 99.9102 0.645758 123.089 10.4269 143.55C20.208 164.012 36.6538 180.541 57.0656 190.425C77.4775 200.309 100.643 202.961 122.761 197.947C144.878 192.932 164.635 180.548 178.787 162.826C192.94 145.105 200.649 123.1 200.649 100.421H200.629Z" fill="white"/><path d="M179.759 39.2812C184.513 45.4224 188.54 52.0935 191.759 59.1613L100.629 126.321L62.5586 102.451V73.7412L100.629 97.6012L179.759 39.2812Z" fill="white"/></g><defs><clipPath id="clip0_4736_24556"><rect width="1314" height="201" fill="white"/></clipPath></defs></svg>