<svg xmlns="http://www.w3.org/2000/svg" width="513" height="121" viewBox="0 0 513 121" fill="none"><g clip-path="url(#clip0_4738_24567)"><path d="M242.26 70.15L254.04 52.88L242.73 36.75H249.08L258.67 50.73H261.53V36.75H267.4V50.73H270.26L279.99 36.75H286.14L274.83 52.54L286.61 70.14H279.98L270.25 55.21H267.39V70.14H261.52V55.21H258.66L248.69 70.14H242.25L242.26 70.15Z" fill="white"/><path d="M292.172 70.15V36.75H314.592V41.57H298.032V50.63H313.152V55.31H298.032V65.33H314.592V70.15H292.172Z" fill="white"/><path d="M321.559 70.15V36.75H327.429V50.49H343.359V36.75H349.229V70.15H343.359V55.46H327.429V70.15H321.559Z" fill="white"/><path d="M394.979 76.3578V70.1578H357.859V36.7578H363.729V65.1878H374.029V36.7578H379.849V65.1878H390.149V36.7578H396.019V65.1878H400.309V76.3478H394.969L394.979 76.3578Z" fill="white"/><path d="M406 70.15V36.75H411.87V60.94L428.04 36.75H433.67V70.15H427.8V45.96L411.63 70.15H406Z" fill="white"/><path d="M442.309 70.15V36.75H448.179V50.49H464.109V36.75H469.979V70.15H464.109V55.46H448.179V70.15H442.309Z" fill="white"/><path d="M478.621 70.15V36.75H484.491V49.34H489.831C492.061 49.34 494.001 49.59 495.651 50.08C497.301 50.57 498.671 51.27 499.751 52.18C500.831 53.09 501.631 54.18 502.161 55.47C502.681 56.76 502.951 58.18 502.951 59.74C502.951 61.3 502.691 62.72 502.161 64.01C501.631 65.3 500.831 66.4 499.751 67.3C498.671 68.21 497.301 68.91 495.651 69.4C494.001 69.89 492.061 70.14 489.831 70.14H478.621V70.15ZM484.481 65.19H489.351C492.151 65.19 494.121 64.71 495.271 63.74C496.421 62.77 496.991 61.44 496.991 59.76C496.991 58.08 496.421 56.75 495.271 55.78C494.131 54.81 492.151 54.32 489.351 54.32H484.481V65.2V65.19ZM507.101 70.15V36.75H512.971V70.15H507.101Z" fill="white"/><path d="M242.559 119.9V86.5H265.219V91.41H248.429V99.43H255.199C257.429 99.43 259.369 99.67 261.019 100.15C262.669 100.63 264.039 101.31 265.119 102.2C266.199 103.09 266.999 104.16 267.529 105.42C268.059 106.68 268.319 108.07 268.319 109.59C268.319 111.11 268.059 112.56 267.529 113.84C267.009 115.11 266.199 116.2 265.119 117.11C264.039 118.02 262.669 118.71 261.019 119.19C259.369 119.67 257.429 119.91 255.199 119.91H242.559V119.9ZM248.429 114.94H254.729C257.529 114.94 259.499 114.47 260.649 113.53C261.789 112.59 262.369 111.28 262.369 109.59C262.369 107.9 261.799 106.54 260.649 105.61C259.499 104.67 257.529 104.2 254.729 104.2H248.429V114.93V114.94Z" fill="white"/><path d="M274.57 119.9V86.5H280.44V110.69L296.61 86.5H302.24V119.9H296.37V95.71L280.2 119.9H274.57Z" fill="white"/><path d="M322.139 120.431C320.069 120.431 318.229 120.181 316.609 119.671C314.989 119.161 313.619 118.451 312.509 117.521C311.399 116.601 310.519 115.491 309.889 114.201C309.249 112.911 308.889 111.471 308.789 109.881H314.709C314.839 110.741 315.079 111.521 315.449 112.221C315.809 112.921 316.309 113.521 316.929 114.011C317.549 114.501 318.289 114.881 319.149 115.131C320.009 115.381 321.009 115.511 322.149 115.511C324.759 115.511 326.639 115.051 327.799 114.131C328.959 113.211 329.539 111.941 329.539 110.311C329.539 109.521 329.409 108.791 329.159 108.141C328.899 107.491 328.479 106.921 327.899 106.451C327.309 105.971 326.539 105.601 325.589 105.331C324.639 105.061 323.489 104.921 322.149 104.921H318.099V100.531H322.149C324.309 100.531 325.889 100.051 326.869 99.1009C327.859 98.1509 328.349 96.9909 328.349 95.6209C328.349 94.2509 327.849 93.1209 326.849 92.2309C325.849 91.3409 324.279 90.8909 322.149 90.8909C321.039 90.8909 320.079 91.0009 319.259 91.2209C318.449 91.4409 317.769 91.7609 317.229 92.1709C316.689 92.5809 316.279 93.1009 315.989 93.7209C315.699 94.3409 315.509 95.0309 315.419 95.7909H309.499C309.599 94.3009 309.929 92.9409 310.499 91.7109C311.069 90.4909 311.879 89.4509 312.909 88.6109C313.939 87.7709 315.229 87.1209 316.769 86.6509C318.309 86.1909 320.099 85.9609 322.139 85.9609C326.209 85.9609 329.259 86.8009 331.279 88.4909C333.299 90.1809 334.309 92.4709 334.309 95.3609C334.309 97.1109 333.819 98.6009 332.859 99.8209C331.889 101.041 330.589 101.931 328.969 102.471C330.969 102.951 332.559 103.861 333.739 105.211C334.919 106.561 335.509 108.331 335.509 110.531C335.509 111.961 335.219 113.281 334.649 114.491C334.079 115.701 333.229 116.741 332.119 117.621C331.009 118.501 329.619 119.181 327.949 119.671C326.279 120.161 324.349 120.411 322.149 120.411L322.139 120.431Z" fill="white"/><path d="M341.891 119.9V86.5H347.761V100.24H363.691V86.5H369.561V119.9H363.691V105.21H347.761V119.9H341.891Z" fill="white"/><path d="M378.199 119.9V86.5H400.619V91.32H384.059V100.38H399.179V105.06H384.059V115.08H400.619V119.9H378.199Z" fill="white"/><path d="M420.23 120.427C418.23 120.427 416.34 120.107 414.58 119.477C412.81 118.837 411.27 117.827 409.95 116.447C408.63 115.067 407.59 113.297 406.82 111.147C406.06 108.997 405.68 106.437 405.68 103.437V102.487C405.68 99.5966 406.07 97.1166 406.85 95.0466C407.63 92.9766 408.69 91.2766 410.02 89.9366C411.36 88.5966 412.91 87.6066 414.67 86.9566C416.44 86.3066 418.29 85.9766 420.23 85.9766C422.17 85.9766 423.78 86.2066 425.36 86.6666C426.94 87.1266 428.32 87.8166 429.51 88.7466C430.7 89.6666 431.67 90.8166 432.42 92.1866C433.17 93.5566 433.64 95.1566 433.83 97.0066H427.68C427.3 94.9366 426.46 93.4266 425.15 92.4766C423.85 91.5266 422.21 91.0466 420.24 91.0466C419.13 91.0466 418.07 91.2566 417.07 91.6666C416.07 92.0766 415.18 92.7366 414.4 93.6266C413.62 94.5166 413 95.6966 412.54 97.1566C412.08 98.6166 411.85 100.397 411.85 102.497V103.447C411.85 105.677 412.1 107.547 412.59 109.057C413.08 110.567 413.73 111.797 414.52 112.727C415.31 113.667 416.22 114.347 417.24 114.757C418.26 115.167 419.26 115.377 420.25 115.377C422.44 115.377 424.17 114.847 425.43 113.777C426.69 112.717 427.44 111.257 427.7 109.407H433.85C433.63 111.377 433.13 113.057 432.37 114.437C431.61 115.817 430.62 116.957 429.41 117.847C428.2 118.737 426.82 119.387 425.26 119.807C423.7 120.217 422.03 120.427 420.25 120.427H420.23Z" fill="white"/><path d="M435.879 119.9L448.429 86.5H454.299L466.899 119.9H460.599L457.739 112.22H444.569L441.709 119.9H435.889H435.879ZM446.369 107.45H455.909L451.139 93.8L446.369 107.45Z" fill="white"/><path d="M242.96 5.21625C243.15 4.75625 243.41 4.34624 243.75 4.00624C244.09 3.66624 244.49 3.39625 244.95 3.19625C245.41 3.00625 245.91 2.90625 246.45 2.90625C246.99 2.90625 247.49 3.00625 247.95 3.19625C248.41 3.38625 248.8 3.65624 249.14 4.00624C249.48 4.35624 249.74 4.75625 249.93 5.21625C250.12 5.67625 250.21 6.18625 250.21 6.72625C250.21 7.26625 250.12 7.76625 249.93 8.23625C249.74 8.70625 249.48 9.10625 249.14 9.44625C248.8 9.78625 248.4 10.0563 247.95 10.2563C247.49 10.4463 246.99 10.5463 246.45 10.5463C245.91 10.5463 245.41 10.4463 244.95 10.2563C244.49 10.0663 244.09 9.79625 243.75 9.44625C243.41 9.10625 243.15 8.69625 242.96 8.23625C242.77 7.76625 242.68 7.26625 242.68 6.72625C242.68 6.18625 242.77 5.67625 242.96 5.21625ZM244 8.22625C244.24 8.66625 244.58 9.00625 245 9.26625C245.42 9.51625 245.91 9.64624 246.44 9.64624C246.97 9.64624 247.47 9.51625 247.89 9.26625C248.31 9.01625 248.64 8.66625 248.89 8.22625C249.13 7.78625 249.26 7.28625 249.26 6.72625C249.26 6.16625 249.14 5.66625 248.89 5.22625C248.65 4.78625 248.31 4.43625 247.89 4.18625C247.47 3.93625 246.99 3.80625 246.44 3.80625C245.89 3.80625 245.42 3.93625 245 4.18625C244.58 4.43625 244.24 4.78625 244 5.22625C243.76 5.66625 243.63 6.16625 243.63 6.72625C243.63 7.28625 243.75 7.78625 244 8.22625Z" fill="white"/><path d="M255.492 3.02344V3.87343H252.412V10.4535H251.512V3.03343H255.492V3.02344ZM252.012 5.99344H253.532C254.012 5.99344 254.442 6.08343 254.822 6.26343C255.202 6.44343 255.502 6.70343 255.722 7.03343C255.942 7.36343 256.052 7.76344 256.052 8.22344C256.052 8.68344 255.942 9.07343 255.722 9.40343C255.502 9.74343 255.202 9.99343 254.822 10.1735C254.442 10.3535 254.012 10.4435 253.532 10.4435H252.012V9.59343H253.532C253.852 9.59343 254.132 9.54344 254.372 9.44344C254.612 9.34344 254.802 9.18343 254.942 8.98343C255.082 8.77343 255.152 8.52344 255.152 8.22344C255.152 7.92344 255.082 7.66344 254.942 7.46344C254.802 7.25344 254.612 7.10343 254.372 7.00343C254.132 6.90343 253.842 6.85344 253.532 6.85344H252.012V6.00343V5.99344Z" fill="white"/><path d="M265.212 3.02344H266.112V9.60344H267.012V11.6135H266.212V10.4435H257.352V3.02344H258.252V9.60344H261.272V3.02344H262.172V9.60344H265.192V3.02344H265.212Z" fill="white"/><path d="M269.22 3.02344V10.4435H268.32V3.02344H269.22ZM268.81 3.02344H272.55V3.87343H268.81V3.02344ZM268.81 5.99344H272.34V6.84343H268.81V5.99344ZM268.81 9.60344H272.55V10.4535H268.81V9.60344Z" fill="white"/><path d="M275.08 3.02344V10.4435H274.18V3.02344H275.08ZM274.68 3.02344H276.2C276.68 3.02344 277.11 3.11343 277.49 3.29343C277.87 3.47343 278.17 3.73343 278.39 4.06343C278.61 4.39343 278.72 4.79343 278.72 5.25343C278.72 5.71343 278.61 6.10343 278.39 6.43343C278.17 6.77343 277.87 7.02343 277.49 7.20343C277.11 7.38343 276.68 7.47344 276.2 7.47344H274.68V6.62343H276.2C276.68 6.62343 277.07 6.50344 277.37 6.27344C277.67 6.04344 277.82 5.69344 277.82 5.24344C277.82 4.79344 277.67 4.44344 277.37 4.21344C277.07 3.98344 276.68 3.87343 276.2 3.87343H274.68V3.02344Z" fill="white"/><path d="M279.882 5.21625C280.072 4.75625 280.332 4.34624 280.672 4.00624C281.012 3.66624 281.412 3.39625 281.872 3.19625C282.332 3.00625 282.832 2.90625 283.372 2.90625C283.912 2.90625 284.412 3.00625 284.872 3.19625C285.332 3.38625 285.722 3.65624 286.062 4.00624C286.402 4.34624 286.662 4.75625 286.852 5.21625C287.042 5.67625 287.132 6.18625 287.132 6.72625C287.132 7.26625 287.042 7.76625 286.852 8.23625C286.662 8.70625 286.402 9.10625 286.062 9.44625C285.722 9.78625 285.322 10.0563 284.872 10.2563C284.412 10.4463 283.912 10.5463 283.372 10.5463C282.832 10.5463 282.332 10.4463 281.872 10.2563C281.412 10.0663 281.012 9.79625 280.672 9.44625C280.332 9.10625 280.072 8.69625 279.882 8.23625C279.692 7.76625 279.602 7.26625 279.602 6.72625C279.602 6.18625 279.692 5.67625 279.882 5.21625ZM280.922 8.22625C281.162 8.66625 281.502 9.00625 281.922 9.26625C282.342 9.51625 282.832 9.64624 283.362 9.64624C283.892 9.64624 284.392 9.51625 284.812 9.26625C285.232 9.01625 285.562 8.66625 285.812 8.22625C286.052 7.78625 286.182 7.28625 286.182 6.72625C286.182 6.16625 286.062 5.66625 285.812 5.22625C285.572 4.78625 285.232 4.43625 284.812 4.18625C284.392 3.93625 283.912 3.80625 283.362 3.80625C282.812 3.80625 282.342 3.93625 281.922 4.18625C281.502 4.43625 281.162 4.78625 280.922 5.22625C280.682 5.66625 280.552 6.16625 280.552 6.72625C280.552 7.28625 280.672 7.78625 280.922 8.22625Z" fill="white"/><path d="M289.348 8.24845C289.608 8.68845 289.948 9.02845 290.358 9.27845C290.778 9.52845 291.228 9.64844 291.718 9.64844C292.068 9.64844 292.398 9.59844 292.688 9.50844C292.978 9.41844 293.248 9.28844 293.488 9.11844C293.728 8.94844 293.938 8.75844 294.098 8.53844V9.72845C293.788 10.0085 293.448 10.2085 293.078 10.3385C292.708 10.4685 292.258 10.5385 291.708 10.5385C291.158 10.5385 290.708 10.4485 290.258 10.2585C289.808 10.0685 289.418 9.80846 289.078 9.45846C288.738 9.11846 288.478 8.70845 288.278 8.24845C288.088 7.77845 287.988 7.26845 287.988 6.71845C287.988 6.16845 288.088 5.65845 288.278 5.18845C288.468 4.71845 288.738 4.31845 289.078 3.97845C289.418 3.63845 289.808 3.36844 290.258 3.17844C290.708 2.98844 291.188 2.89844 291.708 2.89844C292.248 2.89844 292.708 2.96846 293.078 3.09846C293.448 3.22846 293.788 3.43846 294.098 3.70846V4.89844C293.928 4.67844 293.728 4.48846 293.488 4.31846C293.248 4.14846 292.978 4.02844 292.688 3.92844C292.398 3.83844 292.068 3.78844 291.718 3.78844C291.228 3.78844 290.778 3.90845 290.358 4.15845C289.938 4.40845 289.598 4.74844 289.348 5.17844C289.088 5.60844 288.958 6.11845 288.958 6.69845C288.958 7.27845 289.088 7.77845 289.348 8.21845V8.24845Z" fill="white"/><path d="M296.649 8.24845C296.909 8.68845 297.249 9.02845 297.659 9.27845C298.079 9.52845 298.529 9.64844 299.019 9.64844C299.369 9.64844 299.699 9.59844 299.989 9.50844C300.279 9.41844 300.549 9.28844 300.789 9.11844C301.029 8.94844 301.239 8.75844 301.399 8.53844V9.72845C301.089 10.0085 300.749 10.2085 300.379 10.3385C300.009 10.4685 299.559 10.5385 299.009 10.5385C298.459 10.5385 298.009 10.4485 297.559 10.2585C297.109 10.0685 296.719 9.80846 296.379 9.45846C296.039 9.11846 295.779 8.70845 295.579 8.24845C295.389 7.77845 295.289 7.26845 295.289 6.71845C295.289 6.16845 295.379 5.65845 295.579 5.18845C295.769 4.71845 296.039 4.31845 296.379 3.97845C296.719 3.63845 297.109 3.36844 297.559 3.17844C298.009 2.98844 298.489 2.89844 299.009 2.89844C299.549 2.89844 300.009 2.96846 300.379 3.09846C300.749 3.22846 301.089 3.43846 301.399 3.70846V4.89844C301.229 4.67844 301.029 4.48846 300.789 4.31846C300.549 4.14846 300.279 4.02844 299.989 3.92844C299.699 3.83844 299.369 3.78844 299.019 3.78844C298.529 3.78844 298.079 3.90845 297.659 4.15845C297.239 4.40845 296.899 4.74844 296.649 5.17844C296.389 5.60844 296.259 6.11845 296.259 6.69845C296.259 7.27845 296.389 7.77845 296.649 8.21845V8.24845Z" fill="white"/><path d="M303.031 10.8185L303.081 9.43845L309.551 2.64844L309.501 4.02845L303.031 10.8185ZM303.931 9.64844L303.031 10.8185V3.02845H303.931V9.65845V9.64844ZM309.551 10.4485H308.651V3.81846L309.551 2.64844V10.4385V10.4485Z" fill="white"/><path d="M311.281 10.8216L311.331 9.44156L317.801 2.65155L317.751 4.03156L311.281 10.8216ZM312.181 9.65155L311.281 10.8216V3.03156H312.181V9.66156V9.65155ZM313.911 0.851562C313.911 0.941563 313.931 1.05156 313.981 1.17156C314.031 1.29156 314.121 1.40156 314.261 1.50156C314.391 1.60156 314.581 1.64156 314.831 1.64156C315.081 1.64156 315.271 1.59156 315.401 1.50156C315.531 1.40156 315.631 1.30156 315.681 1.17156C315.731 1.05156 315.751 0.941563 315.751 0.851562H316.501C316.501 1.09157 316.441 1.33156 316.311 1.55156C316.191 1.78156 316.001 1.97156 315.751 2.11156C315.501 2.26156 315.191 2.33156 314.821 2.33156C314.451 2.33156 314.141 2.26156 313.891 2.11156C313.641 1.96156 313.451 1.78156 313.331 1.55156C313.211 1.32156 313.141 1.09157 313.141 0.851562H313.891H313.911ZM317.801 10.4516H316.901V3.82157L317.801 2.65155V10.4416V10.4516Z" fill="white"/><path d="M320.45 8.24845C320.71 8.68845 321.05 9.02845 321.46 9.27845C321.88 9.52845 322.33 9.64844 322.82 9.64844C323.17 9.64844 323.5 9.59844 323.79 9.50844C324.08 9.41844 324.35 9.28844 324.59 9.11844C324.83 8.94844 325.04 8.75844 325.2 8.53844V9.72845C324.89 10.0085 324.55 10.2085 324.18 10.3385C323.81 10.4685 323.36 10.5385 322.81 10.5385C322.26 10.5385 321.81 10.4485 321.36 10.2585C320.91 10.0685 320.52 9.80846 320.18 9.45846C319.84 9.11846 319.58 8.70845 319.38 8.24845C319.19 7.77845 319.09 7.26845 319.09 6.71845C319.09 6.16845 319.18 5.65845 319.38 5.18845C319.57 4.71845 319.84 4.31845 320.18 3.97845C320.52 3.63845 320.91 3.36844 321.36 3.17844C321.81 2.98844 322.29 2.89844 322.81 2.89844C323.35 2.89844 323.81 2.96846 324.18 3.09846C324.55 3.22846 324.89 3.43846 325.2 3.70846V4.89844C325.03 4.67844 324.83 4.48846 324.59 4.31846C324.35 4.14846 324.08 4.02844 323.79 3.92844C323.5 3.83844 323.17 3.78844 322.82 3.78844C322.33 3.78844 321.88 3.90845 321.46 4.15845C321.04 4.40845 320.7 4.74844 320.45 5.17844C320.19 5.60844 320.06 6.11845 320.06 6.69845C320.06 7.27845 320.19 7.77845 320.45 8.21845V8.24845Z" fill="white"/><path d="M327.728 3.02344V10.4435H326.828V3.02344H327.728ZM331.758 3.02344L328.548 6.50343L331.918 10.4535H330.808L327.458 6.53343L330.648 3.03343H331.758V3.02344Z" fill="white"/><path d="M334.251 7.64624L334.161 7.83625L333.061 10.4463H332.051L335.501 2.65625L338.951 10.4463H337.941L336.861 7.89624L336.781 7.68625L335.511 4.69625L334.261 7.64624H334.251ZM333.881 7.36624H337.171L337.491 8.21625H333.571L333.891 7.36624H333.881Z" fill="white"/><path d="M340.251 10.4513H339.141L341.791 6.79124H342.801L340.251 10.4513ZM342.111 3.82126C341.791 3.82126 341.511 3.88125 341.271 3.99125C341.031 4.10125 340.831 4.27125 340.701 4.48125C340.561 4.69125 340.491 4.95125 340.491 5.25125C340.491 5.55125 340.561 5.81125 340.701 6.02125C340.841 6.23125 341.031 6.39124 341.271 6.51124C341.511 6.62124 341.791 6.68124 342.111 6.68124H343.631V7.48125H342.111C341.641 7.48125 341.211 7.39126 340.831 7.21126C340.451 7.03126 340.151 6.77125 339.921 6.44125C339.701 6.10125 339.591 5.71124 339.591 5.26124C339.591 4.81124 339.701 4.40126 339.921 4.07126C340.141 3.74126 340.451 3.48125 340.831 3.30125C341.211 3.12125 341.641 3.03125 342.111 3.03125H343.631V3.83125H342.111V3.82126ZM344.121 10.4513H343.221V3.03125H344.121V10.4513Z" fill="white"/><path d="M348.921 5.21625C349.111 4.75625 349.371 4.34624 349.711 4.00624C350.051 3.66624 350.451 3.39625 350.911 3.19625C351.371 3.00625 351.871 2.90625 352.411 2.90625C352.951 2.90625 353.451 3.00625 353.911 3.19625C354.371 3.38625 354.761 3.65624 355.101 4.00624C355.441 4.34624 355.701 4.75625 355.891 5.21625C356.081 5.67625 356.171 6.18625 356.171 6.72625C356.171 7.26625 356.081 7.76625 355.891 8.23625C355.701 8.70625 355.441 9.10625 355.101 9.44625C354.761 9.78625 354.361 10.0563 353.911 10.2563C353.451 10.4463 352.951 10.5463 352.411 10.5463C351.871 10.5463 351.371 10.4463 350.911 10.2563C350.451 10.0663 350.051 9.79625 349.711 9.44625C349.371 9.10625 349.111 8.69625 348.921 8.23625C348.731 7.76625 348.641 7.26625 348.641 6.72625C348.641 6.18625 348.731 5.67625 348.921 5.21625ZM349.961 8.22625C350.201 8.66625 350.541 9.00625 350.961 9.26625C351.381 9.51625 351.871 9.64624 352.401 9.64624C352.931 9.64624 353.431 9.51625 353.851 9.26625C354.271 9.01625 354.601 8.66625 354.851 8.22625C355.091 7.78625 355.221 7.28625 355.221 6.72625C355.221 6.16625 355.101 5.66625 354.851 5.22625C354.611 4.78625 354.271 4.43625 353.851 4.18625C353.431 3.93625 352.951 3.80625 352.401 3.80625C351.851 3.80625 351.381 3.93625 350.961 4.18625C350.541 4.43625 350.201 4.78625 349.961 5.22625C349.721 5.66625 349.591 6.16625 349.591 6.72625C349.591 7.28625 349.711 7.78625 349.961 8.22625Z" fill="white"/><path d="M361.449 3.02344V3.87343H358.369V10.4535H357.469V3.03343H361.449V3.02344ZM357.969 5.99344H359.489C359.969 5.99344 360.399 6.08343 360.779 6.26343C361.159 6.44343 361.459 6.70343 361.679 7.03343C361.899 7.36343 362.009 7.76344 362.009 8.22344C362.009 8.68344 361.899 9.07343 361.679 9.40343C361.459 9.74343 361.159 9.99343 360.779 10.1735C360.399 10.3535 359.969 10.4435 359.489 10.4435H357.969V9.59343H359.489C359.809 9.59343 360.089 9.54344 360.329 9.44344C360.569 9.34344 360.759 9.18343 360.899 8.98343C361.039 8.77343 361.109 8.52344 361.109 8.22344C361.109 7.92344 361.039 7.66344 360.899 7.46344C360.759 7.25344 360.569 7.10343 360.329 7.00343C360.089 6.90343 359.799 6.85344 359.489 6.85344H357.969V6.00343V5.99344Z" fill="white"/><path d="M371.169 3.02344H372.069V9.60344H372.969V11.6135H372.169V10.4435H363.309V3.02344H364.209V9.60344H367.229V3.02344H368.129V9.60344H371.149V3.02344H371.169Z" fill="white"/><path d="M375.17 3.02344V10.4435H374.27V3.02344H375.17ZM374.77 3.02344H378.51V3.87343H374.77V3.02344ZM374.77 5.99344H378.3V6.84343H374.77V5.99344ZM374.77 9.60344H378.51V10.4535H374.77V9.60344Z" fill="white"/><path d="M381.059 8.24845C381.319 8.68845 381.659 9.02845 382.069 9.27845C382.489 9.52845 382.939 9.64844 383.429 9.64844C383.779 9.64844 384.109 9.59844 384.399 9.50844C384.689 9.41844 384.959 9.28844 385.199 9.11844C385.439 8.94844 385.649 8.75844 385.809 8.53844V9.72845C385.499 10.0085 385.159 10.2085 384.789 10.3385C384.419 10.4685 383.969 10.5385 383.419 10.5385C382.869 10.5385 382.419 10.4485 381.969 10.2585C381.519 10.0685 381.129 9.80846 380.789 9.45846C380.449 9.11846 380.189 8.70845 379.989 8.24845C379.799 7.77845 379.699 7.26845 379.699 6.71845C379.699 6.16845 379.789 5.65845 379.989 5.18845C380.179 4.71845 380.449 4.31845 380.789 3.97845C381.129 3.63845 381.519 3.36844 381.969 3.17844C382.419 2.98844 382.899 2.89844 383.419 2.89844C383.959 2.89844 384.419 2.96846 384.789 3.09846C385.159 3.22846 385.499 3.43846 385.809 3.70846V4.89844C385.639 4.67844 385.439 4.48846 385.199 4.31846C384.959 4.14846 384.689 4.02844 384.399 3.92844C384.109 3.83844 383.779 3.78844 383.429 3.78844C382.939 3.78844 382.489 3.90845 382.069 4.15845C381.649 4.40845 381.309 4.74844 381.059 5.17844C380.799 5.60844 380.669 6.11845 380.669 6.69845C380.669 7.27845 380.799 7.77845 381.059 8.21845V8.24845Z" fill="white"/><path d="M386.691 3.02344H391.411V3.87343H389.501V10.4535H388.601V3.87343H386.691V3.02344Z" fill="white"/><path d="M393.11 6.02125H394.31C394.56 6.02125 394.78 5.98125 394.98 5.89125C395.18 5.80125 395.33 5.68125 395.45 5.52125C395.56 5.36125 395.62 5.16124 395.62 4.93124C395.62 4.58124 395.5 4.30125 395.25 4.11125C395 3.92125 394.69 3.82126 394.32 3.82126H393.31V9.65124H394.42C394.74 9.65124 395.02 9.59125 395.26 9.48125C395.5 9.37125 395.69 9.20125 395.83 8.99125C395.97 8.78125 396.04 8.52125 396.04 8.22125C396.04 7.99125 396 7.79124 395.92 7.62124C395.84 7.45124 395.73 7.30125 395.59 7.17125C395.44 7.05125 395.27 6.96124 395.07 6.90124C394.87 6.84124 394.65 6.81125 394.41 6.81125H393.11V6.31125H394.41C394.77 6.31125 395.1 6.35124 395.41 6.43124C395.72 6.51124 395.98 6.63124 396.21 6.79124C396.44 6.95124 396.62 7.15124 396.75 7.40124C396.88 7.65124 396.94 7.94125 396.94 8.28125C396.94 8.77125 396.83 9.17125 396.61 9.49125C396.39 9.81125 396.09 10.0513 395.71 10.2113C395.33 10.3713 394.9 10.4513 394.42 10.4513H392.41V3.03125H394.32C394.77 3.03125 395.15 3.10125 395.48 3.23125C395.81 3.36125 396.07 3.57125 396.25 3.84125C396.43 4.11125 396.53 4.46125 396.53 4.89125C396.53 5.24125 396.44 5.53125 396.25 5.78125C396.07 6.03125 395.81 6.21125 395.48 6.34125C395.15 6.47125 394.76 6.53125 394.32 6.53125H393.12V6.03125L393.11 6.02125Z" fill="white"/><path d="M399.252 3.02344V10.4435H398.352V3.02344H399.252ZM398.852 3.02344H402.592V3.87343H398.852V3.02344ZM398.852 5.99344H402.382V6.84343H398.852V5.99344ZM398.852 9.60344H402.592V10.4535H398.852V9.60344Z" fill="white"/><path d="M405.111 3.02344V10.4435H404.211V3.02344H405.111ZM404.711 5.99344H409.801V6.84343H404.711V5.99344ZM410.101 3.02344V10.4435H409.201V3.02344H410.101Z" fill="white"/><path d="M412.728 3.02344V10.4435H411.828V3.02344H412.728ZM412.328 5.99344H417.418V6.84343H412.328V5.99344ZM417.708 3.02344V10.4435H416.808V3.02344H417.708Z" fill="white"/><path d="M420.841 7.64624L420.751 7.83625L419.651 10.4463H418.641L422.091 2.65625L425.541 10.4463H424.531L423.451 7.89624L423.371 7.68625L422.101 4.69625L420.851 7.64624H420.841ZM420.471 7.36624H423.761L424.081 8.21625H420.161L420.481 7.36624H420.471Z" fill="white"/><path d="M426.84 10.4513H425.73L428.38 6.79124H429.39L426.84 10.4513ZM428.7 3.82126C428.38 3.82126 428.1 3.88125 427.86 3.99125C427.62 4.10125 427.42 4.27125 427.29 4.48125C427.15 4.69125 427.08 4.95125 427.08 5.25125C427.08 5.55125 427.15 5.81125 427.29 6.02125C427.43 6.23125 427.62 6.39124 427.86 6.51124C428.1 6.62124 428.38 6.68124 428.7 6.68124H430.22V7.48125H428.7C428.23 7.48125 427.8 7.39126 427.42 7.21126C427.04 7.03126 426.74 6.77125 426.51 6.44125C426.29 6.10125 426.18 5.71124 426.18 5.26124C426.18 4.81124 426.29 4.40126 426.51 4.07126C426.73 3.74126 427.04 3.48125 427.42 3.30125C427.8 3.12125 428.23 3.03125 428.7 3.03125H430.22V3.83125H428.7V3.82126ZM430.71 10.4513H429.81V3.03125H430.71V10.4513Z" fill="white"/><path d="M435.51 5.21625C435.7 4.75625 435.96 4.34624 436.3 4.00624C436.64 3.66624 437.04 3.39625 437.5 3.19625C437.96 3.00625 438.46 2.90625 439 2.90625C439.54 2.90625 440.04 3.00625 440.5 3.19625C440.96 3.38625 441.35 3.65624 441.69 4.00624C442.03 4.34624 442.29 4.75625 442.48 5.21625C442.67 5.67625 442.76 6.18625 442.76 6.72625C442.76 7.26625 442.67 7.76625 442.48 8.23625C442.29 8.70625 442.03 9.10625 441.69 9.44625C441.35 9.78625 440.95 10.0563 440.5 10.2563C440.04 10.4463 439.54 10.5463 439 10.5463C438.46 10.5463 437.96 10.4463 437.5 10.2563C437.04 10.0663 436.64 9.79625 436.3 9.44625C435.96 9.10625 435.7 8.69625 435.51 8.23625C435.32 7.76625 435.23 7.26625 435.23 6.72625C435.23 6.18625 435.32 5.67625 435.51 5.21625ZM436.55 8.22625C436.79 8.66625 437.13 9.00625 437.55 9.26625C437.97 9.51625 438.46 9.64624 438.99 9.64624C439.52 9.64624 440.02 9.51625 440.44 9.26625C440.86 9.01625 441.19 8.66625 441.44 8.22625C441.68 7.78625 441.81 7.28625 441.81 6.72625C441.81 6.16625 441.69 5.66625 441.44 5.22625C441.2 4.78625 440.86 4.43625 440.44 4.18625C440.02 3.93625 439.54 3.80625 438.99 3.80625C438.44 3.80625 437.97 3.93625 437.55 4.18625C437.13 4.43625 436.79 4.78625 436.55 5.22625C436.31 5.66625 436.18 6.16625 436.18 6.72625C436.18 7.28625 436.3 7.78625 436.55 8.22625Z" fill="white"/><path d="M444.97 3.02344V10.4435H444.07V3.02344H444.97ZM444.57 3.02344H446.09C446.57 3.02344 447 3.11343 447.38 3.29343C447.76 3.47343 448.06 3.73343 448.28 4.06343C448.5 4.39343 448.61 4.79343 448.61 5.25343C448.61 5.71343 448.5 6.10343 448.28 6.43343C448.06 6.77343 447.76 7.02343 447.38 7.20343C447 7.38343 446.57 7.47344 446.09 7.47344H444.57V6.62343H446.09C446.57 6.62343 446.96 6.50344 447.26 6.27344C447.56 6.04344 447.71 5.69344 447.71 5.24344C447.71 4.79344 447.56 4.44344 447.26 4.21344C446.96 3.98344 446.57 3.87343 446.09 3.87343H444.57V3.02344Z" fill="white"/><path d="M453.57 3.02344V3.87343H450.81V10.4535H449.91V3.03343H453.57V3.02344Z" fill="white"/><path d="M455.95 7.64624L455.86 7.83625L454.76 10.4463H453.75L457.2 2.65625L460.65 10.4463H459.64L458.56 7.89624L458.48 7.68625L457.21 4.69625L455.96 7.64624H455.95ZM455.58 7.36624H458.87L459.19 8.21625H455.27L455.59 7.36624H455.58Z" fill="white"/><path d="M462.49 3.02344V10.4435H461.59V3.02344H462.49ZM462.08 5.99344H467.17V6.84343H462.08V5.99344ZM467.47 3.02344V10.4435H466.57V3.02344H467.47Z" fill="white"/><path d="M469.199 10.8185L469.249 9.43845L475.719 2.64844L475.669 4.02845L469.199 10.8185ZM470.099 9.64844L469.199 10.8185V3.02845H470.099V9.65845V9.64844ZM475.719 10.4485H474.819V3.81846L475.719 2.64844V10.4385V10.4485Z" fill="white"/><path d="M478.77 10.3863C478.44 10.2763 478.16 10.1363 477.93 9.94625C477.7 9.75625 477.53 9.53624 477.42 9.28624C477.3 9.03624 477.25 8.76625 477.25 8.47625H478.16C478.19 8.70625 478.27 8.91625 478.4 9.10625C478.53 9.28625 478.72 9.43625 478.97 9.54625C479.22 9.65625 479.54 9.70626 479.93 9.70626C480.52 9.70626 480.95 9.58626 481.22 9.34626C481.5 9.10626 481.63 8.78625 481.63 8.37625C481.63 8.07625 481.54 7.81624 481.36 7.61624C481.18 7.41624 480.94 7.25625 480.64 7.15625C480.34 7.05625 479.99 7.00624 479.6 7.00624V6.42624C480.15 6.42624 480.65 6.49625 481.1 6.63625C481.55 6.77625 481.9 6.99625 482.16 7.29625C482.42 7.59625 482.55 7.99625 482.55 8.48625C482.55 8.90625 482.45 9.26625 482.24 9.57625C482.03 9.88625 481.73 10.1263 481.34 10.2963C480.95 10.4663 480.48 10.5463 479.92 10.5463C479.48 10.5463 479.1 10.4963 478.76 10.3863H478.77ZM479.6 6.19625C479.99 6.19625 480.32 6.13625 480.59 6.02625C480.86 5.90625 481.06 5.75625 481.21 5.55625C481.35 5.36625 481.42 5.14625 481.42 4.91625C481.42 4.68625 481.37 4.47625 481.26 4.29625C481.15 4.11625 480.99 3.97625 480.78 3.87625C480.56 3.77625 480.3 3.72625 479.98 3.72625C479.68 3.72625 479.42 3.77625 479.18 3.87625C478.94 3.97625 478.76 4.10625 478.62 4.27625C478.49 4.44625 478.42 4.63625 478.42 4.85625H477.56C477.56 4.46625 477.66 4.12625 477.86 3.83625C478.06 3.54625 478.34 3.31625 478.71 3.15625C479.07 2.98625 479.49 2.90625 479.97 2.90625C480.45 2.90625 480.89 2.99625 481.24 3.18625C481.59 3.36625 481.87 3.60625 482.06 3.90625C482.25 4.20625 482.35 4.52625 482.35 4.88625C482.35 5.14625 482.28 5.39625 482.15 5.62625C482.02 5.85625 481.83 6.05625 481.59 6.22625C481.35 6.39625 481.06 6.53625 480.73 6.63625C480.39 6.73625 480.02 6.78624 479.61 6.78624V6.20626L479.6 6.19625Z" fill="white"/><path d="M485.309 7.64624L485.219 7.83625L484.119 10.4463H483.109L486.559 2.65625L490.009 10.4463H488.999L487.919 7.89624L487.839 7.68625L486.569 4.69625L485.319 7.64624H485.309ZM484.939 7.36624H488.229L488.549 8.21625H484.629L484.949 7.36624H484.939Z" fill="white"/><path d="M495.931 9.60344V3.02344H496.831V9.60344H497.731V11.6135H496.931V10.4435H490.941V3.02344H491.841V9.60344H495.921H495.931Z" fill="white"/><path d="M499.031 10.8185L499.081 9.43845L505.551 2.64844L505.501 4.02845L499.031 10.8185ZM499.941 9.64844L499.041 10.8185V3.02845H499.941V9.65845V9.64844ZM505.561 10.4485H504.661V3.81846L505.561 2.64844V10.4385V10.4485Z" fill="white"/><path d="M507.661 10.4513H506.551L509.201 6.79124H510.211L507.661 10.4513ZM509.511 3.82126C509.191 3.82126 508.911 3.88125 508.671 3.99125C508.431 4.10125 508.231 4.27125 508.101 4.48125C507.961 4.69125 507.891 4.95125 507.891 5.25125C507.891 5.55125 507.961 5.81125 508.101 6.02125C508.241 6.23125 508.431 6.39124 508.671 6.51124C508.911 6.62124 509.191 6.68124 509.511 6.68124H511.031V7.48125H509.511C509.041 7.48125 508.611 7.39126 508.231 7.21126C507.851 7.03126 507.551 6.77125 507.321 6.44125C507.101 6.10125 506.991 5.71124 506.991 5.26124C506.991 4.81124 507.101 4.40126 507.321 4.07126C507.541 3.74126 507.851 3.48125 508.231 3.30125C508.611 3.12125 509.041 3.03125 509.511 3.03125H511.031V3.83125H509.511V3.82126ZM511.531 10.4513H510.631V3.03125H511.531V10.4513Z" fill="white"/><path d="M204.571 35.8506H166.071C161.001 35.8506 156.321 38.5506 153.791 42.9406L121.371 99.1006L106.361 73.1106C106.361 73.1106 106.361 73.0806 106.361 73.0706L124.811 41.1106C127.031 37.2706 128.201 32.9106 128.201 28.4806C128.201 26.5406 127.981 24.6606 127.571 22.8406C124.991 11.3006 114.671 2.64062 102.371 2.64062C90.0708 2.64062 79.8708 11.1906 77.2208 22.6206C76.7808 24.5006 76.5408 26.4606 76.5408 28.4706C76.5408 32.7106 77.6608 36.8706 79.7808 40.5406L98.5508 73.0606C98.5508 73.0606 98.5508 73.0906 98.5508 73.1006L83.5408 99.0906L76.5308 86.9506L51.1108 42.9206C48.5808 38.5306 43.8908 35.8306 38.8308 35.8306H0.330784C0.330784 35.8306 0.310781 35.8606 0.300781 35.8906L40.4108 105.361C42.9608 109.771 46.6208 113.441 51.0308 115.981L52.8508 117.031C53.9508 117.671 55.0908 118.201 56.2408 118.651C59.0908 119.761 62.0708 120.301 65.0108 120.301C69.0308 120.301 72.9908 119.291 76.5308 117.401C76.7008 117.311 76.8708 117.231 77.0308 117.141C79.2408 115.891 81.2708 114.281 83.0308 112.351C83.0608 112.311 83.0908 112.271 83.1308 112.241C84.2508 111.001 85.2708 109.621 86.1308 108.121L87.3408 106.021H117.541L118.751 108.121C119.571 109.551 120.531 110.851 121.581 112.041C121.671 112.141 121.761 112.251 121.851 112.351C123.611 114.281 125.641 115.901 127.851 117.141C127.961 117.201 128.071 117.251 128.181 117.311C131.761 119.261 135.781 120.301 139.871 120.301C142.811 120.301 145.791 119.751 148.641 118.651C149.791 118.201 150.931 117.671 152.031 117.031L153.851 115.981C158.261 113.431 161.931 109.771 164.471 105.361L204.581 35.8906C204.581 35.8906 204.561 35.8606 204.551 35.8306L204.571 35.8506ZM85.0908 35.4006C83.8208 33.1906 83.1508 30.6906 83.1508 28.1406C83.1508 17.7006 91.2508 8.79063 101.671 8.41063C112.591 8.02064 121.611 16.7906 121.611 27.6306C121.611 30.7106 120.801 33.7306 119.261 36.4006C114.151 45.2506 102.501 65.4406 102.501 65.4406C102.481 65.4706 102.451 65.4706 102.431 65.4406L85.0908 35.4006ZM79.4208 105.251C78.5808 106.451 77.6108 107.491 76.5408 108.421C75.6608 109.181 74.7208 109.861 73.7208 110.431C71.0708 111.931 68.0708 112.721 65.0308 112.721C64.4708 112.721 52.3108 112.721 44.4508 97.3806L12.5308 42.0806H38.0208C41.0808 42.0806 43.9008 43.7106 45.4308 46.3606L76.5608 100.271L79.4408 105.261L79.4208 105.251ZM91.3608 98.2606L102.421 79.0906C102.421 79.0906 102.471 79.0606 102.491 79.0906L113.551 98.2606H91.3508H91.3608ZM160.471 97.3706C152.621 112.711 140.451 112.711 139.891 112.711C136.851 112.711 133.841 111.921 131.201 110.421C130.131 109.821 129.131 109.091 128.201 108.271C127.201 107.381 126.291 106.381 125.491 105.241L128.201 100.551L159.501 46.3406C161.031 43.6906 163.851 42.0606 166.911 42.0606H192.401L160.481 97.3606L160.471 97.3706Z" fill="white"/></g><defs><clipPath id="clip0_4738_24567"><rect width="513" height="121" fill="white"/></clipPath></defs></svg>