<svg width="184" height="26" viewBox="0 0 184 26" fill="none" xmlns="http://www.w3.org/2000/svg">
<path d="M2.84022 25.6652C2.50422 25.6652 2.18022 25.6412 1.86822 25.5932C1.55622 25.5692 1.20822 25.5092 0.824223 25.4132L1.04022 23.0372C1.44822 23.1332 1.84422 23.1812 2.22822 23.1812C3.30822 23.1812 4.17222 22.7612 4.82022 21.9212C5.49222 21.0572 5.99622 19.7372 6.33222 17.9612C6.66822 16.1612 6.88422 13.8572 6.98022 11.0492L7.34022 0.249217H24.4402V25.4492H21.8122V1.83322L22.4962 2.55322H9.03222L9.68022 1.79722L9.35622 10.9772C9.26022 13.4972 9.08022 15.6812 8.81622 17.5292C8.55222 19.3532 8.16822 20.8772 7.66422 22.1012C7.16022 23.3012 6.51222 24.2012 5.72022 24.8012C4.92822 25.3772 3.96822 25.6652 2.84022 25.6652ZM43.9938 25.6652C42.0978 25.6652 40.3338 25.3532 38.7018 24.7292C37.0938 24.0812 35.6898 23.1812 34.4898 22.0292C33.3138 20.8532 32.3898 19.4972 31.7178 17.9612C31.0698 16.4012 30.7458 14.6972 30.7458 12.8492C30.7458 11.0012 31.0698 9.30922 31.7178 7.77322C32.3898 6.21322 33.3138 4.85722 34.4898 3.70522C35.6898 2.52922 37.0938 1.62922 38.7018 1.00522C40.3098 0.357218 42.0738 0.0332177 43.9938 0.0332177C45.8898 0.0332177 47.6418 0.357218 49.2498 1.00522C50.8578 1.62922 52.2498 2.51722 53.4258 3.66922C54.6258 4.82122 55.5498 6.17722 56.1978 7.73722C56.8698 9.29722 57.2058 11.0012 57.2058 12.8492C57.2058 14.6972 56.8698 16.4012 56.1978 17.9612C55.5498 19.5212 54.6258 20.8772 53.4258 22.0292C52.2498 23.1812 50.8578 24.0812 49.2498 24.7292C47.6418 25.3532 45.8898 25.6652 43.9938 25.6652ZM43.9938 23.2892C45.5058 23.2892 46.8978 23.0372 48.1698 22.5332C49.4658 22.0052 50.5818 21.2732 51.5178 20.3372C52.4778 19.3772 53.2218 18.2732 53.7498 17.0252C54.2778 15.7532 54.5418 14.3612 54.5418 12.8492C54.5418 11.3372 54.2778 9.95722 53.7498 8.70922C53.2218 7.43722 52.4778 6.33322 51.5178 5.39722C50.5818 4.43722 49.4658 3.70522 48.1698 3.20122C46.8978 2.67322 45.5058 2.40922 43.9938 2.40922C42.4818 2.40922 41.0778 2.67322 39.7818 3.20122C38.4858 3.70522 37.3578 4.43722 36.3978 5.39722C35.4618 6.33322 34.7178 7.43722 34.1658 8.70922C33.6378 9.95722 33.3738 11.3372 33.3738 12.8492C33.3738 14.3372 33.6378 15.7172 34.1658 16.9892C34.7178 18.2612 35.4618 19.3772 36.3978 20.3372C37.3578 21.2732 38.4858 22.0052 39.7818 22.5332C41.0778 23.0372 42.4818 23.2892 43.9938 23.2892ZM63.5629 25.4492V0.249217H79.5829V2.55322H65.4709L66.1549 1.86922L66.1909 25.4492H63.5629ZM91.7712 25.6652C89.8752 25.6652 88.1112 25.3532 86.4792 24.7292C84.8712 24.0812 83.4672 23.1812 82.2672 22.0292C81.0912 20.8532 80.1672 19.4972 79.4952 17.9612C78.8472 16.4012 78.5232 14.6972 78.5232 12.8492C78.5232 11.0012 78.8472 9.30922 79.4952 7.77322C80.1672 6.21322 81.0912 4.85722 82.2672 3.70522C83.4672 2.52922 84.8712 1.62922 86.4792 1.00522C88.0872 0.357218 89.8512 0.0332177 91.7712 0.0332177C93.6672 0.0332177 95.4192 0.357218 97.0272 1.00522C98.6352 1.62922 100.027 2.51722 101.203 3.66922C102.403 4.82122 103.327 6.17722 103.975 7.73722C104.647 9.29722 104.983 11.0012 104.983 12.8492C104.983 14.6972 104.647 16.4012 103.975 17.9612C103.327 19.5212 102.403 20.8772 101.203 22.0292C100.027 23.1812 98.6352 24.0812 97.0272 24.7292C95.4192 25.3532 93.6672 25.6652 91.7712 25.6652ZM91.7712 23.2892C93.2832 23.2892 94.6752 23.0372 95.9472 22.5332C97.2432 22.0052 98.3592 21.2732 99.2952 20.3372C100.255 19.3772 100.999 18.2732 101.527 17.0252C102.055 15.7532 102.319 14.3612 102.319 12.8492C102.319 11.3372 102.055 9.95722 101.527 8.70922C100.999 7.43722 100.255 6.33322 99.2952 5.39722C98.3592 4.43722 97.2432 3.70522 95.9472 3.20122C94.6752 2.67322 93.2832 2.40922 91.7712 2.40922C90.2592 2.40922 88.8552 2.67322 87.5592 3.20122C86.2632 3.70522 85.1352 4.43722 84.1752 5.39722C83.2392 6.33322 82.4952 7.43722 81.9432 8.70922C81.4152 9.95722 81.1512 11.3372 81.1512 12.8492C81.1512 14.3372 81.4152 15.7172 81.9432 16.9892C82.4952 18.2612 83.2392 19.3772 84.1752 20.3372C85.1352 21.2732 86.2632 22.0052 87.5592 22.5332C88.8552 23.0372 90.2592 23.2892 91.7712 23.2892ZM115.993 25.4492V1.83322L116.713 2.55322H107.137V0.249217H127.477V2.55322H117.937L118.621 1.83322V25.4492H115.993ZM132.153 25.4492V0.249217H134.781V21.1292L150.909 0.249217H153.321V25.4492H150.693V4.60522L134.565 25.4492H132.153ZM161.825 25.4492V0.249217H183.029V25.4492H180.401V1.83322L181.085 2.55322H163.769L164.453 1.83322V25.4492H161.825Z" fill="#999999"/>
</svg>
