<svg xmlns="http://www.w3.org/2000/svg" xmlns:xlink="http://www.w3.org/1999/xlink" viewBox="0 0 239.36 152.89"><defs><style>.cls-1{fill:none;}.cls-2{clip-path:url(#clip-path);}.cls-3{clip-path:url(#clip-path-2);}.cls-4{fill:url(#Безымянный_градиент);}.cls-5{clip-path:url(#clip-path-3);}.cls-6{clip-path:url(#clip-path-4);}.cls-7{fill:url(#Безымянный_градиент_2);}.cls-8{clip-path:url(#clip-path-5);}.cls-9{clip-path:url(#clip-path-6);}.cls-10{fill:url(#Безымянный_градиент_3);}.cls-11{fill:#fff;stroke:#bcbec0;stroke-width:1.16px;}.cls-12{clip-path:url(#clip-path-7);}.cls-13{clip-path:url(#clip-path-8);}.cls-14{fill:url(#Безымянный_градиент_4);}.cls-15{clip-path:url(#clip-path-9);}.cls-16{clip-path:url(#clip-path-10);}.cls-17{fill:url(#Безымянный_градиент_5);}.cls-18{clip-path:url(#clip-path-11);}.cls-19{clip-path:url(#clip-path-12);}.cls-20{fill:url(#Безымянный_градиент_6);}.cls-21{fill:#005ca8;}</style><clipPath id="clip-path"><path class="cls-1" d="M24.44,86.31C31.83,124.71,63,130.43,63,130.43L85.48,93.79s-35.93,9.88-60.14-6.67Z"/></clipPath><clipPath id="clip-path-2"><rect class="cls-1" x="23.08" y="87.9" width="61.04" height="44.01"/></clipPath><linearGradient id="Безымянный_градиент" x1="-25.08" y1="609.92" x2="-24.08" y2="609.92" gradientTransform="matrix(61.04, 0, 0, -61.04, 1553.72, 37338.51)" gradientUnits="userSpaceOnUse"><stop offset="0" stop-color="#b01116"/><stop offset="0.65" stop-color="#ed1c24"/><stop offset="1" stop-color="#ed1c24"/></linearGradient><clipPath id="clip-path-3"><path class="cls-1" d="M63,130.43c51.7,11.27,64.81-37.11,64.81-37.11-22.18,17.42-47.52,9-47.52,9Z"/></clipPath><clipPath id="clip-path-4"><rect class="cls-1" x="62.53" y="94.23" width="64.81" height="48.35"/></clipPath><linearGradient id="Безымянный_градиент_2" x1="-25.08" y1="609.92" x2="-24.08" y2="609.92" gradientTransform="matrix(64.81, 0, 0, -64.81, 1687.86, 39645.19)" xlink:href="#Безымянный_градиент"/><clipPath id="clip-path-5"><path class="cls-1" d="M24.44,86.31a63.08,63.08,0,0,0,8.2,21.62c8.25,13.26,46.75-.28,43.11,1.75l9.74-15.89s-35.93,9.88-60.14-6.67Z"/></clipPath><clipPath id="clip-path-6"><rect class="cls-1" x="23.08" y="87.26" width="61.04" height="34.91"/></clipPath><linearGradient id="Безымянный_градиент_3" x1="-25.08" y1="609.92" x2="-24.08" y2="609.92" gradientTransform="matrix(61.04, 0, 0, -61.04, 1553.72, 37329.68)" gradientUnits="userSpaceOnUse"><stop offset="0" stop-color="#bcbdc0"/><stop offset="0.65" stop-color="#fff"/><stop offset="1" stop-color="#fff"/></linearGradient><clipPath id="clip-path-7"><path class="cls-1" d="M70.68,118s34.79,8.58,44.49-2.26a61.74,61.74,0,0,0,12.69-22.41c-22.18,17.42-47.52,9-47.52,9Z"/></clipPath><clipPath id="clip-path-8"><rect class="cls-1" x="69.78" y="94.49" width="57.17" height="33.22"/></clipPath><linearGradient id="Безымянный_градиент_4" x1="-25.08" y1="609.92" x2="-24.08" y2="609.92" gradientTransform="matrix(57.17, 0, 0, -57.17, 1503.47, 34978.75)" xlink:href="#Безымянный_градиент_3"/><clipPath id="clip-path-9"><path class="cls-1" d="M28.13,99.41c-2.81-1.25,20.86,12.37,50.22,6.1l-8.68,14s-28.09,1.37-35.08-7.81c-3.75-4.92-6.46-12.31-6.46-12.31"/></clipPath><clipPath id="clip-path-10"><rect class="cls-1" x="27.09" y="100.4" width="53.02" height="22.55"/></clipPath><linearGradient id="Безымянный_градиент_5" x1="-25.08" y1="609.92" x2="-24.08" y2="609.92" gradientTransform="matrix(50.45, 0, 0, -50.45, 1294.82, 30883.11)" gradientUnits="userSpaceOnUse"><stop offset="0" stop-color="#00377b"/><stop offset="0.01" stop-color="#00377b"/><stop offset="0.52" stop-color="#034ea2"/><stop offset="1" stop-color="#034ea2"/></linearGradient><clipPath id="clip-path-11"><path class="cls-1" d="M75,110.68s18.65,9.23,46.73-3.14c0,0-9.3,12.62-13.55,14.28,0,0-15.75,7.64-39.89-.24Z"/></clipPath><clipPath id="clip-path-12"><rect class="cls-1" x="68.64" y="107.5" width="53.43" height="21.91"/></clipPath><linearGradient id="Безымянный_градиент_6" x1="-25.08" y1="609.92" x2="-24.08" y2="609.92" gradientTransform="matrix(53.43, 0, 0, -53.43, 1408.45, 32703.27)" xlink:href="#Безымянный_градиент_5"/></defs><title>Ресурс 2</title><g id="Слой_2" data-name="Слой 2"><g id="Layer_1" data-name="Layer 1"><g class="cls-2"><g class="cls-3"><rect class="cls-4" x="23.08" y="87.9" width="61.04" height="44.01"/></g></g><g class="cls-5"><g class="cls-6"><rect class="cls-7" x="62.53" y="94.23" width="64.81" height="48.35"/></g></g><g class="cls-8"><g class="cls-9"><rect class="cls-10" x="23.08" y="87.26" width="61.04" height="34.88"/></g></g><path class="cls-11" d="M24.44,86.31a63.08,63.08,0,0,0,8.2,21.62c8.25,13.26,46.75-.28,43.11,1.75l9.74-15.89s-35.93,9.88-60.14-6.67Z"/><g class="cls-12"><g class="cls-13"><rect class="cls-14" x="69.78" y="94.49" width="57.17" height="33.22"/></g></g><path class="cls-11" d="M70.68,118s34.79,8.58,44.49-2.26a61.74,61.74,0,0,0,12.69-22.41c-22.18,17.42-47.52,9-47.52,9Z"/><g class="cls-15"><g class="cls-16"><rect class="cls-17" x="27.09" y="100.4" width="53.02" height="22.55"/></g></g><g class="cls-18"><g class="cls-19"><rect class="cls-20" x="68.64" y="107.5" width="53.43" height="21.91"/></g></g><path class="cls-21" d="M129.56,75.75c0,.17,0,.34,0,.52a53.15,53.15,0,1,1-6-24.58h25l-1.92-5.58c-3.11-1.09-7.4-.72-11.16,0A66.4,66.4,0,0,0,130,37.32a26.62,26.62,0,0,0,4.84-9.91L130,21.92c-3.31.16-7.16,2.13-10.38,4.23a66.51,66.51,0,0,0-9.56-6.85,26.69,26.69,0,0,0,.52-11L104.06,5.1c-3,1.46-5.74,4.8-7.87,8a66,66,0,0,0-12.37-2.58,26.76,26.76,0,0,0-4-10.34L72.5,0c-2.13,2.56-3.29,6.77-3.92,10.58A66,66,0,0,0,57.15,13,26.7,26.7,0,0,0,49.33,5l-6.77,2.7c-.95,3.21-.34,7.55.59,11.3a66.46,66.46,0,0,0-9.5,6.69A26.79,26.79,0,0,0,23.3,21.53l-5.14,5.16c.4,3.33,2.68,7.09,5,10.17a66.33,66.33,0,0,0-6,9.69A26.83,26.83,0,0,0,6,46.75L3.3,53.5C5,56.42,8.56,59,11.93,60.89A66.11,66.11,0,0,0,10.31,71,26.84,26.84,0,0,0,0,75.42L0,82.7C2.69,84.77,7,85.79,10.82,86.29a65.84,65.84,0,0,0,2.11,9.4,26.83,26.83,0,0,0-8,7.87l2.72,6.75c3.22.95,7.57.32,11.33-.62a66.57,66.57,0,0,0,6.46,9.23,26.82,26.82,0,0,0-4.25,10.34l5.14,5.16c3.32-.38,7.08-2.65,10.17-5a66.48,66.48,0,0,0,8.1,5.23,26.75,26.75,0,0,0-.14,11.14l6.68,2.9c2.94-1.57,5.59-5,7.6-8.32a66,66,0,0,0,9.77,1.91,26.69,26.69,0,0,0,4,10.37l7.28.22c2.14-2.54,3.31-6.73,4-10.52a66,66,0,0,0,9.9-1.87,26.71,26.71,0,0,0,7.55,8.09l6.83-2.52c1-3.15.57-7.44-.24-11.19a66.2,66.2,0,0,0,6.91-4.28,26.64,26.64,0,0,0,9.85,5l5.56-4.72c-.12-3.3-2-7.17-4.08-10.41a66.72,66.72,0,0,0,6.71-9,26.63,26.63,0,0,0,11,.75l3.29-6.5c-1.39-3-4.63-5.8-7.77-8a65.92,65.92,0,0,0,2.49-9.8,26.62,26.62,0,0,0,10.46-3.39l.63-7.26a11.91,11.91,0,0,0-2.05-1.52Zm-74,2.83H51.14V93.31h3V87.45H55c2,0,3.31-.31,4-.92s1-1.81,1-3.59a4.58,4.58,0,0,0-1-3.35A4.77,4.77,0,0,0,55.6,78.58Zm1,6.21a2.16,2.16,0,0,1-1.61.45h-.85V80.79H55a2.12,2.12,0,0,1,1.59.46A2.59,2.59,0,0,1,57,83,2.83,2.83,0,0,1,56.62,84.78Zm3.29-46.61v-.72a4.28,4.28,0,0,0-1-3.1,4.32,4.32,0,0,0-3.27-1.12,4.54,4.54,0,0,0-3.58,1.2c-.69.8-1,2.18-1,4.14v4.55q0,2.92,1,4.11a4.55,4.55,0,0,0,3.58,1.2A4.43,4.43,0,0,0,59,47.32a5.26,5.26,0,0,0,1-3.68V43.2H57v.43a4.17,4.17,0,0,1-.32,1.93,1.1,1.1,0,0,1-1,.64,1.24,1.24,0,0,1-1.24-.75,7.14,7.14,0,0,1-.35-2.68V38.23a4.49,4.49,0,0,1,.37-2.13,1.3,1.3,0,0,1,1.22-.65,1,1,0,0,1,.95.57,3.49,3.49,0,0,1,.29,1.72v.44Zm10.42,9.12a5.73,5.73,0,0,0,1-3.88V37.33a3.93,3.93,0,0,0-1.14-3.08,5.05,5.05,0,0,0-3.44-1,5,5,0,0,0-3.44,1,3.93,3.93,0,0,0-1.14,3.08v6.07a5.7,5.7,0,0,0,1,3.88,4.63,4.63,0,0,0,3.54,1.13A4.67,4.67,0,0,0,70.33,47.29Zm-4.78-1.67a4.45,4.45,0,0,1-.34-2.08V37.46a2.44,2.44,0,0,1,.4-1.5,1.59,1.59,0,0,1,2.34,0,2.39,2.39,0,0,1,.4,1.5v6.07A4.44,4.44,0,0,1,68,45.61a1.57,1.57,0,0,1-2.44,0Zm82.83,25.13V58.21h3.18V56h-9.38v2.2h3.18V70.75Zm-7.77-10V60a3.74,3.74,0,0,0-4.26-4.22,4.55,4.55,0,0,0-3.58,1.2c-.69.8-1,2.18-1,4.13v4.55q0,2.92,1,4.11a4.54,4.54,0,0,0,3.58,1.2,4.43,4.43,0,0,0,3.39-1.1,5.27,5.27,0,0,0,1-3.68v-.44h-3v.44a4.1,4.1,0,0,1-.32,1.93,1.09,1.09,0,0,1-1,.64A1.25,1.25,0,0,1,135.1,68a7.2,7.2,0,0,1-.35-2.68V60.79a4.43,4.43,0,0,1,.38-2.13,1.29,1.29,0,0,1,1.22-.65,1,1,0,0,1,.95.57,3.52,3.52,0,0,1,.29,1.71v.44Zm94.3-5.85a3.05,3.05,0,0,0,2.23-.75,3,3,0,0,0,.76-2.2h-2a2.25,2.25,0,0,1-.23,1.19,1.06,1.06,0,0,1-1.56,0,2.35,2.35,0,0,1-.22-1.19h-2a3,3,0,0,0,.76,2.2A3,3,0,0,0,234.91,54.87ZM121.2,56.81a4,4,0,0,0-1.14,3.09V66a5.72,5.72,0,0,0,1,3.88,6.14,6.14,0,0,0,7.1,0,5.71,5.71,0,0,0,1-3.88V59.89a3.93,3.93,0,0,0-1.15-3.09,6.3,6.3,0,0,0-6.89,0Zm4.61,1.71a2.39,2.39,0,0,1,.4,1.5v6.07a4.42,4.42,0,0,1-.35,2.08,1.57,1.57,0,0,1-2.45,0,4.45,4.45,0,0,1-.34-2.08V60a2.42,2.42,0,0,1,.39-1.5,1.59,1.59,0,0,1,2.34,0Zm-23.2,25.86v8.93h2.47V78.58h-4l-1.85,9q-.2,1-.43,2.25c-.15.85-.24,1.39-.27,1.65,0-.23.05-.77.07-1.63s0-1.63,0-2.33V78.58H96.18V93.31h4l1.85-9q.21-1,.43-2.25t.27-1.64c0,.21-.05.75-.07,1.61S102.61,83.67,102.61,84.38Zm11.81,0v8.93h2.47V78.58h-4l-1.85,9q-.21,1-.43,2.25c-.15.85-.24,1.39-.27,1.65q0-.35.07-1.63c0-.86,0-1.63,0-2.33V78.58H108V93.31h4l1.85-9q.21-1,.43-2.25c.15-.85.24-1.39.27-1.64,0,.21-.05.75-.07,1.61S114.42,83.67,114.42,84.38ZM64.21,70.75V56H60L57.67,67.27,55.33,56H51.1V70.75h2.47V58.32h0l2.58,12.42h3L61.74,58.4V70.75ZM117.28,56h-3V62.1H111.4V56h-3V70.75h3V64.3h2.86v6.45h3Zm51.85-.23a5,5,0,0,0-3.43,1,3.92,3.92,0,0,0-1.14,3.09V66a5.73,5.73,0,0,0,1,3.88,6.16,6.16,0,0,0,7.11,0,5.75,5.75,0,0,0,1-3.88V59.89a3.94,3.94,0,0,0-1.15-3.09A5.05,5.05,0,0,0,169.13,55.79Zm1.57,10.31a4.46,4.46,0,0,1-.34,2.08,1.31,1.31,0,0,1-1.23.59,1.29,1.29,0,0,1-1.22-.59,4.43,4.43,0,0,1-.34-2.08V60a2.44,2.44,0,0,1,.39-1.5,1.59,1.59,0,0,1,2.34,0,2.4,2.4,0,0,1,.4,1.5Zm16.77-7.88h3.18V70.75h3V58.21h3.18V56h-9.38ZM179.57,65q-.21,1-.43,2.25c-.15.85-.24,1.39-.26,1.64,0-.23.05-.77.07-1.63s0-1.63,0-2.33V56H176.5V70.75h4l1.85-9q.21-1,.43-2.25t.27-1.64c0,.22-.05.75-.07,1.61s0,1.64,0,2.35v8.93h2.47V56h-4Zm22.36-.71h4.19V62.1h-4.19V58.21h4.32V56h-7.34V70.75h7.43v-2.2h-4.42ZM158,56h-4.46V70.75h3V64.89h.85q3,0,4-.93t1-3.59a4.57,4.57,0,0,0-1-3.35A4.76,4.76,0,0,0,158,56Zm1,6.21a2.16,2.16,0,0,1-1.61.45h-.85V58.23h.85a2.13,2.13,0,0,1,1.59.46,2.62,2.62,0,0,1,.42,1.72A2.86,2.86,0,0,1,159,62.22ZM235.38,56l-1.85,9q-.21,1-.43,2.25t-.27,1.64q0-.34.08-1.63c0-.85,0-1.63,0-2.33V56h-2.47V70.75h4l1.85-9q.21-1,.43-2.25c.15-.84.24-1.39.27-1.64,0,.22-.05.75-.07,1.61s0,1.64,0,2.35v8.93h2.47V56ZM209.25,67a2,2,0,0,1-.23,1.1.84.84,0,0,1-.74.34H208V71h.52a3.81,3.81,0,0,0,2.87-.94,4.34,4.34,0,0,0,.88-3V58.21h2.4V70.75h3V56h-8.44Zm14.34-2.71h4.19V62.1h-4.19V58.21h4.32V56h-7.34V70.75H228v-2.2h-4.41ZM73.73,70.75h2.91L73.31,56H69.76L66.42,70.75h2.91l.6-3.18h3.22Zm-3.4-5.38,1.22-6.6h0l1.19,6.6Zm8.15,28.17a4.43,4.43,0,0,0,3.39-1.1,5.29,5.29,0,0,0,1-3.68v-.44h-3v.43a4.16,4.16,0,0,1-.32,1.92,1.1,1.1,0,0,1-1,.64,1.25,1.25,0,0,1-1.24-.75,7.14,7.14,0,0,1-.35-2.68V83.34a4.49,4.49,0,0,1,.37-2.13,1.3,1.3,0,0,1,1.22-.65,1,1,0,0,1,.95.57,3.52,3.52,0,0,1,.29,1.71v.44h3v-.72a3.73,3.73,0,0,0-4.26-4.22,4.54,4.54,0,0,0-3.58,1.2q-1,1.2-1,4.13v4.55q0,2.92,1,4.11A4.54,4.54,0,0,0,78.48,93.54ZM74,33.46V48.19h3V41.74h2.17v1.67a5.37,5.37,0,0,0,1.15,3.76,5.36,5.36,0,0,0,6.88,0,5.39,5.39,0,0,0,1.15-3.76V37.33a3.94,3.94,0,0,0-1.15-3.08,6.29,6.29,0,0,0-6.88,0,3.92,3.92,0,0,0-1.15,3.08v2.21H77V33.46Zm8.21,4a2.64,2.64,0,0,1,.34-1.57,1.45,1.45,0,0,1,1.21-.45,1.47,1.47,0,0,1,1.23.45,2.65,2.65,0,0,1,.34,1.57v6.07A4.45,4.45,0,0,1,85,45.61a1.57,1.57,0,0,1-2.44,0,4.43,4.43,0,0,1-.34-2.08ZM66.77,93.54a4.66,4.66,0,0,0,3.56-1.13,5.73,5.73,0,0,0,1-3.88V82.46a3.92,3.92,0,0,0-1.14-3.08,5,5,0,0,0-3.44-1,5,5,0,0,0-3.44,1,3.93,3.93,0,0,0-1.14,3.08v6.07a5.7,5.7,0,0,0,1,3.88A4.62,4.62,0,0,0,66.77,93.54Zm-1.56-11a2.44,2.44,0,0,1,.4-1.5,1.59,1.59,0,0,1,2.34,0,2.39,2.39,0,0,1,.4,1.5v6.07A4.42,4.42,0,0,1,68,90.73a1.57,1.57,0,0,1-2.44,0,4.43,4.43,0,0,1-.34-2.08Zm24.29,11a4.43,4.43,0,0,0,3.39-1.1,5.27,5.27,0,0,0,1-3.68v-.44h-3v.43a4.16,4.16,0,0,1-.31,1.92,1.1,1.1,0,0,1-1,.64,1.25,1.25,0,0,1-1.24-.75,7.17,7.17,0,0,1-.35-2.68V83.34a4.51,4.51,0,0,1,.38-2.13,1.3,1.3,0,0,1,1.22-.65,1,1,0,0,1,.95.57,3.55,3.55,0,0,1,.29,1.71v.44h3v-.72a4.27,4.27,0,0,0-1-3.1,4.32,4.32,0,0,0-3.27-1.12,4.54,4.54,0,0,0-3.58,1.2q-1,1.2-1,4.13v4.55q0,2.92,1,4.11A4.54,4.54,0,0,0,89.5,93.54ZM93.65,56h-3V68.55H87.77V56h-3V68.55H81.89V56h-3V70.75H93.65Zm5.24-8.55A4.1,4.1,0,0,0,100,44.28v-.41A3.52,3.52,0,0,0,99,41a3,3,0,0,0-.82-.43,2.56,2.56,0,0,0,.87-.46q.92-.8.92-3.07v-.37a3,3,0,0,0-1.1-2.57,5.64,5.64,0,0,0-3.39-.84A4.68,4.68,0,0,0,92,34.35,4.37,4.37,0,0,0,91,37.73v.44h3v-.44A3.1,3.1,0,0,1,94.34,36a1.22,1.22,0,0,1,1.1-.57,1.52,1.52,0,0,1,1.16.38,2,2,0,0,1,.34,1.31v.37a2.66,2.66,0,0,1-.3,1.53,1.46,1.46,0,0,1-1.2.38H93.94v2.22H95.3a1.66,1.66,0,0,1,1.3.41,2.46,2.46,0,0,1,.34,1.53V44a3,3,0,0,1-.36,1.73,1.49,1.49,0,0,1-1.28.47,1.33,1.33,0,0,1-1.22-.64,3.62,3.62,0,0,1-.38-1.93V43.2h-3v.44a5.06,5.06,0,0,0,1,3.68,4.91,4.91,0,0,0,3.61,1.1A5.32,5.32,0,0,0,98.89,47.46ZM105.47,56h-4l-1.85,9q-.21,1-.43,2.25c-.15.85-.24,1.39-.27,1.64,0-.23.05-.77.07-1.63s0-1.63,0-2.33V56H96.57V70.75h4l1.85-9q.21-1,.44-2.25t.26-1.64c0,.22-.05.75-.07,1.61s0,1.64,0,2.35v8.93h2.47Z"/></g></g></svg>