<svg xmlns="http://www.w3.org/2000/svg" width="513" height="121" viewBox="0 0 513 121" fill="none"><path d="M242.26 70.15L254.04 52.88L242.73 36.75H249.08L258.67 50.73H261.53V36.75H267.4V50.73H270.26L279.99 36.75H286.14L274.83 52.54L286.61 70.14H279.98L270.25 55.21H267.39V70.14H261.52V55.21H258.66L248.69 70.14H242.25L242.26 70.15Z" fill="#1F4693"/><path d="M292.17 70.15V36.75H314.59V41.57H298.03V50.63H313.15V55.31H298.03V65.33H314.59V70.15H292.17Z" fill="#1F4693"/><path d="M321.56 70.15V36.75H327.43V50.49H343.36V36.75H349.23V70.15H343.36V55.46H327.43V70.15H321.56Z" fill="#1F4693"/><path d="M394.98 76.36V70.16H357.86V36.76H363.73V65.19H374.03V36.76H379.85V65.19H390.15V36.76H396.02V65.19H400.31V76.35H394.97L394.98 76.36Z" fill="#1F4693"/><path d="M406 70.15V36.75H411.87V60.94L428.04 36.75H433.67V70.15H427.8V45.96L411.63 70.15H406Z" fill="#1F4693"/><path d="M442.31 70.15V36.75H448.18V50.49H464.11V36.75H469.98V70.15H464.11V55.46H448.18V70.15H442.31Z" fill="#1F4693"/><path d="M478.62 70.15V36.75H484.49V49.34H489.83C492.06 49.34 494 49.59 495.65 50.08C497.3 50.57 498.67 51.27 499.75 52.18C500.83 53.09 501.63 54.18 502.16 55.47C502.68 56.76 502.95 58.18 502.95 59.74C502.95 61.3 502.69 62.72 502.16 64.01C501.63 65.3 500.83 66.4 499.75 67.3C498.67 68.21 497.3 68.91 495.65 69.4C494 69.89 492.06 70.14 489.83 70.14H478.62V70.15ZM484.48 65.19H489.35C492.15 65.19 494.12 64.71 495.27 63.74C496.42 62.77 496.99 61.44 496.99 59.76C496.99 58.08 496.42 56.75 495.27 55.78C494.13 54.81 492.15 54.32 489.35 54.32H484.48V65.2V65.19ZM507.1 70.15V36.75H512.97V70.15H507.1Z" fill="#1F4693"/><path d="M242.56 119.9V86.5H265.22V91.41H248.43V99.43H255.2C257.43 99.43 259.37 99.67 261.02 100.15C262.67 100.63 264.04 101.31 265.12 102.2C266.2 103.09 267 104.16 267.53 105.42C268.06 106.68 268.32 108.07 268.32 109.59C268.32 111.11 268.06 112.56 267.53 113.84C267.01 115.11 266.2 116.2 265.12 117.11C264.04 118.02 262.67 118.71 261.02 119.19C259.37 119.67 257.43 119.91 255.2 119.91H242.56V119.9ZM248.43 114.94H254.73C257.53 114.94 259.5 114.47 260.65 113.53C261.79 112.59 262.37 111.28 262.37 109.59C262.37 107.9 261.8 106.54 260.65 105.61C259.5 104.67 257.53 104.2 254.73 104.2H248.43V114.93V114.94Z" fill="#1F4693"/><path d="M274.57 119.9V86.5H280.44V110.69L296.61 86.5H302.24V119.9H296.37V95.71L280.2 119.9H274.57Z" fill="#1F4693"/><path d="M322.14 120.43C320.07 120.43 318.23 120.18 316.61 119.67C314.99 119.16 313.62 118.45 312.51 117.52C311.4 116.6 310.52 115.49 309.89 114.2C309.25 112.91 308.89 111.47 308.79 109.88H314.71C314.84 110.74 315.08 111.52 315.45 112.22C315.81 112.92 316.31 113.52 316.93 114.01C317.55 114.5 318.29 114.88 319.15 115.13C320.01 115.38 321.01 115.51 322.15 115.51C324.76 115.51 326.64 115.05 327.8 114.13C328.96 113.21 329.54 111.94 329.54 110.31C329.54 109.52 329.41 108.79 329.16 108.14C328.9 107.49 328.48 106.92 327.9 106.45C327.31 105.97 326.54 105.6 325.59 105.33C324.64 105.06 323.49 104.92 322.15 104.92H318.1V100.53H322.15C324.31 100.53 325.89 100.05 326.87 99.1C327.86 98.15 328.35 96.99 328.35 95.62C328.35 94.25 327.85 93.12 326.85 92.23C325.85 91.34 324.28 90.89 322.15 90.89C321.04 90.89 320.08 91 319.26 91.22C318.45 91.44 317.77 91.76 317.23 92.17C316.69 92.58 316.28 93.1 315.99 93.72C315.7 94.34 315.51 95.03 315.42 95.79H309.5C309.6 94.3 309.93 92.94 310.5 91.71C311.07 90.49 311.88 89.45 312.91 88.61C313.94 87.77 315.23 87.12 316.77 86.65C318.31 86.19 320.1 85.96 322.14 85.96C326.21 85.96 329.26 86.8 331.28 88.49C333.3 90.18 334.31 92.47 334.31 95.36C334.31 97.11 333.82 98.6 332.86 99.82C331.89 101.04 330.59 101.93 328.97 102.47C330.97 102.95 332.56 103.86 333.74 105.21C334.92 106.56 335.51 108.33 335.51 110.53C335.51 111.96 335.22 113.28 334.65 114.49C334.08 115.7 333.23 116.74 332.12 117.62C331.01 118.5 329.62 119.18 327.95 119.67C326.28 120.16 324.35 120.41 322.15 120.41L322.14 120.43Z" fill="#1F4693"/><path d="M341.89 119.9V86.5H347.76V100.24H363.69V86.5H369.56V119.9H363.69V105.21H347.76V119.9H341.89Z" fill="#1F4693"/><path d="M378.2 119.9V86.5H400.62V91.32H384.06V100.38H399.18V105.06H384.06V115.08H400.62V119.9H378.2Z" fill="#1F4693"/><path d="M420.23 120.43C418.23 120.43 416.34 120.11 414.58 119.48C412.81 118.84 411.27 117.83 409.95 116.45C408.63 115.07 407.59 113.3 406.82 111.15C406.06 109 405.68 106.44 405.68 103.44V102.49C405.68 99.6 406.07 97.12 406.85 95.05C407.63 92.98 408.69 91.28 410.02 89.94C411.36 88.6 412.91 87.61 414.67 86.96C416.44 86.31 418.29 85.98 420.23 85.98C422.17 85.98 423.78 86.21 425.36 86.67C426.94 87.13 428.32 87.82 429.51 88.75C430.7 89.67 431.67 90.82 432.42 92.19C433.17 93.56 433.64 95.16 433.83 97.01H427.68C427.3 94.94 426.46 93.43 425.15 92.48C423.85 91.53 422.21 91.05 420.24 91.05C419.13 91.05 418.07 91.26 417.07 91.67C416.07 92.08 415.18 92.74 414.4 93.63C413.62 94.52 413 95.7 412.54 97.16C412.08 98.62 411.85 100.4 411.85 102.5V103.45C411.85 105.68 412.1 107.55 412.59 109.06C413.08 110.57 413.73 111.8 414.52 112.73C415.31 113.67 416.22 114.35 417.24 114.76C418.26 115.17 419.26 115.38 420.25 115.38C422.44 115.38 424.17 114.85 425.43 113.78C426.69 112.72 427.44 111.26 427.7 109.41H433.85C433.63 111.38 433.13 113.06 432.37 114.44C431.61 115.82 430.62 116.96 429.41 117.85C428.2 118.74 426.82 119.39 425.26 119.81C423.7 120.22 422.03 120.43 420.25 120.43H420.23Z" fill="#1F4693"/><path d="M435.88 119.9L448.43 86.5H454.3L466.9 119.9H460.6L457.74 112.22H444.57L441.71 119.9H435.89H435.88ZM446.37 107.45H455.91L451.14 93.8L446.37 107.45Z" fill="#1F4693"/><path d="M242.96 5.21997C243.15 4.75997 243.41 4.34996 243.75 4.00996C244.09 3.66996 244.49 3.39997 244.95 3.19997C245.41 3.00997 245.91 2.90997 246.45 2.90997C246.99 2.90997 247.49 3.00997 247.95 3.19997C248.41 3.38997 248.8 3.65996 249.14 4.00996C249.48 4.35996 249.74 4.75997 249.93 5.21997C250.12 5.67997 250.21 6.18997 250.21 6.72997C250.21 7.26997 250.12 7.76997 249.93 8.23997C249.74 8.70997 249.48 9.10997 249.14 9.44997C248.8 9.78997 248.4 10.06 247.95 10.26C247.49 10.45 246.99 10.55 246.45 10.55C245.91 10.55 245.41 10.45 244.95 10.26C244.49 10.07 244.09 9.79997 243.75 9.44997C243.41 9.10997 243.15 8.69997 242.96 8.23997C242.77 7.76997 242.68 7.26997 242.68 6.72997C242.68 6.18997 242.77 5.67997 242.96 5.21997ZM244 8.22997C244.24 8.66997 244.58 9.00997 245 9.26997C245.42 9.51997 245.91 9.64996 246.44 9.64996C246.97 9.64996 247.47 9.51997 247.89 9.26997C248.31 9.01997 248.64 8.66997 248.89 8.22997C249.13 7.78997 249.26 7.28997 249.26 6.72997C249.26 6.16997 249.14 5.66997 248.89 5.22997C248.65 4.78997 248.31 4.43997 247.89 4.18997C247.47 3.93997 246.99 3.80997 246.44 3.80997C245.89 3.80997 245.42 3.93997 245 4.18997C244.58 4.43997 244.24 4.78997 244 5.22997C243.76 5.66997 243.63 6.16997 243.63 6.72997C243.63 7.28997 243.75 7.78997 244 8.22997Z" fill="#1F4693"/><path d="M255.49 3.01996V3.86995H252.41V10.45H251.51V3.02995H255.49V3.01996ZM252.01 5.98996H253.53C254.01 5.98996 254.44 6.07995 254.82 6.25995C255.2 6.43995 255.5 6.69995 255.72 7.02995C255.94 7.35995 256.05 7.75996 256.05 8.21996C256.05 8.67996 255.94 9.06995 255.72 9.39995C255.5 9.73995 255.2 9.98995 254.82 10.17C254.44 10.35 254.01 10.44 253.53 10.44H252.01V9.58995H253.53C253.85 9.58995 254.13 9.53996 254.37 9.43996C254.61 9.33996 254.8 9.17995 254.94 8.97995C255.08 8.76995 255.15 8.51996 255.15 8.21996C255.15 7.91996 255.08 7.65996 254.94 7.45996C254.8 7.24996 254.61 7.09995 254.37 6.99995C254.13 6.89995 253.84 6.84996 253.53 6.84996H252.01V5.99995V5.98996Z" fill="#1F4693"/><path d="M265.21 3.01996H266.11V9.59996H267.01V11.61H266.21V10.44H257.35V3.01996H258.25V9.59996H261.27V3.01996H262.17V9.59996H265.19V3.01996H265.21Z" fill="#1F4693"/><path d="M269.22 3.01996V10.44H268.32V3.01996H269.22ZM268.81 3.01996H272.55V3.86995H268.81V3.01996ZM268.81 5.98996H272.34V6.83995H268.81V5.98996ZM268.81 9.59996H272.55V10.45H268.81V9.59996Z" fill="#1F4693"/><path d="M275.08 3.01996V10.44H274.18V3.01996H275.08ZM274.68 3.01996H276.2C276.68 3.01996 277.11 3.10995 277.49 3.28995C277.87 3.46995 278.17 3.72995 278.39 4.05995C278.61 4.38995 278.72 4.78995 278.72 5.24995C278.72 5.70995 278.61 6.09995 278.39 6.42995C278.17 6.76995 277.87 7.01995 277.49 7.19995C277.11 7.37995 276.68 7.46996 276.2 7.46996H274.68V6.61995H276.2C276.68 6.61995 277.07 6.49996 277.37 6.26996C277.67 6.03996 277.82 5.68996 277.82 5.23996C277.82 4.78996 277.67 4.43996 277.37 4.20996C277.07 3.97996 276.68 3.86995 276.2 3.86995H274.68V3.01996Z" fill="#1F4693"/><path d="M279.88 5.21997C280.07 4.75997 280.33 4.34996 280.67 4.00996C281.01 3.66996 281.41 3.39997 281.87 3.19997C282.33 3.00997 282.83 2.90997 283.37 2.90997C283.91 2.90997 284.41 3.00997 284.87 3.19997C285.33 3.38997 285.72 3.65996 286.06 4.00996C286.4 4.34996 286.66 4.75997 286.85 5.21997C287.04 5.67997 287.13 6.18997 287.13 6.72997C287.13 7.26997 287.04 7.76997 286.85 8.23997C286.66 8.70997 286.4 9.10997 286.06 9.44997C285.72 9.78997 285.32 10.06 284.87 10.26C284.41 10.45 283.91 10.55 283.37 10.55C282.83 10.55 282.33 10.45 281.87 10.26C281.41 10.07 281.01 9.79997 280.67 9.44997C280.33 9.10997 280.07 8.69997 279.88 8.23997C279.69 7.76997 279.6 7.26997 279.6 6.72997C279.6 6.18997 279.69 5.67997 279.88 5.21997ZM280.92 8.22997C281.16 8.66997 281.5 9.00997 281.92 9.26997C282.34 9.51997 282.83 9.64996 283.36 9.64996C283.89 9.64996 284.39 9.51997 284.81 9.26997C285.23 9.01997 285.56 8.66997 285.81 8.22997C286.05 7.78997 286.18 7.28997 286.18 6.72997C286.18 6.16997 286.06 5.66997 285.81 5.22997C285.57 4.78997 285.23 4.43997 284.81 4.18997C284.39 3.93997 283.91 3.80997 283.36 3.80997C282.81 3.80997 282.34 3.93997 281.92 4.18997C281.5 4.43997 281.16 4.78997 280.92 5.22997C280.68 5.66997 280.55 6.16997 280.55 6.72997C280.55 7.28997 280.67 7.78997 280.92 8.22997Z" fill="#1F4693"/><path d="M289.35 8.24997C289.61 8.68997 289.95 9.02997 290.36 9.27997C290.78 9.52997 291.23 9.64996 291.72 9.64996C292.07 9.64996 292.4 9.59996 292.69 9.50996C292.98 9.41996 293.25 9.28996 293.49 9.11996C293.73 8.94996 293.94 8.75996 294.1 8.53996V9.72997C293.79 10.01 293.45 10.21 293.08 10.34C292.71 10.47 292.26 10.54 291.71 10.54C291.16 10.54 290.71 10.45 290.26 10.26C289.81 10.07 289.42 9.80998 289.08 9.45998C288.74 9.11998 288.48 8.70997 288.28 8.24997C288.09 7.77997 287.99 7.26997 287.99 6.71997C287.99 6.16997 288.09 5.65997 288.28 5.18997C288.47 4.71997 288.74 4.31997 289.08 3.97997C289.42 3.63997 289.81 3.36996 290.26 3.17996C290.71 2.98996 291.19 2.89996 291.71 2.89996C292.25 2.89996 292.71 2.96998 293.08 3.09998C293.45 3.22998 293.79 3.43998 294.1 3.70998V4.89996C293.93 4.67996 293.73 4.48998 293.49 4.31998C293.25 4.14998 292.98 4.02996 292.69 3.92996C292.4 3.83996 292.07 3.78996 291.72 3.78996C291.23 3.78996 290.78 3.90997 290.36 4.15997C289.94 4.40997 289.6 4.74996 289.35 5.17996C289.09 5.60996 288.96 6.11997 288.96 6.69997C288.96 7.27997 289.09 7.77997 289.35 8.21997V8.24997Z" fill="#1F4693"/><path d="M296.65 8.24997C296.91 8.68997 297.25 9.02997 297.66 9.27997C298.08 9.52997 298.53 9.64996 299.02 9.64996C299.37 9.64996 299.7 9.59996 299.99 9.50996C300.28 9.41996 300.55 9.28996 300.79 9.11996C301.03 8.94996 301.24 8.75996 301.4 8.53996V9.72997C301.09 10.01 300.75 10.21 300.38 10.34C300.01 10.47 299.56 10.54 299.01 10.54C298.46 10.54 298.01 10.45 297.56 10.26C297.11 10.07 296.72 9.80998 296.38 9.45998C296.04 9.11998 295.78 8.70997 295.58 8.24997C295.39 7.77997 295.29 7.26997 295.29 6.71997C295.29 6.16997 295.38 5.65997 295.58 5.18997C295.77 4.71997 296.04 4.31997 296.38 3.97997C296.72 3.63997 297.11 3.36996 297.56 3.17996C298.01 2.98996 298.49 2.89996 299.01 2.89996C299.55 2.89996 300.01 2.96998 300.38 3.09998C300.75 3.22998 301.09 3.43998 301.4 3.70998V4.89996C301.23 4.67996 301.03 4.48998 300.79 4.31998C300.55 4.14998 300.28 4.02996 299.99 3.92996C299.7 3.83996 299.37 3.78996 299.02 3.78996C298.53 3.78996 298.08 3.90997 297.66 4.15997C297.24 4.40997 296.9 4.74996 296.65 5.17996C296.39 5.60996 296.26 6.11997 296.26 6.69997C296.26 7.27997 296.39 7.77997 296.65 8.21997V8.24997Z" fill="#1F4693"/><path d="M303.03 10.82L303.08 9.43997L309.55 2.64996L309.5 4.02997L303.03 10.82ZM303.93 9.64996L303.03 10.82V3.02997H303.93V9.65997V9.64996ZM309.55 10.45H308.65V3.81998L309.55 2.64996V10.44V10.45Z" fill="#1F4693"/><path d="M311.28 10.82L311.33 9.43997L317.8 2.64996L317.75 4.02997L311.28 10.82ZM312.18 9.64996L311.28 10.82V3.02997H312.18V9.65997V9.64996ZM313.91 0.849976C313.91 0.939976 313.93 1.04997 313.98 1.16997C314.03 1.28997 314.12 1.39997 314.26 1.49997C314.39 1.59997 314.58 1.63997 314.83 1.63997C315.08 1.63997 315.27 1.58997 315.4 1.49997C315.53 1.39997 315.63 1.29997 315.68 1.16997C315.73 1.04997 315.75 0.939976 315.75 0.849976H316.5C316.5 1.08998 316.44 1.32997 316.31 1.54997C316.19 1.77997 316 1.96997 315.75 2.10997C315.5 2.25997 315.19 2.32997 314.82 2.32997C314.45 2.32997 314.14 2.25997 313.89 2.10997C313.64 1.95997 313.45 1.77997 313.33 1.54997C313.21 1.31997 313.14 1.08998 313.14 0.849976H313.89H313.91ZM317.8 10.45H316.9V3.81998L317.8 2.64996V10.44V10.45Z" fill="#1F4693"/><path d="M320.45 8.24997C320.71 8.68997 321.05 9.02997 321.46 9.27997C321.88 9.52997 322.33 9.64996 322.82 9.64996C323.17 9.64996 323.5 9.59996 323.79 9.50996C324.08 9.41996 324.35 9.28996 324.59 9.11996C324.83 8.94996 325.04 8.75996 325.2 8.53996V9.72997C324.89 10.01 324.55 10.21 324.18 10.34C323.81 10.47 323.36 10.54 322.81 10.54C322.26 10.54 321.81 10.45 321.36 10.26C320.91 10.07 320.52 9.80998 320.18 9.45998C319.84 9.11998 319.58 8.70997 319.38 8.24997C319.19 7.77997 319.09 7.26997 319.09 6.71997C319.09 6.16997 319.18 5.65997 319.38 5.18997C319.57 4.71997 319.84 4.31997 320.18 3.97997C320.52 3.63997 320.91 3.36996 321.36 3.17996C321.81 2.98996 322.29 2.89996 322.81 2.89996C323.35 2.89996 323.81 2.96998 324.18 3.09998C324.55 3.22998 324.89 3.43998 325.2 3.70998V4.89996C325.03 4.67996 324.83 4.48998 324.59 4.31998C324.35 4.14998 324.08 4.02996 323.79 3.92996C323.5 3.83996 323.17 3.78996 322.82 3.78996C322.33 3.78996 321.88 3.90997 321.46 4.15997C321.04 4.40997 320.7 4.74996 320.45 5.17996C320.19 5.60996 320.06 6.11997 320.06 6.69997C320.06 7.27997 320.19 7.77997 320.45 8.21997V8.24997Z" fill="#1F4693"/><path d="M327.73 3.01996V10.44H326.83V3.01996H327.73ZM331.76 3.01996L328.55 6.49995L331.92 10.45H330.81L327.46 6.52995L330.65 3.02995H331.76V3.01996Z" fill="#1F4693"/><path d="M334.25 7.64996L334.16 7.83997L333.06 10.45H332.05L335.5 2.65997L338.95 10.45H337.94L336.86 7.89996L336.78 7.68997L335.51 4.69997L334.26 7.64996H334.25ZM333.88 7.36996H337.17L337.49 8.21997H333.57L333.89 7.36996H333.88Z" fill="#1F4693"/><path d="M340.25 10.45H339.14L341.79 6.78996H342.8L340.25 10.45ZM342.11 3.81998C341.79 3.81998 341.51 3.87997 341.27 3.98997C341.03 4.09997 340.83 4.26997 340.7 4.47997C340.56 4.68997 340.49 4.94997 340.49 5.24997C340.49 5.54997 340.56 5.80997 340.7 6.01997C340.84 6.22997 341.03 6.38996 341.27 6.50996C341.51 6.61996 341.79 6.67996 342.11 6.67996H343.63V7.47997H342.11C341.64 7.47997 341.21 7.38998 340.83 7.20998C340.45 7.02998 340.15 6.76997 339.92 6.43997C339.7 6.09997 339.59 5.70996 339.59 5.25996C339.59 4.80996 339.7 4.39998 339.92 4.06998C340.14 3.73998 340.45 3.47997 340.83 3.29997C341.21 3.11997 341.64 3.02997 342.11 3.02997H343.63V3.82997H342.11V3.81998ZM344.12 10.45H343.22V3.02997H344.12V10.45Z" fill="#1F4693"/><path d="M348.92 5.21997C349.11 4.75997 349.37 4.34996 349.71 4.00996C350.05 3.66996 350.45 3.39997 350.91 3.19997C351.37 3.00997 351.87 2.90997 352.41 2.90997C352.95 2.90997 353.45 3.00997 353.91 3.19997C354.37 3.38997 354.76 3.65996 355.1 4.00996C355.44 4.34996 355.7 4.75997 355.89 5.21997C356.08 5.67997 356.17 6.18997 356.17 6.72997C356.17 7.26997 356.08 7.76997 355.89 8.23997C355.7 8.70997 355.44 9.10997 355.1 9.44997C354.76 9.78997 354.36 10.06 353.91 10.26C353.45 10.45 352.95 10.55 352.41 10.55C351.87 10.55 351.37 10.45 350.91 10.26C350.45 10.07 350.05 9.79997 349.71 9.44997C349.37 9.10997 349.11 8.69997 348.92 8.23997C348.73 7.76997 348.64 7.26997 348.64 6.72997C348.64 6.18997 348.73 5.67997 348.92 5.21997ZM349.96 8.22997C350.2 8.66997 350.54 9.00997 350.96 9.26997C351.38 9.51997 351.87 9.64996 352.4 9.64996C352.93 9.64996 353.43 9.51997 353.85 9.26997C354.27 9.01997 354.6 8.66997 354.85 8.22997C355.09 7.78997 355.22 7.28997 355.22 6.72997C355.22 6.16997 355.1 5.66997 354.85 5.22997C354.61 4.78997 354.27 4.43997 353.85 4.18997C353.43 3.93997 352.95 3.80997 352.4 3.80997C351.85 3.80997 351.38 3.93997 350.96 4.18997C350.54 4.43997 350.2 4.78997 349.96 5.22997C349.72 5.66997 349.59 6.16997 349.59 6.72997C349.59 7.28997 349.71 7.78997 349.96 8.22997Z" fill="#1F4693"/><path d="M361.45 3.01996V3.86995H358.37V10.45H357.47V3.02995H361.45V3.01996ZM357.97 5.98996H359.49C359.97 5.98996 360.4 6.07995 360.78 6.25995C361.16 6.43995 361.46 6.69995 361.68 7.02995C361.9 7.35995 362.01 7.75996 362.01 8.21996C362.01 8.67996 361.9 9.06995 361.68 9.39995C361.46 9.73995 361.16 9.98995 360.78 10.17C360.4 10.35 359.97 10.44 359.49 10.44H357.97V9.58995H359.49C359.81 9.58995 360.09 9.53996 360.33 9.43996C360.57 9.33996 360.76 9.17995 360.9 8.97995C361.04 8.76995 361.11 8.51996 361.11 8.21996C361.11 7.91996 361.04 7.65996 360.9 7.45996C360.76 7.24996 360.57 7.09995 360.33 6.99995C360.09 6.89995 359.8 6.84996 359.49 6.84996H357.97V5.99995V5.98996Z" fill="#1F4693"/><path d="M371.17 3.01996H372.07V9.59996H372.97V11.61H372.17V10.44H363.31V3.01996H364.21V9.59996H367.23V3.01996H368.13V9.59996H371.15V3.01996H371.17Z" fill="#1F4693"/><path d="M375.17 3.01996V10.44H374.27V3.01996H375.17ZM374.77 3.01996H378.51V3.86995H374.77V3.01996ZM374.77 5.98996H378.3V6.83995H374.77V5.98996ZM374.77 9.59996H378.51V10.45H374.77V9.59996Z" fill="#1F4693"/><path d="M381.06 8.24997C381.32 8.68997 381.66 9.02997 382.07 9.27997C382.49 9.52997 382.94 9.64996 383.43 9.64996C383.78 9.64996 384.11 9.59996 384.4 9.50996C384.69 9.41996 384.96 9.28996 385.2 9.11996C385.44 8.94996 385.65 8.75996 385.81 8.53996V9.72997C385.5 10.01 385.16 10.21 384.79 10.34C384.42 10.47 383.97 10.54 383.42 10.54C382.87 10.54 382.42 10.45 381.97 10.26C381.52 10.07 381.13 9.80998 380.79 9.45998C380.45 9.11998 380.19 8.70997 379.99 8.24997C379.8 7.77997 379.7 7.26997 379.7 6.71997C379.7 6.16997 379.79 5.65997 379.99 5.18997C380.18 4.71997 380.45 4.31997 380.79 3.97997C381.13 3.63997 381.52 3.36996 381.97 3.17996C382.42 2.98996 382.9 2.89996 383.42 2.89996C383.96 2.89996 384.42 2.96998 384.79 3.09998C385.16 3.22998 385.5 3.43998 385.81 3.70998V4.89996C385.64 4.67996 385.44 4.48998 385.2 4.31998C384.96 4.14998 384.69 4.02996 384.4 3.92996C384.11 3.83996 383.78 3.78996 383.43 3.78996C382.94 3.78996 382.49 3.90997 382.07 4.15997C381.65 4.40997 381.31 4.74996 381.06 5.17996C380.8 5.60996 380.67 6.11997 380.67 6.69997C380.67 7.27997 380.8 7.77997 381.06 8.21997V8.24997Z" fill="#1F4693"/><path d="M386.69 3.01996H391.41V3.86995H389.5V10.45H388.6V3.86995H386.69V3.01996Z" fill="#1F4693"/><path d="M393.11 6.01997H394.31C394.56 6.01997 394.78 5.97997 394.98 5.88997C395.18 5.79997 395.33 5.67997 395.45 5.51997C395.56 5.35997 395.62 5.15996 395.62 4.92996C395.62 4.57996 395.5 4.29997 395.25 4.10997C395 3.91997 394.69 3.81998 394.32 3.81998H393.31V9.64996H394.42C394.74 9.64996 395.02 9.58997 395.26 9.47997C395.5 9.36997 395.69 9.19997 395.83 8.98997C395.97 8.77997 396.04 8.51997 396.04 8.21997C396.04 7.98997 396 7.78996 395.92 7.61996C395.84 7.44996 395.73 7.29997 395.59 7.16997C395.44 7.04997 395.27 6.95996 395.07 6.89996C394.87 6.83996 394.65 6.80997 394.41 6.80997H393.11V6.30997H394.41C394.77 6.30997 395.1 6.34996 395.41 6.42996C395.72 6.50996 395.98 6.62996 396.21 6.78996C396.44 6.94996 396.62 7.14996 396.75 7.39996C396.88 7.64996 396.94 7.93997 396.94 8.27997C396.94 8.76997 396.83 9.16997 396.61 9.48997C396.39 9.80997 396.09 10.05 395.71 10.21C395.33 10.37 394.9 10.45 394.42 10.45H392.41V3.02997H394.32C394.77 3.02997 395.15 3.09997 395.48 3.22997C395.81 3.35997 396.07 3.56997 396.25 3.83997C396.43 4.10997 396.53 4.45997 396.53 4.88997C396.53 5.23997 396.44 5.52997 396.25 5.77997C396.07 6.02997 395.81 6.20997 395.48 6.33997C395.15 6.46997 394.76 6.52997 394.32 6.52997H393.12V6.02997L393.11 6.01997Z" fill="#1F4693"/><path d="M399.25 3.01996V10.44H398.35V3.01996H399.25ZM398.85 3.01996H402.59V3.86995H398.85V3.01996ZM398.85 5.98996H402.38V6.83995H398.85V5.98996ZM398.85 9.59996H402.59V10.45H398.85V9.59996Z" fill="#1F4693"/><path d="M405.11 3.01996V10.44H404.21V3.01996H405.11ZM404.71 5.98996H409.8V6.83995H404.71V5.98996ZM410.1 3.01996V10.44H409.2V3.01996H410.1Z" fill="#1F4693"/><path d="M412.73 3.01996V10.44H411.83V3.01996H412.73ZM412.33 5.98996H417.42V6.83995H412.33V5.98996ZM417.71 3.01996V10.44H416.81V3.01996H417.71Z" fill="#1F4693"/><path d="M420.84 7.64996L420.75 7.83997L419.65 10.45H418.64L422.09 2.65997L425.54 10.45H424.53L423.45 7.89996L423.37 7.68997L422.1 4.69997L420.85 7.64996H420.84ZM420.47 7.36996H423.76L424.08 8.21997H420.16L420.48 7.36996H420.47Z" fill="#1F4693"/><path d="M426.84 10.45H425.73L428.38 6.78996H429.39L426.84 10.45ZM428.7 3.81998C428.38 3.81998 428.1 3.87997 427.86 3.98997C427.62 4.09997 427.42 4.26997 427.29 4.47997C427.15 4.68997 427.08 4.94997 427.08 5.24997C427.08 5.54997 427.15 5.80997 427.29 6.01997C427.43 6.22997 427.62 6.38996 427.86 6.50996C428.1 6.61996 428.38 6.67996 428.7 6.67996H430.22V7.47997H428.7C428.23 7.47997 427.8 7.38998 427.42 7.20998C427.04 7.02998 426.74 6.76997 426.51 6.43997C426.29 6.09997 426.18 5.70996 426.18 5.25996C426.18 4.80996 426.29 4.39998 426.51 4.06998C426.73 3.73998 427.04 3.47997 427.42 3.29997C427.8 3.11997 428.23 3.02997 428.7 3.02997H430.22V3.82997H428.7V3.81998ZM430.71 10.45H429.81V3.02997H430.71V10.45Z" fill="#1F4693"/><path d="M435.51 5.21997C435.7 4.75997 435.96 4.34996 436.3 4.00996C436.64 3.66996 437.04 3.39997 437.5 3.19997C437.96 3.00997 438.46 2.90997 439 2.90997C439.54 2.90997 440.04 3.00997 440.5 3.19997C440.96 3.38997 441.35 3.65996 441.69 4.00996C442.03 4.34996 442.29 4.75997 442.48 5.21997C442.67 5.67997 442.76 6.18997 442.76 6.72997C442.76 7.26997 442.67 7.76997 442.48 8.23997C442.29 8.70997 442.03 9.10997 441.69 9.44997C441.35 9.78997 440.95 10.06 440.5 10.26C440.04 10.45 439.54 10.55 439 10.55C438.46 10.55 437.96 10.45 437.5 10.26C437.04 10.07 436.64 9.79997 436.3 9.44997C435.96 9.10997 435.7 8.69997 435.51 8.23997C435.32 7.76997 435.23 7.26997 435.23 6.72997C435.23 6.18997 435.32 5.67997 435.51 5.21997ZM436.55 8.22997C436.79 8.66997 437.13 9.00997 437.55 9.26997C437.97 9.51997 438.46 9.64996 438.99 9.64996C439.52 9.64996 440.02 9.51997 440.44 9.26997C440.86 9.01997 441.19 8.66997 441.44 8.22997C441.68 7.78997 441.81 7.28997 441.81 6.72997C441.81 6.16997 441.69 5.66997 441.44 5.22997C441.2 4.78997 440.86 4.43997 440.44 4.18997C440.02 3.93997 439.54 3.80997 438.99 3.80997C438.44 3.80997 437.97 3.93997 437.55 4.18997C437.13 4.43997 436.79 4.78997 436.55 5.22997C436.31 5.66997 436.18 6.16997 436.18 6.72997C436.18 7.28997 436.3 7.78997 436.55 8.22997Z" fill="#1F4693"/><path d="M444.97 3.01996V10.44H444.07V3.01996H444.97ZM444.57 3.01996H446.09C446.57 3.01996 447 3.10995 447.38 3.28995C447.76 3.46995 448.06 3.72995 448.28 4.05995C448.5 4.38995 448.61 4.78995 448.61 5.24995C448.61 5.70995 448.5 6.09995 448.28 6.42995C448.06 6.76995 447.76 7.01995 447.38 7.19995C447 7.37995 446.57 7.46996 446.09 7.46996H444.57V6.61995H446.09C446.57 6.61995 446.96 6.49996 447.26 6.26996C447.56 6.03996 447.71 5.68996 447.71 5.23996C447.71 4.78996 447.56 4.43996 447.26 4.20996C446.96 3.97996 446.57 3.86995 446.09 3.86995H444.57V3.01996Z" fill="#1F4693"/><path d="M453.57 3.01996V3.86995H450.81V10.45H449.91V3.02995H453.57V3.01996Z" fill="#1F4693"/><path d="M455.95 7.64996L455.86 7.83997L454.76 10.45H453.75L457.2 2.65997L460.65 10.45H459.64L458.56 7.89996L458.48 7.68997L457.21 4.69997L455.96 7.64996H455.95ZM455.58 7.36996H458.87L459.19 8.21997H455.27L455.59 7.36996H455.58Z" fill="#1F4693"/><path d="M462.49 3.01996V10.44H461.59V3.01996H462.49ZM462.08 5.98996H467.17V6.83995H462.08V5.98996ZM467.47 3.01996V10.44H466.57V3.01996H467.47Z" fill="#1F4693"/><path d="M469.2 10.82L469.25 9.43997L475.72 2.64996L475.67 4.02997L469.2 10.82ZM470.1 9.64996L469.2 10.82V3.02997H470.1V9.65997V9.64996ZM475.72 10.45H474.82V3.81998L475.72 2.64996V10.44V10.45Z" fill="#1F4693"/><path d="M478.77 10.39C478.44 10.28 478.16 10.14 477.93 9.94997C477.7 9.75997 477.53 9.53996 477.42 9.28996C477.3 9.03996 477.25 8.76997 477.25 8.47997H478.16C478.19 8.70997 478.27 8.91997 478.4 9.10997C478.53 9.28997 478.72 9.43997 478.97 9.54997C479.22 9.65997 479.54 9.70998 479.93 9.70998C480.52 9.70998 480.95 9.58998 481.22 9.34998C481.5 9.10998 481.63 8.78997 481.63 8.37997C481.63 8.07997 481.54 7.81996 481.36 7.61996C481.18 7.41996 480.94 7.25997 480.64 7.15997C480.34 7.05997 479.99 7.00996 479.6 7.00996V6.42996C480.15 6.42996 480.65 6.49997 481.1 6.63997C481.55 6.77997 481.9 6.99997 482.16 7.29997C482.42 7.59997 482.55 7.99997 482.55 8.48997C482.55 8.90997 482.45 9.26997 482.24 9.57997C482.03 9.88997 481.73 10.13 481.34 10.3C480.95 10.47 480.48 10.55 479.92 10.55C479.48 10.55 479.1 10.5 478.76 10.39H478.77ZM479.6 6.19997C479.99 6.19997 480.32 6.13997 480.59 6.02997C480.86 5.90997 481.06 5.75997 481.21 5.55997C481.35 5.36997 481.42 5.14997 481.42 4.91997C481.42 4.68997 481.37 4.47997 481.26 4.29997C481.15 4.11997 480.99 3.97997 480.78 3.87997C480.56 3.77997 480.3 3.72997 479.98 3.72997C479.68 3.72997 479.42 3.77997 479.18 3.87997C478.94 3.97997 478.76 4.10997 478.62 4.27997C478.49 4.44997 478.42 4.63997 478.42 4.85997H477.56C477.56 4.46997 477.66 4.12997 477.86 3.83997C478.06 3.54997 478.34 3.31997 478.71 3.15997C479.07 2.98997 479.49 2.90997 479.97 2.90997C480.45 2.90997 480.89 2.99997 481.24 3.18997C481.59 3.36997 481.87 3.60997 482.06 3.90997C482.25 4.20997 482.35 4.52997 482.35 4.88997C482.35 5.14997 482.28 5.39997 482.15 5.62997C482.02 5.85997 481.83 6.05997 481.59 6.22997C481.35 6.39997 481.06 6.53997 480.73 6.63997C480.39 6.73997 480.02 6.78996 479.61 6.78996V6.20998L479.6 6.19997Z" fill="#1F4693"/><path d="M485.31 7.64996L485.22 7.83997L484.12 10.45H483.11L486.56 2.65997L490.01 10.45H489L487.92 7.89996L487.84 7.68997L486.57 4.69997L485.32 7.64996H485.31ZM484.94 7.36996H488.23L488.55 8.21997H484.63L484.95 7.36996H484.94Z" fill="#1F4693"/><path d="M495.93 9.59996V3.01996H496.83V9.59996H497.73V11.61H496.93V10.44H490.94V3.01996H491.84V9.59996H495.92H495.93Z" fill="#1F4693"/><path d="M499.03 10.82L499.08 9.43997L505.55 2.64996L505.5 4.02997L499.03 10.82ZM499.94 9.64996L499.04 10.82V3.02997H499.94V9.65997V9.64996ZM505.56 10.45H504.66V3.81998L505.56 2.64996V10.44V10.45Z" fill="#1F4693"/><path d="M507.66 10.45H506.55L509.2 6.78996H510.21L507.66 10.45ZM509.51 3.81998C509.19 3.81998 508.91 3.87997 508.67 3.98997C508.43 4.09997 508.23 4.26997 508.1 4.47997C507.96 4.68997 507.89 4.94997 507.89 5.24997C507.89 5.54997 507.96 5.80997 508.1 6.01997C508.24 6.22997 508.43 6.38996 508.67 6.50996C508.91 6.61996 509.19 6.67996 509.51 6.67996H511.03V7.47997H509.51C509.04 7.47997 508.61 7.38998 508.23 7.20998C507.85 7.02998 507.55 6.76997 507.32 6.43997C507.1 6.09997 506.99 5.70996 506.99 5.25996C506.99 4.80996 507.1 4.39998 507.32 4.06998C507.54 3.73998 507.85 3.47997 508.23 3.29997C508.61 3.11997 509.04 3.02997 509.51 3.02997H511.03V3.82997H509.51V3.81998ZM511.53 10.45H510.63V3.02997H511.53V10.45Z" fill="#1F4693"/><path d="M204.57 35.85H166.07C161 35.85 156.32 38.55 153.79 42.94L121.37 99.1L106.36 73.11C106.36 73.11 106.36 73.08 106.36 73.07L124.81 41.11C127.03 37.27 128.2 32.91 128.2 28.48C128.2 26.54 127.98 24.66 127.57 22.84C124.99 11.3 114.67 2.64001 102.37 2.64001C90.07 2.64001 79.87 11.19 77.22 22.62C76.78 24.5 76.54 26.46 76.54 28.47C76.54 32.71 77.66 36.87 79.78 40.54L98.55 73.06C98.55 73.06 98.55 73.09 98.55 73.1L83.54 99.09L76.53 86.95L51.11 42.92C48.58 38.53 43.89 35.83 38.83 35.83H0.330006C0.330006 35.83 0.310003 35.86 0.300003 35.89L40.41 105.36C42.96 109.77 46.62 113.44 51.03 115.98L52.85 117.03C53.95 117.67 55.09 118.2 56.24 118.65C59.09 119.76 62.07 120.3 65.01 120.3C69.03 120.3 72.99 119.29 76.53 117.4C76.7 117.31 76.87 117.23 77.03 117.14C79.24 115.89 81.27 114.28 83.03 112.35C83.06 112.31 83.09 112.27 83.13 112.24C84.25 111 85.27 109.62 86.13 108.12L87.34 106.02H117.54L118.75 108.12C119.57 109.55 120.53 110.85 121.58 112.04C121.67 112.14 121.76 112.25 121.85 112.35C123.61 114.28 125.64 115.9 127.85 117.14C127.96 117.2 128.07 117.25 128.18 117.31C131.76 119.26 135.78 120.3 139.87 120.3C142.81 120.3 145.79 119.75 148.64 118.65C149.79 118.2 150.93 117.67 152.03 117.03L153.85 115.98C158.26 113.43 161.93 109.77 164.47 105.36L204.58 35.89C204.58 35.89 204.56 35.86 204.55 35.83L204.57 35.85ZM85.09 35.4C83.82 33.19 83.15 30.69 83.15 28.14C83.15 17.7 91.25 8.79002 101.67 8.41002C112.59 8.02002 121.61 16.79 121.61 27.63C121.61 30.71 120.8 33.73 119.26 36.4C114.15 45.25 102.5 65.44 102.5 65.44C102.48 65.47 102.45 65.47 102.43 65.44L85.09 35.4ZM79.42 105.25C78.58 106.45 77.61 107.49 76.54 108.42C75.66 109.18 74.72 109.86 73.72 110.43C71.07 111.93 68.07 112.72 65.03 112.72C64.47 112.72 52.31 112.72 44.45 97.38L12.53 42.08H38.02C41.08 42.08 43.9 43.71 45.43 46.36L76.56 100.27L79.44 105.26L79.42 105.25ZM91.36 98.26L102.42 79.09C102.42 79.09 102.47 79.06 102.49 79.09L113.55 98.26H91.35H91.36ZM160.47 97.37C152.62 112.71 140.45 112.71 139.89 112.71C136.85 112.71 133.84 111.92 131.2 110.42C130.13 109.82 129.13 109.09 128.2 108.27C127.2 107.38 126.29 106.38 125.49 105.24L128.2 100.55L159.5 46.34C161.03 43.69 163.85 42.06 166.91 42.06H192.4L160.48 97.36L160.47 97.37Z" fill="#1F4693"/></svg>