<svg width="29" height="32" viewBox="0 0 29 32" fill="none" xmlns="http://www.w3.org/2000/svg">
<path d="M9.69792 18.25V11.5C9.69792 10.0855 9.69792 9.379 9.27469 8.9395C8.85147 8.5 8.17114 8.5 6.80903 8.5H3.92014C2.55803 8.5 1.87769 8.5 1.45447 8.9395C1.03125 9.379 1.03125 10.0855 1.03125 11.5V25C1.03125 27.829 1.03125 29.242 1.87769 30.121C2.72414 31 4.08481 31 6.80903 31H9.69792M9.69792 18.25L14.4891 15.763C16.078 14.938 16.8725 14.524 17.4893 14.7985C17.621 14.8568 17.7437 14.9352 17.8533 15.031C18.3646 15.481 18.3646 16.4035 18.3646 18.25L22.851 15.9205C24.7245 14.9485 25.6605 14.461 26.3466 14.9005C27.0327 15.34 27.0312 16.429 27.0312 18.6055V25C27.0312 27.829 27.0312 29.242 26.1848 30.121C25.3384 31 23.9777 31 21.2535 31H9.69792M9.69792 18.25V31M1.03125 13H9.69792M15.4757 1H8.25347C6.89136 1 6.21103 1 5.78781 1.4395C5.36458 1.879 5.36458 2.5855 5.36458 4M19.809 1H21.2535M12.5868 5.5H21.2535" stroke="#6A8EE8" stroke-width="2" stroke-linecap="round" stroke-linejoin="round"/>
</svg>
