<svg width="41" height="37" viewBox="0 0 41 37" fill="none" xmlns="http://www.w3.org/2000/svg">
<path d="M12.4239 0C10.4469 0 8.55083 0.777843 7.15288 2.16241C5.75492 3.54698 4.96955 5.42486 4.96955 7.38294C4.96955 9.34101 5.75492 11.2189 7.15288 12.6035C8.55083 13.988 10.4469 14.7659 12.4239 14.7659C14.4009 14.7659 16.2969 13.988 17.6949 12.6035C19.0928 11.2189 19.8782 9.34101 19.8782 7.38294C19.8782 5.42486 19.0928 3.54698 17.6949 2.16241C16.2969 0.777843 14.4009 0 12.4239 0ZM7.45433 7.38294C7.45433 6.73658 7.58287 6.09654 7.83261 5.49939C8.08236 4.90223 8.44841 4.35963 8.90988 3.90259C9.37134 3.44554 9.91918 3.08299 10.5221 2.83564C11.1251 2.58829 11.7713 2.46098 12.4239 2.46098C13.0765 2.46098 13.7227 2.58829 14.3256 2.83564C14.9286 3.08299 15.4764 3.44554 15.9379 3.90259C16.3994 4.35963 16.7654 4.90223 17.0152 5.49939C17.2649 6.09654 17.3934 6.73658 17.3934 7.38294C17.3934 8.68832 16.8699 9.94024 15.9379 10.8633C15.0059 11.7863 13.7419 12.3049 12.4239 12.3049C11.1059 12.3049 9.84185 11.7863 8.90988 10.8633C7.97791 9.94024 7.45433 8.68832 7.45433 7.38294ZM29.8173 3.28131C29.0559 3.28131 28.302 3.42983 27.5986 3.71841C26.8952 4.00699 26.256 4.42996 25.7176 4.96318C25.1793 5.4964 24.7522 6.12943 24.4608 6.82611C24.1695 7.5228 24.0195 8.2695 24.0195 9.02359C24.0195 9.77768 24.1695 10.5244 24.4608 11.2211C24.7522 11.9178 25.1793 12.5508 25.7176 13.084C26.256 13.6172 26.8952 14.0402 27.5986 14.3288C28.302 14.6173 29.0559 14.7659 29.8173 14.7659C31.355 14.7659 32.8297 14.1609 33.917 13.084C35.0043 12.0071 35.6151 10.5465 35.6151 9.02359C35.6151 7.50064 35.0043 6.04007 33.917 4.96318C32.8297 3.88629 31.355 3.28131 29.8173 3.28131ZM26.5043 9.02359C26.5043 8.15333 26.8533 7.31872 27.4746 6.70336C28.096 6.08799 28.9386 5.74228 29.8173 5.74228C30.696 5.74228 31.5387 6.08799 32.16 6.70336C32.7813 7.31872 33.1304 8.15333 33.1304 9.02359C33.1304 9.89385 32.7813 10.7285 32.16 11.3438C31.5387 11.9592 30.696 12.3049 29.8173 12.3049C28.9386 12.3049 28.096 11.9592 27.4746 11.3438C26.8533 10.7285 26.5043 9.89385 26.5043 9.02359ZM3.72716 18.0472C2.73866 18.0472 1.79064 18.4361 1.09166 19.1284C0.392682 19.8207 0 20.7596 0 21.7386V22.6098C0.00126654 22.7426 0.0106707 22.8752 0.0281607 23.0069C0.0563215 23.2579 0.10933 23.6024 0.210378 24.011C0.484772 25.0881 0.972999 26.1004 1.64658 26.9887C3.32629 29.2085 6.52999 31.1724 12.4239 31.1724C14.96 31.1724 16.9992 30.8082 18.6309 30.2175C18.4148 29.4028 18.2838 28.5683 18.2399 27.727C16.8551 28.3095 14.9766 28.7114 12.4239 28.7114C7.13628 28.7114 4.74924 26.9838 3.6344 25.5121C3.16054 24.8859 2.81706 24.1726 2.62392 23.4138C2.55407 23.1404 2.50807 22.8615 2.48643 22.5803L2.48478 22.5508V21.7386C2.48478 21.4123 2.61567 21.0993 2.84866 20.8686C3.08166 20.6378 3.39766 20.5082 3.72716 20.5082H20.135C20.6803 19.6525 21.3302 18.8667 22.0698 18.1686C21.7598 18.0888 21.4409 18.048 21.1206 18.0472H3.72716ZM24.5098 20.833C24.6337 21.2573 24.6698 21.702 24.616 22.1404C24.5622 22.5788 24.4196 23.002 24.1967 23.3845C23.9738 23.7671 23.6752 24.1011 23.3188 24.3666C22.9625 24.6321 22.5557 24.8237 22.1228 24.9297L20.4265 25.3448C20.2417 26.5149 20.2462 27.7068 20.4398 28.8755L22.0565 29.261C22.4932 29.3652 22.9038 29.5562 23.2636 29.8224C23.6234 30.0887 23.9248 30.4246 24.1494 30.8097C24.3741 31.1949 24.5173 31.6213 24.5705 32.063C24.6236 32.5047 24.5855 32.9524 24.4585 33.3791L23.9218 35.1805C24.7798 35.9352 25.7605 36.5505 26.8256 36.9852L28.2221 35.5316C28.5316 35.2092 28.904 34.9525 29.3168 34.7771C29.7296 34.6016 30.174 34.5112 30.6232 34.5112C31.0724 34.5112 31.5169 34.6016 31.9296 34.7771C32.3424 34.9525 32.7149 35.2092 33.0243 35.5316L34.4324 37C35.4933 36.5685 36.4737 35.964 37.3329 35.2117L36.778 33.3085C36.6547 32.8845 36.6189 32.4401 36.673 32.002C36.7271 31.564 36.8698 31.1412 37.0926 30.7591C37.3155 30.3769 37.6139 30.0432 37.97 29.7779C38.3261 29.5126 38.7325 29.3212 39.165 29.2151L40.8646 28.7984C41.0495 27.6282 41.045 26.4364 40.8514 25.2677L39.233 24.8821C38.7963 24.778 38.3857 24.587 38.0259 24.3207C37.6661 24.0545 37.3647 23.7186 37.14 23.3334C36.9154 22.9483 36.7721 22.5219 36.719 22.0802C36.6659 21.6385 36.704 21.1908 36.831 20.7641L37.3677 18.9594C36.5087 18.2009 35.5271 17.5909 34.4638 17.1547L33.0674 18.6116C32.7579 18.9342 32.3854 19.1912 31.9724 19.3668C31.5595 19.5423 31.1148 19.6329 30.6655 19.6329C30.2161 19.6329 29.7714 19.5423 29.3585 19.3668C28.9456 19.1912 28.573 18.9342 28.2635 18.6116L26.8571 17.1432C25.7962 17.5747 24.8158 18.1792 23.9566 18.9315L24.5098 20.833ZM30.6456 29.5317C29.9866 29.5317 29.3546 29.2725 28.8886 28.8109C28.4226 28.3494 28.1608 27.7235 28.1608 27.0708C28.1608 26.4181 28.4226 25.7921 28.8886 25.3306C29.3546 24.8691 29.9866 24.6098 30.6456 24.6098C31.3046 24.6098 31.9366 24.8691 32.4026 25.3306C32.8686 25.7921 33.1304 26.4181 33.1304 27.0708C33.1304 27.7235 32.8686 28.3494 32.4026 28.8109C31.9366 29.2725 31.3046 29.5317 30.6456 29.5317Z" fill="#6A8EE8"/>
</svg>
