<svg width="30" height="34" viewBox="0 0 30 34" fill="none" xmlns="http://www.w3.org/2000/svg">
<path d="M15.0018 33V12.1989M10.3395 26.6029C7.76267 26.6029 5.67412 24.3963 5.67412 21.7466C4.47806 21.571 3.37278 20.991 2.53242 20.0979C1.69205 19.2047 1.16438 18.0493 1.03252 16.8137C0.900664 15.578 1.17213 14.3323 1.80414 13.2729C2.43615 12.2134 3.39278 11.4005 4.52332 10.962C4.14347 10.0905 4.02494 9.12227 4.18288 8.18108C4.34082 7.23989 4.76806 6.36858 5.40994 5.6786C6.05182 4.98861 6.87916 4.51133 7.78612 4.30781C8.69309 4.10429 9.63845 4.18377 10.5013 4.5361C10.7711 3.52022 11.358 2.62377 12.1716 1.98481C12.9852 1.34585 13.9804 0.999818 15.004 1C16.0275 1.00018 17.0226 1.34657 17.836 1.98582C18.6494 2.62507 19.236 3.52172 19.5055 4.5377C20.3683 4.18537 21.3137 4.10589 22.2206 4.30941C23.1276 4.51293 23.955 4.99021 24.5968 5.6802C25.2387 6.37018 25.6659 7.24149 25.8239 8.18268C25.9818 9.12387 25.8633 10.0921 25.4835 10.9636C26.6121 11.4033 27.5667 12.2164 28.1974 13.2751C28.8281 14.3338 29.099 15.578 28.9676 16.8124C28.8363 18.0467 28.31 19.2011 27.4716 20.0943C26.6332 20.9874 25.5301 21.5686 24.3358 21.7466C24.3358 24.3963 22.2472 26.6029 19.6704 26.6029M15.0018 21.7994L18.8897 17.7992M15.0018 18.5992L11.114 14.599M11.8916 33H18.1121" stroke="#6A8EE8" stroke-width="2" stroke-linecap="round" stroke-linejoin="round"/>
</svg>
