<svg width="36" height="34" viewBox="0 0 36 34" fill="none" xmlns="http://www.w3.org/2000/svg">
<path d="M17.6288 15.5274V25.9008C17.6261 26.859 17.4299 27.8067 17.052 28.6872C16.6741 29.5678 16.1223 30.3629 15.4297 31.025C14.7371 31.6872 13.918 32.2026 13.0213 32.5405C12.1247 32.8785 11.1691 33.0319 10.2118 32.9916C9.25444 32.9513 8.3151 32.7181 7.45007 32.306C6.58503 31.8939 5.8121 31.3114 5.17761 30.5934C4.54311 29.8754 4.06013 29.0367 3.75759 28.1275C3.45506 27.2183 3.33921 26.2574 3.41698 25.3024C1.93544 23.7111 1 20.5991 1 18.0018C1 14.4639 2.73762 11.0226 5.22515 9.6665C5.09038 8.43073 5.32905 7.18294 5.91036 6.08415C6.49167 4.98535 7.38893 4.08599 8.48637 3.50211C9.5838 2.91824 10.831 2.67666 12.0671 2.80854C13.3032 2.94043 14.4714 3.43972 15.4209 4.242" stroke="#6A8EE8" stroke-width="2" stroke-linecap="round" stroke-linejoin="round"/>
<path d="M8.51162 13.8976C7.59709 13.6886 5.53024 12.3299 5.2193 9.68555M5.3212 21.5719C4.39099 22.3061 3.64891 23.968 3.41113 25.3006M17.6282 25.9015C17.631 26.8597 17.8272 27.8075 18.2051 28.688C18.583 29.5685 19.1348 30.3637 19.8274 31.0258C20.52 31.6879 21.3391 32.2034 22.2357 32.5413C23.1324 32.8792 24.088 33.0326 25.0453 32.9923C26.0026 32.952 26.942 32.7188 27.807 32.3067C28.672 31.8947 29.445 31.3121 30.0795 30.5941C30.714 29.8761 31.1969 29.0374 31.4995 28.1283C31.802 27.2191 31.9179 26.2582 31.8401 25.3032C33.3216 23.7119 34.2545 20.5999 34.2545 18.0026C34.2545 16.8686 34.0768 15.745 33.7528 14.6946" stroke="#6A8EE8" stroke-width="2" stroke-linecap="round" stroke-linejoin="round"/>
<path d="M29.936 21.5738C30.8663 22.308 31.6083 23.9699 31.8461 25.3025M17.7963 9.97486C16.8817 9.81286 16.8817 8.49854 17.7963 8.33915C19.4201 8.05567 20.9229 7.29562 22.1136 6.15567C23.3043 5.01572 24.129 3.54737 24.4828 1.93741L24.5377 1.68395C24.7363 0.777258 26.0271 0.76942 26.2335 1.67612L26.2988 1.97138C26.664 3.57511 27.4954 5.03497 28.6885 6.16716C29.8816 7.29934 31.383 8.05323 33.0037 8.33392C33.926 8.49332 33.926 9.81808 33.0037 9.98009C31.383 10.2608 29.8816 11.0147 28.6885 12.1469C27.4954 13.279 26.664 14.7389 26.2988 16.3426L26.2335 16.6353C26.0245 17.5394 24.7363 17.5341 24.5377 16.6274L24.4828 16.3766C24.129 14.7666 23.3043 13.2983 22.1136 12.1583C20.9229 11.0184 19.4201 10.2583 17.7963 9.97486Z" stroke="#6A8EE8" stroke-width="2" stroke-linecap="round" stroke-linejoin="round"/>
</svg>
