<svg width="34" height="34" viewBox="0 0 34 34" fill="none" xmlns="http://www.w3.org/2000/svg">
<path d="M9 33H25" stroke="#6A8EE8" stroke-width="2" stroke-linecap="round" stroke-linejoin="round"/>
<path d="M1 25V4.2C1 3.35131 1.33714 2.53737 1.93726 1.93726C2.53737 1.33714 3.35131 1 4.2 1H29.8C30.6487 1 31.4626 1.33714 32.0627 1.93726C32.6629 2.53737 33 3.35131 33 4.2V25C33 25.8487 32.6629 26.6626 32.0627 27.2627C31.4626 27.8629 30.6487 28.2 29.8 28.2H4.2C3.35131 28.2 2.53737 27.8629 1.93726 27.2627C1.33714 26.6626 1 25.8487 1 25Z" stroke="#6A8EE8" stroke-width="2" stroke-linecap="round"/>
<path d="M12.2002 14.6004L15.4002 17.8004L21.8002 11.4004" stroke="#6A8EE8" stroke-width="2" stroke-linecap="round" stroke-linejoin="round"/>
</svg>
