<svg width="35" height="27" viewBox="0 0 35 27" fill="none" xmlns="http://www.w3.org/2000/svg">
<path d="M1 3.07812L6.60359 6.0919L11.6095 5.22864C12.443 5.08442 13.2981 5.12764 14.1127 5.35515C14.9274 5.58267 15.6811 5.98878 16.3192 6.54397M28.4152 18.9056L20.4925 24.5347C19.6419 25.139 18.6267 25.4683 17.5833 25.4783C16.54 25.4884 15.5186 25.1787 14.6565 24.5909L1 15.2814" stroke="#6A8EE8" stroke-width="2" stroke-linecap="round" stroke-linejoin="round"/>
<path d="M33.83 15.2214L28.2238 19.0525L19.5247 12.0289L16.3245 14.3556C15.6981 14.8104 14.9198 15.0043 14.1532 14.8967C13.3867 14.789 12.6919 14.3881 12.215 13.7784C11.7407 13.169 11.5208 12.3996 11.6012 11.6316C11.6817 10.8636 12.0564 10.1566 12.6467 9.6587L15.9797 6.8569C16.7697 6.19187 17.686 5.6934 18.6736 5.39144C19.6611 5.08947 20.6995 4.99024 21.7263 5.09972L26.9187 5.6565L33.83 1.91992" stroke="#6A8EE8" stroke-width="2" stroke-linecap="round" stroke-linejoin="round"/>
<path d="M19.5244 12.0479C21.6187 13.9124 24.5865 12.9597 25.6899 11.4375" stroke="#6A8EE8" stroke-width="2" stroke-linecap="round" stroke-linejoin="round"/>
</svg>
