<svg width="38" height="31" viewBox="0 0 38 31" fill="none" xmlns="http://www.w3.org/2000/svg">
<path d="M37 7.91489H14.9517L11.2283 0.547447C11.1453 0.382921 11.0176 0.244542 10.8595 0.147842C10.7014 0.0511408 10.5192 -5.50362e-05 10.3333 4.43982e-08H5C4.73478 4.43982e-08 4.48043 0.104236 4.29289 0.289777C4.10536 0.475319 4 0.726967 4 0.989362V7.91489H1C0.734784 7.91489 0.480429 8.01913 0.292893 8.20467C0.105357 8.39021 0 8.64186 0 8.90425C0 9.16665 0.105357 9.4183 0.292893 9.60384C0.480429 9.78938 0.734784 9.89362 1 9.89362H4V29.0213H1C0.734784 29.0213 0.480429 29.1255 0.292893 29.3111C0.105357 29.4966 0 29.7482 0 30.0106C0 30.273 0.105357 30.5247 0.292893 30.7102C0.480429 30.8958 0.734784 31 1 31H18.3333C18.5986 31 18.8529 30.8958 19.0404 30.7102C19.228 30.5247 19.3333 30.273 19.3333 30.0106C19.3333 29.7482 19.228 29.4966 19.0404 29.3111C18.8529 29.1255 18.5986 29.0213 18.3333 29.0213H15.3333V9.89362H32V24.734C32 24.8215 31.9649 24.9054 31.9024 24.9672C31.8399 25.0291 31.7551 25.0638 31.6667 25.0638H29C28.9116 25.0638 28.8268 25.0291 28.7643 24.9672C28.7018 24.9054 28.6667 24.8215 28.6667 24.734V23.4149C28.6667 23.1525 28.5613 22.9008 28.3738 22.7153C28.1862 22.5298 27.9319 22.4255 27.6667 22.4255C27.4015 22.4255 27.1471 22.5298 26.9596 22.7153C26.772 22.9008 26.6667 23.1525 26.6667 23.4149V24.734C26.6667 25.3463 26.9125 25.9335 27.3501 26.3664C27.7877 26.7993 28.3812 27.0426 29 27.0426H31.6667C32.2855 27.0426 32.879 26.7993 33.3166 26.3664C33.7542 25.9335 34 25.3463 34 24.734V9.89362H37C37.2652 9.89362 37.5196 9.78938 37.7071 9.60384C37.8946 9.4183 38 9.16665 38 8.90425C38 8.64186 37.8946 8.39021 37.7071 8.20467C37.5196 8.01913 37.2652 7.91489 37 7.91489ZM6 1.97872H9.715L12.715 7.91489H6V1.97872ZM6 29.0213V20.4468H13.3333V29.0213H6ZM13.3333 18.4681H6V9.89362H13.3333V18.4681Z" fill="#6A8EE8"/>
</svg>
