<svg width="42" height="42" viewBox="0 0 42 42" fill="none" xmlns="http://www.w3.org/2000/svg">
<path d="M21 28.998C32.046 28.998 41 25.416 41 20.998C41 16.58 32.046 12.998 21 12.998C9.954 12.998 1 16.58 1 20.998C1 25.416 9.954 28.998 21 28.998Z" stroke="#6A8EE8" stroke-width="2" stroke-linecap="round" stroke-linejoin="round"/>
<path d="M29.001 21C29.001 32.046 25.419 41 21.001 41C16.583 41 13.001 32.046 13.001 21C13.001 9.954 16.583 1 21.001 1C25.419 1 29.001 9.954 29.001 21Z" stroke="#6A8EE8" stroke-width="2" stroke-linecap="round" stroke-linejoin="round"/>
<path d="M21 41C32.0457 41 41 32.0457 41 21C41 9.9543 32.0457 1 21 1C9.9543 1 1 9.9543 1 21C1 32.0457 9.9543 41 21 41Z" stroke="#6A8EE8" stroke-width="2" stroke-linecap="round" stroke-linejoin="round"/>
</svg>
