<svg width="378" height="757" viewBox="0 0 378 757" fill="none" xmlns="http://www.w3.org/2000/svg">
<mask id="mask0_259_14003" style="mask-type:alpha" maskUnits="userSpaceOnUse" x="0" y="0" width="378" height="757">
<rect width="377.134" height="757" transform="matrix(-1 0 0 1 377.134 0)" fill="#D9D9D9"/>
</mask>
<g mask="url(#mask0_259_14003)">
<path fill-rule="evenodd" clip-rule="evenodd" d="M1.21198 0L35.5164 34.3044L1.21198 68.6087L-33.0924 34.3044L1.21198 0ZM136.645 68.6656L102.341 34.3612L84.1186 52.5836L84.0897 52.5547L-0.809082 137.453L-0.898193 137.364L-0.870209 137.336L-35.1746 103.031L-35.2025 103.059L-35.203 103.059L-35.175 103.031L-69.4793 68.7264L-69.5074 68.7545L-97.9757 40.2862L-97.9762 40.2866L-103.9 34.3632L-138.204 68.6676L-132.28 74.5905L-122.033 84.8387L-122.033 84.839L-138.204 68.6678L-172.509 102.972L-138.204 137.277L-103.902 102.975L-87.7311 119.146L-87.728 119.143L-43.1994 163.671L-43.1998 163.672L-35.1139 171.757L-35.1728 171.816L-43.1998 179.843L-69.4771 206.121L-69.4775 206.121L-103.782 240.425L-103.782 240.426L-138.087 274.73L-138.087 274.731L-172.391 309.035L-206.932 343.577L-275.72 274.789L-275.661 274.73L-263.651 262.72L-241.356 240.425L-241.296 240.486L-225.186 256.597L-206.992 274.79L-172.688 240.486L-190.881 222.293L-206.992 206.182L-207.052 206.122L-207.051 206.121L-241.355 171.816L-275.66 206.121L-259.489 222.291L-259.49 222.293L-275.661 206.121L-297.955 228.416L-309.965 240.425L-332.26 262.72L-332.199 262.781L-344.269 274.851L-309.964 309.156L-309.963 309.155L-275.658 343.46L-275.66 343.463L-261.453 357.67L-261.512 357.729L-241.3 377.941L-257.469 394.111L-257.468 394.112L-318.056 454.701L-318.025 454.733L-344.268 480.976L-324.086 501.158L-324.176 501.248L-289.872 535.552L-289.841 535.522L-275.661 549.702L-241.357 515.398L-275.661 481.094L-275.691 481.124L-275.749 481.066L-275.66 480.976L-275.691 480.944L-275.659 480.976L-241.355 446.672L-207.051 412.367L-207.082 412.335L-206.994 412.247L-167.382 451.859L-167.351 451.828L-138.086 481.093L-103.782 515.398L-103.751 515.367L-103.751 515.367L-103.781 515.398L-69.4771 549.703L-55.7119 563.468L-55.7418 563.498L-35.1154 584.124L-57.3503 606.359L-57.3492 606.36L-69.4789 618.49L-69.4779 618.491L-69.4784 618.491L-69.4793 618.49L-103.784 652.795L-103.783 652.796L-103.869 652.882L-103.9 652.852L-138.204 687.156L-103.9 721.46L-85.7385 703.299L-85.7081 703.33L-0.808899 618.431L90.1524 709.392L90.2121 709.332L102.34 721.46L136.645 687.156L114.071 664.583L114.073 664.582L136.646 687.156L148.774 675.027L148.775 675.029L183.08 640.724L183.05 640.694L205.313 618.431L171.008 584.127L136.704 618.431L136.734 618.461L136.647 618.548L136.646 618.547L102.341 652.851L33.556 584.066L33.6729 583.949L33.7314 584.007L68.0358 549.703L67.9776 549.644L68.0361 549.703L102.34 515.398L136.645 481.094L136.586 481.035L136.587 481.035L136.645 481.093L170.95 446.789L170.891 446.73L171.098 446.523L171.129 446.554L205.406 412.277L274.192 481.062L239.768 515.486L239.71 515.428L239.799 515.34L205.495 481.035L171.19 515.34L191.373 535.522L191.284 535.611L225.589 569.915L225.678 569.826L239.859 584.007L274.163 549.703L274.161 549.701L316.275 507.588L316.218 507.531L342.772 480.976L308.468 446.672L308.439 446.701L308.439 446.701L308.468 446.672L274.163 412.367L274.134 412.396L274.134 412.396L274.163 412.367L239.859 378.062L239.83 378.091L239.68 377.942L251.769 365.853L251.768 365.852L274.163 343.457L239.859 309.152L217.231 331.781L217.229 331.779L205.434 343.576L171.129 309.271L171.069 309.331L170.862 309.123L170.95 309.035L136.646 274.731L136.557 274.819L136.556 274.818L136.645 274.73L102.34 240.426L102.34 240.425L68.0361 206.121L67.9475 206.209L67.9473 206.209L68.0357 206.121L33.7314 171.816L33.6429 171.905L33.4973 171.759L33.6162 171.64L33.6144 171.639L33.6149 171.638L33.6165 171.64L67.9209 137.335L67.9193 137.334L67.9196 137.334L67.9213 137.335L102.226 103.031L102.224 103.029L102.312 102.941L118.543 119.172L118.512 119.203L136.703 137.394L102.399 171.697L136.704 206.001L171.008 171.697L152.817 153.506L152.818 153.506L171.008 171.696L205.313 137.392L191.192 123.271L191.222 123.242L136.645 68.6656ZM-172.627 377.882L-0.750519 549.759L171.069 377.94L15.3635 222.234L15.3619 222.236L-0.810638 206.063L-0.868408 206.121L-8.89545 214.148L-35.1728 240.425L-35.1731 240.425L-69.4775 274.729L-69.478 274.73L-103.782 309.034L-103.783 309.035L-124.176 329.428L-124.174 329.429L-138.325 343.58L-158.478 363.734L-172.627 377.882ZM-275.661 549.703L-241.356 584.007L-217.13 559.781L-217.099 559.812L-182.794 525.508L-182.825 525.477L-172.688 515.34L-206.992 481.035L-241.296 515.34L-241.266 515.37L-241.325 515.43L-241.356 515.399L-275.661 549.703ZM239.859 171.816L274.163 206.121L239.859 240.425L239.8 240.366L239.739 240.426L239.799 240.486L205.495 274.79L171.19 240.486L187.3 224.376L187.24 224.316L221.545 190.012L221.604 190.071L239.859 171.816ZM274.164 206.121L308.468 240.426L308.408 240.486L308.467 240.544L308.468 240.543L342.772 274.847L308.468 309.152L288.254 288.937L288.253 288.938L308.468 309.152L274.163 343.456L239.859 309.152L274.162 274.849L253.948 254.634L254.008 254.574L239.859 240.426L274.164 206.121ZM-103.784 377.881L-69.48 343.576L-35.1757 377.881L-35.2341 377.939L-0.807373 412.366L-0.750305 412.309L33.554 446.613L-0.750305 480.917L-14.9011 466.767L-14.9582 466.824L-35.1728 446.609L-35.1745 446.611L-69.4789 412.306L-69.4771 412.305L-76.0464 405.735L-75.988 405.677L-103.784 377.881ZM-69.4789 343.576L-35.1746 309.271L-35.1732 309.273L-16.9807 291.08L-16.924 291.137L-0.693481 274.906L33.6109 309.211L-0.693481 343.515L-0.750122 343.458L-16.9807 359.689L-16.9821 359.687L-35.1746 377.88L-69.4789 343.576ZM33.5546 378.004L13.4008 398.158L-0.749817 412.308L33.5546 446.613L47.7051 432.462L67.8589 412.308L82.0095 398.158L81.946 398.094L102.22 377.82L67.916 343.516L33.6116 377.82L33.6751 377.884L33.5546 378.004ZM102.399 584.126L136.704 618.431L171.008 584.126L136.704 549.822L102.399 584.126ZM-206.813 137.277L-172.509 102.973L-138.205 137.277L-138.323 137.396L-138.265 137.453L-122.153 153.566L-103.96 171.757L-138.265 206.062L-156.457 187.87L-172.569 171.757L-190.762 153.566L-190.643 153.447L-206.813 137.277ZM-138.204 687.156L-172.509 652.851L-138.204 618.547L-103.9 652.851L-138.204 687.156ZM-172.509 652.851L-206.813 618.546L-192.695 604.428L-192.783 604.34L-172.539 584.096L-172.569 584.066L-138.265 549.762L-103.96 584.066L-124.204 604.31L-124.174 604.34L-138.293 618.458L-138.205 618.546L-172.509 652.851ZM67.9156 343.515L33.6113 309.211L-0.693115 343.515L33.6113 377.82L67.9156 343.515ZM-344.448 343.639L-310.144 377.943L-344.448 412.247L-378.753 377.943L-344.448 343.639ZM377.134 377.943L342.829 343.639L308.525 377.943L342.829 412.247L377.134 377.943ZM35.5164 721.519L1.21198 755.824L-33.0924 721.519L1.21198 687.215L35.5164 721.519Z" fill="#081951" fill-opacity="0.05"/>
</g>
</svg>
