<svg width="757" height="756" viewBox="0 0 757 756" fill="none" xmlns="http://www.w3.org/2000/svg">
<path fill-rule="evenodd" clip-rule="evenodd" d="M376.849 0L342.544 34.3044L376.849 68.6087L411.153 34.3044L376.849 0ZM241.416 68.6654L275.72 34.361L293.942 52.5833L293.971 52.5547L378.87 137.453L378.959 137.364L378.931 137.336L413.235 103.031L413.263 103.059L413.264 103.059L413.236 103.031L447.54 68.7264L447.568 68.7546L476.036 40.2862L476.037 40.2867L481.961 34.3632L516.265 68.6675L510.341 74.5905L500.094 84.8389L500.094 84.8392L516.265 68.6678L550.57 102.972L516.265 137.277L481.963 102.975L465.792 119.146L465.789 119.143L421.26 163.671L421.261 163.672L413.175 171.757L413.234 171.816L421.261 179.843L447.538 206.121L447.538 206.121L481.843 240.425L481.843 240.426L516.148 274.73L550.452 309.035L584.993 343.577L653.781 274.789L653.722 274.73L641.712 262.72L619.417 240.425L619.357 240.486L603.247 256.597L585.053 274.79L550.748 240.486L568.942 222.293L585.053 206.182L585.113 206.122L585.112 206.121L619.416 171.816L653.721 206.121L637.55 222.292L637.551 222.293L653.722 206.121L676.016 228.416L688.026 240.425L710.32 262.72L710.26 262.781L722.329 274.851L688.025 309.156L688.024 309.155L653.718 343.46L653.721 343.463L639.513 357.67L639.573 357.729L619.36 377.941L635.53 394.111L635.529 394.112L696.117 454.701L696.086 454.732L722.329 480.976L702.147 501.158L702.237 501.248L667.932 535.552L667.902 535.522L653.722 549.702L619.417 515.398L653.722 481.094L653.752 481.124L653.81 481.066L653.721 480.976L653.752 480.944L653.72 480.976L619.416 446.672L585.112 412.367L585.143 412.336L585.055 412.247L545.443 451.859L545.413 451.829L516.148 481.093L516.117 481.062L516.148 481.093L481.843 515.398L481.812 515.367L481.812 515.367L481.843 515.398L447.538 549.703L447.507 549.672L447.538 549.703L433.773 563.468L433.802 563.498L413.176 584.124L435.411 606.359L435.41 606.36L447.539 618.49L447.538 618.491L447.539 618.491L447.54 618.49L481.844 652.795L481.843 652.796L481.93 652.882L481.961 652.852L516.265 687.156L481.961 721.46L463.799 703.299L463.769 703.33L378.869 618.431L287.908 709.392L287.848 709.332L275.72 721.46L241.416 687.156L263.989 664.583L263.988 664.582L241.415 687.156L229.287 675.027L229.286 675.029L194.981 640.724L195.011 640.694L172.748 618.431L207.052 584.127L241.357 618.431L241.327 618.461L241.414 618.548L241.415 618.547L275.719 652.851L344.505 584.066L344.388 583.949L344.329 584.007L310.025 549.703L310.083 549.644L310.025 549.703L275.72 515.398L275.72 515.398L241.416 481.093L241.474 481.035L241.473 481.035L241.415 481.093L207.111 446.789L207.169 446.73L206.962 446.523L206.932 446.554L172.654 412.277L103.869 481.062L138.293 515.486L138.351 515.428L138.262 515.34L172.566 481.035L206.871 515.34L186.688 535.522L186.776 535.611L152.472 569.915L152.383 569.826L138.202 584.007L103.897 549.703L103.899 549.701L61.7856 507.588L61.8427 507.53L35.2886 480.976L69.593 446.672L69.6218 446.701L69.6221 446.701L69.5933 446.672L103.898 412.367L103.926 412.396L103.927 412.396L103.898 412.367L138.202 378.062L138.231 378.091L138.381 377.942L126.292 365.853L126.293 365.852L103.898 343.457L138.202 309.152L160.83 331.78L160.831 331.779L172.627 343.576L206.931 309.271L206.991 309.331L207.199 309.124L207.11 309.035L241.415 274.73L241.503 274.819L241.504 274.819L241.416 274.73L275.72 240.426L275.72 240.425L310.024 206.121L310.113 206.21L310.113 206.209L310.025 206.121L344.329 171.816L344.418 171.905L344.564 171.759L344.445 171.64L344.446 171.639L344.446 171.638L344.444 171.64L310.14 137.335L310.142 137.334L310.141 137.334L310.14 137.335L275.835 103.031L275.837 103.029L275.749 102.941L259.518 119.172L259.549 119.203L241.358 137.394L275.662 171.697L241.357 206.001L207.053 171.697L225.244 153.506L225.243 153.506L207.052 171.696L172.748 137.392L186.869 123.271L186.84 123.242L241.416 68.6656L241.416 68.6654ZM550.688 377.882L378.811 549.759L206.992 377.94L362.697 222.234L362.699 222.236L378.871 206.063L378.929 206.121L386.956 214.148L413.234 240.425L413.234 240.425L447.538 274.73L447.539 274.73L481.843 309.035L481.844 309.035L502.237 329.428L502.235 329.429L516.386 343.58L536.539 363.734L550.688 377.882ZM653.721 549.703L619.417 584.007L595.19 559.781L595.159 559.812L560.855 525.508L560.886 525.477L550.748 515.34L585.053 481.035L619.357 515.34L619.326 515.37L619.386 515.43L619.417 515.399L653.721 549.703ZM138.202 171.816L103.898 206.121L138.202 240.425L138.261 240.366L138.322 240.426L138.262 240.486L172.566 274.79L206.871 240.486L190.761 224.376L190.82 224.316L156.516 190.012L156.457 190.071L138.202 171.816ZM103.897 206.121L69.5929 240.426L69.6531 240.486L69.5945 240.544L69.593 240.543L35.2886 274.847L69.593 309.152L89.8073 288.937L89.8075 288.938L69.5933 309.152L103.898 343.456L138.202 309.152L103.899 274.849L124.113 254.634L124.053 254.574L138.202 240.426L103.897 206.121ZM481.845 377.881L447.541 343.576L413.236 377.881L413.295 377.939L378.868 412.366L378.811 412.309L344.507 446.613L378.811 480.917L392.962 466.766L393.019 466.824L413.234 446.609L413.235 446.611L447.54 412.306L447.538 412.305L454.107 405.735L454.049 405.677L481.845 377.881ZM447.54 343.576L413.235 309.271L413.234 309.273L395.041 291.08L394.985 291.137L378.754 274.906L344.45 309.211L378.754 343.515L378.811 343.458L395.041 359.689L395.043 359.687L413.235 377.88L447.54 343.576ZM344.506 378.004L364.66 398.158L378.811 412.308L344.506 446.613L330.356 432.462L310.202 412.308L296.051 398.158L296.115 398.094L275.84 377.82L310.145 343.516L344.449 377.82L344.386 377.884L344.506 378.004ZM275.661 584.126L241.357 618.431L207.053 584.126L241.357 549.822L275.661 584.126ZM584.874 137.277L550.57 102.973L516.266 137.277L516.384 137.396L516.326 137.453L500.214 153.566L482.021 171.757L516.326 206.062L534.518 187.87L550.63 171.757L568.823 153.566L568.704 153.447L584.874 137.277ZM516.265 687.156L550.57 652.851L516.265 618.547L481.961 652.851L516.265 687.156ZM550.57 652.851L584.874 618.546L570.756 604.428L570.844 604.34L550.6 584.096L550.63 584.066L516.326 549.762L482.021 584.066L502.265 604.31L502.235 604.34L516.354 618.458L516.266 618.546L550.57 652.851ZM310.145 343.515L344.45 309.211L378.754 343.515L344.45 377.82L310.145 343.515ZM722.509 343.639L688.205 377.943L722.509 412.247L756.814 377.943L722.509 343.639ZM0.927246 377.943L35.2316 343.639L69.536 377.943L35.2316 412.247L0.927246 377.943ZM342.544 721.519L376.849 755.824L411.153 721.519L376.849 687.215L342.544 721.519Z" fill="#081951" fill-opacity="0.05"/>
</svg>
