<svg width="377" height="757" viewBox="0 0 377 757" fill="none" xmlns="http://www.w3.org/2000/svg">
<mask id="mask0_259_14002" style="mask-type:alpha" maskUnits="userSpaceOnUse" x="0" y="0" width="378" height="757">
<rect width="377.134" height="757" fill="#D9D9D9"/>
</mask>
<g mask="url(#mask0_259_14002)">
<path fill-rule="evenodd" clip-rule="evenodd" d="M375.922 0L341.617 34.3044L375.922 68.6087L410.226 34.3044L375.922 0ZM185.912 123.242L261.181 47.9733L261.181 47.9736L274.793 34.3613L293.015 52.5835L293.044 52.5547L377.942 137.453L378.032 137.364L378.003 137.336L412.308 103.031L412.336 103.059L412.336 103.059L412.308 103.031L446.613 68.7266L446.641 68.7548L475.109 40.2862L475.11 40.2866L481.033 34.3633L515.337 68.6676L509.414 74.5905L499.166 84.8389L499.167 84.8393L515.338 68.6679L549.642 102.972L515.338 137.277L481.036 102.974L464.864 119.146L464.861 119.143L420.333 163.671L420.333 163.672L412.247 171.758L412.306 171.816L420.333 179.843L446.61 206.121L446.611 206.121L480.915 240.425L480.915 240.426L515.22 274.73L549.524 309.035L584.066 343.577L652.853 274.789L652.794 274.73L640.784 262.72L618.49 240.425L618.43 240.486L602.319 256.597L584.126 274.79L549.821 240.486L568.015 222.293L584.126 206.182L584.186 206.122L584.185 206.121L618.489 171.816L652.793 206.121L636.622 222.292L636.623 222.293L652.794 206.121L675.089 228.416L687.099 240.425L709.393 262.72L709.332 262.781L721.402 274.851L687.098 309.156L687.097 309.155L652.791 343.46L652.793 343.463L638.586 357.67L638.646 357.729L618.433 377.941L634.603 394.111L634.602 394.112L695.19 454.701L695.158 454.733L721.402 480.976L701.22 501.158L701.309 501.248L667.005 535.552L666.975 535.522L652.794 549.702L618.49 515.398L652.794 481.094L652.824 481.124L652.883 481.066L652.793 480.976L652.825 480.944L652.793 480.976L618.489 446.672L584.185 412.367L584.216 412.335L584.128 412.247L544.516 451.859L544.485 451.828L515.22 481.093L515.189 481.062L515.22 481.093L480.915 515.398L480.885 515.367L480.915 515.398L446.611 549.703L446.58 549.672L446.61 549.703L432.845 563.468L432.875 563.498L412.249 584.124L434.484 606.359L434.483 606.36L446.613 618.49L446.611 618.491L446.612 618.492L446.613 618.49L480.917 652.795L480.916 652.796L481.002 652.882L481.033 652.852L515.337 687.156L481.033 721.46L462.872 703.299L462.841 703.33L377.942 618.431L286.981 709.392L286.921 709.332L274.793 721.46L240.489 687.156L263.062 664.583L263.061 664.582L240.488 687.156L228.36 675.027L228.358 675.029L194.054 640.724L194.084 640.694L171.821 618.431L206.125 584.127L240.43 618.431L240.4 618.461L240.486 618.548L240.488 618.547L274.792 652.851L343.577 584.066L343.46 583.949L343.402 584.007L309.098 549.703L309.156 549.644L309.097 549.703L274.793 515.398L240.489 481.093L240.547 481.035L240.546 481.035L240.488 481.093L206.184 446.789L206.242 446.73L206.035 446.523L206.004 446.554L171.727 412.277L102.942 481.062L137.366 515.486L137.423 515.428L137.335 515.34L171.639 481.035L205.943 515.34L185.761 535.522L185.849 535.611L151.545 569.915L151.456 569.826L137.275 584.007L102.97 549.703L102.972 549.701L60.8586 507.588L60.9156 507.531L34.3612 480.976L68.6656 446.672L68.6946 446.701L68.6949 446.701L68.6659 446.672L102.97 412.367L102.999 412.396L103 412.396L102.971 412.367L137.275 378.062L137.304 378.091L137.453 377.942L125.365 365.853L125.366 365.852L102.971 343.457L137.275 309.152L159.903 331.78L159.904 331.779L171.7 343.576L206.004 309.271L206.064 309.331L206.272 309.123L206.184 309.035L240.488 274.73L240.576 274.819L240.577 274.818L240.489 274.73L274.793 240.426L274.793 240.425L309.097 206.121L309.186 206.21L309.186 206.209L309.098 206.121L343.402 171.816L343.491 171.905L343.636 171.759L343.518 171.64L343.519 171.639L343.519 171.638L343.517 171.64L309.213 137.336L309.215 137.334L309.214 137.333L309.212 137.335L274.908 103.031L274.91 103.029L274.822 102.941L274.793 102.97L274.793 102.97L258.591 119.172L258.622 119.203L240.431 137.394L274.734 171.697L240.43 206.001L206.126 171.697L224.316 153.506L224.316 153.506L206.125 171.696L171.821 137.392L185.942 123.271L185.912 123.242ZM549.761 377.882L377.884 549.759L206.064 377.94L361.77 222.234L361.772 222.236L377.944 206.063L378.002 206.121L386.029 214.148L412.306 240.425L412.306 240.425L446.611 274.73L446.611 274.73L480.915 309.035L480.916 309.035L501.309 329.428L501.308 329.429L515.459 343.58L535.612 363.734L549.761 377.882ZM652.794 549.703L618.489 584.007L594.263 559.781L594.232 559.812L559.928 525.508L559.958 525.477L549.821 515.34L584.126 481.035L618.43 515.34L618.399 515.37L618.458 515.43L618.489 515.399L652.794 549.703ZM137.275 171.816L102.97 206.121L137.275 240.425L137.334 240.366L137.394 240.426L137.335 240.486L171.639 274.79L205.943 240.486L189.833 224.376L189.893 224.316L155.589 190.012L155.529 190.071L137.275 171.816ZM102.97 206.121L68.6656 240.426L68.7258 240.486L68.6671 240.544L68.6656 240.543L34.3612 274.847L68.6656 309.152L88.88 288.937L88.8803 288.938L68.6659 309.152L102.97 343.456L137.275 309.152L102.972 274.849L123.186 254.634L123.126 254.574L137.274 240.426L102.97 206.121ZM480.918 377.881L446.614 343.576L412.309 377.881L412.368 377.939L377.942 412.365L377.884 412.307L343.58 446.611L377.884 480.915L392.034 466.766L392.092 466.824L412.306 446.609L412.308 446.611L446.612 412.306L446.611 412.305L453.18 405.735L453.122 405.677L480.918 377.881ZM446.613 343.576L412.308 309.272L412.307 309.273L394.114 291.08L394.057 291.137L377.827 274.906L343.523 309.211L377.827 343.515L377.884 343.458L394.114 359.689L394.115 359.687L412.308 377.88L446.613 343.576ZM343.579 378.002L377.884 412.306L343.579 446.611L329.43 432.461L329.428 432.462L295.124 398.158L295.188 398.094L274.913 377.82L309.217 343.516L343.522 377.82L343.458 377.883L343.578 378.003L343.579 378.002ZM274.734 584.127L240.43 618.431L206.126 584.127L240.43 549.822L274.734 584.127ZM583.947 137.277L549.643 102.973L515.339 137.277L515.457 137.396L515.399 137.454L515.398 137.453L481.094 171.757L515.398 206.062L533.59 187.87L533.591 187.87L567.895 153.566L567.777 153.447L583.947 137.277ZM515.338 687.156L549.642 652.851L515.338 618.547L481.033 652.851L515.338 687.156ZM549.642 652.851L583.947 618.547L569.828 604.428L569.916 604.34L549.673 584.096L549.703 584.066L515.398 549.762L481.094 584.066L501.337 604.31L501.308 604.34L515.426 618.458L515.338 618.547L549.642 652.851ZM309.218 343.515L343.522 309.211L377.827 343.515L343.522 377.82L309.218 343.515ZM721.582 343.639L687.277 377.943L721.582 412.247L755.886 377.943L721.582 343.639ZM0 377.943L34.3044 343.639L68.6087 377.943L34.3044 412.247L0 377.943ZM341.617 721.519L375.922 755.824L410.226 721.519L375.922 687.215L341.617 721.519Z" fill="#081951" fill-opacity="0.05"/>
</g>
</svg>
