<svg width="664" height="795" viewBox="0 0 664 795" fill="none" xmlns="http://www.w3.org/2000/svg">
<path fill-rule="evenodd" clip-rule="evenodd" d="M311.86 3.77952C314.509 -0.634401 326.159 -0.291262 331.74 0.440476C337.32 -0.291262 348.971 -0.634401 351.619 3.77952L349.401 5.99881V14.8725C355.316 19.3093 367.148 35.2819 367.148 63.6775C370.475 76.988 376.465 105.606 373.803 113.592L376.021 121.356C386.004 121.726 412.403 124.24 438.137 131.339C455.414 136.105 489.009 132.552 520.019 129.272C546.745 126.445 571.551 123.822 582.334 126.902C585.661 122.096 595.422 111.817 607.846 109.155C616.957 107.202 621.868 104.104 625.044 102.101C627.28 100.691 628.655 99.823 630.03 100.281C632.692 101.169 632.618 105.088 632.248 106.937C635.206 107.676 642.675 108.933 648.886 108.046C656.651 106.937 661.088 108.046 659.978 113.592C661.457 114.331 664.193 116.476 663.306 119.138C662.419 121.8 659.978 122.465 658.869 122.465C661.088 123.575 664.193 126.68 658.869 130.23C656.243 131.981 653.963 134.422 651.482 137.077C647.677 141.151 643.401 145.729 636.685 149.086C625.593 154.632 608.955 157.96 594.535 155.742C594.905 157.59 594.757 161.51 591.208 162.397C589.319 162.869 577.183 168.766 562.155 176.069L562.154 176.07C541.872 185.925 516.322 198.341 503.58 203.438C481.396 212.311 453.666 218.966 435.919 220.076C432.043 220.318 428.644 220.349 425.651 220.375C414.939 220.472 409.438 220.522 405.97 230.059C405.388 231.659 404.863 233.126 404.378 234.482C401.166 243.462 399.696 247.57 394.878 253.352C402.273 273.318 417.506 326.116 419.281 377.583L415.953 380.911C421.129 433.043 432.591 559.049 437.028 646.011C438.507 647.12 441.686 650.226 442.574 653.775C443.683 658.212 448.12 678.178 440.355 689.27C448.12 689.64 463.871 690.823 464.758 692.598C465.645 694.372 465.128 717 464.758 728.092H450.194V795H214.891V728.092H198.721C198.352 717 197.834 694.372 198.721 692.598C199.609 690.823 215.359 689.64 223.124 689.27C215.359 678.178 219.796 658.212 220.905 653.775C221.793 650.226 224.972 647.12 226.451 646.011C230.888 559.049 242.35 433.043 247.526 380.911L244.199 377.583C245.973 326.116 261.207 273.318 268.601 253.352C263.783 247.57 262.313 243.462 259.101 234.482C258.616 233.126 258.091 231.659 257.509 230.059C254.041 220.522 248.54 220.472 237.828 220.375H237.828C234.835 220.349 231.436 220.318 227.561 220.076C209.813 218.966 182.083 212.311 159.899 203.438C147.157 198.341 121.607 185.925 101.325 176.07C86.2964 168.766 74.1601 162.869 72.2717 162.397C68.7222 161.51 68.5743 157.59 68.9441 155.742C54.5244 157.96 37.8863 154.632 26.7942 149.086C20.0787 145.729 15.8027 141.151 11.9968 137.077L11.9967 137.077C9.51651 134.422 7.23598 131.981 4.61009 130.23C-0.7141 126.68 2.39167 123.575 4.61009 122.465C3.5009 122.465 1.06065 121.8 0.17329 119.138C-0.7141 116.476 2.02195 114.331 3.5009 113.592C2.39167 108.046 6.8285 106.937 14.593 108.046C20.8045 108.933 28.2732 107.676 31.2311 106.937C30.8613 105.088 30.7874 101.169 33.4495 100.281C34.8246 99.823 36.1996 100.691 38.4357 102.101C41.6107 104.104 46.5217 107.202 55.6336 109.155C68.0567 111.817 77.8177 122.096 81.1453 126.902C91.928 123.822 116.734 126.445 143.461 129.272C174.47 132.552 208.066 136.105 225.342 131.339C251.076 124.24 277.475 121.726 287.458 121.356L289.676 113.592C287.014 105.606 293.004 76.988 296.331 63.6775C296.331 35.2819 308.163 19.3093 314.079 14.8725V5.99881L311.86 3.77952Z" fill="url(#paint0_linear_255_5477)"/>
<defs>
<linearGradient id="paint0_linear_255_5477" x1="331.74" y1="0" x2="331.74" y2="931.001" gradientUnits="userSpaceOnUse">
<stop stop-color="#061545"/>
<stop offset="1" stop-color="#091C5A"/>
</linearGradient>
</defs>
</svg>
