<svg width="585" height="701" viewBox="0 0 585 701" fill="none" xmlns="http://www.w3.org/2000/svg">
<path fill-rule="evenodd" clip-rule="evenodd" d="M274.727 3.98965C277.06 0.101315 287.323 0.403571 292.24 1.04817C297.156 0.403571 307.419 0.101315 309.752 3.98965L307.797 5.94469V13.7618C313.009 17.6703 323.432 31.741 323.432 56.7557C326.363 68.4813 331.64 93.6913 329.294 100.727L331.249 107.567C340.043 107.892 363.299 110.107 385.968 116.361C401.188 120.559 430.783 117.429 458.1 114.54C481.644 112.05 503.497 109.738 512.996 112.452C515.927 108.218 524.526 99.1633 535.47 96.8182C543.497 95.0981 547.823 92.3688 550.62 90.6042C552.59 89.3615 553.801 88.5973 555.012 89.0011C557.357 89.7828 557.292 93.2353 556.967 94.8639C559.572 95.5153 566.152 96.6227 571.624 95.841C578.464 94.8639 582.372 95.841 581.395 100.727C582.698 101.378 585.108 103.267 584.326 105.612C583.545 107.957 581.395 108.544 580.418 108.544C582.372 109.521 585.108 112.257 580.418 115.384C578.105 116.926 576.096 119.076 573.911 121.415C570.558 125.005 566.791 129.037 560.875 131.995C551.104 136.881 536.447 139.812 523.744 137.858C524.07 139.486 523.939 142.939 520.813 143.721C519.149 144.136 508.459 149.331 495.22 155.764L495.219 155.765L495.218 155.766C477.351 164.448 454.844 175.385 443.619 179.875C424.076 187.692 399.648 193.554 384.014 194.532C380.6 194.745 377.605 194.772 374.969 194.796H374.969C365.532 194.881 360.686 194.924 357.631 203.326C357.119 204.736 356.656 206.028 356.229 207.223C353.399 215.133 352.105 218.752 347.86 223.846C354.374 241.434 367.793 287.946 369.357 333.285L366.425 336.216C370.985 382.141 381.082 493.144 384.991 569.751C386.294 570.728 389.095 573.464 389.877 576.591C390.854 580.499 394.762 598.088 387.922 607.859C394.762 608.185 408.638 609.227 409.419 610.791C410.201 612.354 409.745 632.288 409.419 642.059H396.59V701H189.304V642.059H175.06C174.734 632.288 174.278 612.354 175.06 610.791C175.841 609.227 189.717 608.185 196.557 607.859C189.717 598.088 193.625 580.499 194.602 576.591C195.384 573.464 198.185 570.728 199.488 569.751C203.397 493.144 213.494 382.141 218.054 336.216L215.122 333.285C216.686 287.946 230.105 241.434 236.619 223.846C232.374 218.752 231.08 215.133 228.25 207.223C227.823 206.028 227.36 204.736 226.848 203.326C223.793 194.924 218.947 194.881 209.51 194.796H209.51C206.873 194.772 203.879 194.745 200.465 194.532C184.831 193.554 160.403 187.692 140.86 179.875C129.635 175.385 107.128 164.448 89.2615 155.766L89.2606 155.765L89.26 155.765C76.0207 149.332 65.3299 144.136 63.6664 143.721C60.5395 142.939 60.4092 139.486 60.735 137.858C48.0322 139.812 33.3752 136.881 23.6039 131.995C17.6879 129.037 13.921 125.005 10.5684 121.415C8.38344 119.077 6.37444 116.926 4.06119 115.384C-0.629057 112.257 2.1069 109.521 4.06119 108.544C3.08405 108.544 0.934358 107.957 0.15265 105.612C-0.629057 103.267 1.78119 101.378 3.08405 100.727C2.1069 95.841 6.01544 94.8639 12.8554 95.841C18.3273 96.6227 24.9067 95.5153 27.5124 94.8639C27.1867 93.2353 27.1216 89.7828 29.4667 89.0011C30.678 88.5973 31.8894 89.3615 33.8592 90.6042C36.6562 92.3688 40.9824 95.0981 49.0093 96.8182C59.9532 99.1633 68.552 108.218 71.4834 112.452C80.9822 109.738 102.835 112.05 126.379 114.54C153.696 117.429 183.291 120.559 198.511 116.361C221.18 110.107 244.436 107.892 253.23 107.567L255.185 100.727C252.839 93.6913 258.116 68.4813 261.047 56.7557C261.047 31.741 271.47 17.6703 276.682 13.7618V5.94469L274.727 3.98965Z" fill="url(#paint0_linear_255_5477)"/>
<defs>
<linearGradient id="paint0_linear_255_5477" x1="292.239" y1="0.660156" x2="292.239" y2="820.807" gradientUnits="userSpaceOnUse">
<stop stop-color="#061545"/>
<stop offset="1" stop-color="#091C5A"/>
</linearGradient>
</defs>
</svg>
